<?xml version="1.0" standalone="no"?>
<!DOCTYPE svg PUBLIC "-//W3C//DTD SVG 1.1//EN" "http://www.w3.org/Graphics/SVG/1.1/DTD/svg11.dtd" >
<svg>
<metadata>
Created by FontForge 20120731 at Fri Mar  6 23:02:17 2020
 By www
Copyright (c) 2015-2019 Belleve Invis.
</metadata>
<defs>
<font id="Iosevka-Term-SS10" horiz-adv-x="500" >
  <font-face 
    font-family="Iosevka Term SS10"
    font-weight="400"
    font-stretch="normal"
    units-per-em="1000"
    panose-1="2 0 5 9 0 0 0 0 0 0"
    ascent="800"
    descent="-200"
    x-height="530"
    cap-height="735"
    bbox="-500 -505 598 1188"
    underline-thickness="50"
    underline-position="-25"
    unicode-range="U+000D-1FB9F"
  />
<missing-glyph 
d="M60 0v735h380v-735h-380zM132 72h236v591h-236v-591z" />
    <glyph glyph-name=".notdef" 
d="M60 0v735h380v-735h-380zM132 72h236v591h-236v-591z" />
    <glyph glyph-name="uni000D" unicode="&#xd;" 
 />
    <glyph glyph-name="space" unicode=" " 
 />
    <glyph glyph-name="exclam" unicode="!" 
d="M250 -8q-19 0 -36.5 8.5t-25.5 26t-8 36.5q0 18 8 35.5t25.5 26t36.5 8.5t36.5 -8.5t26 -26t8.5 -35.5q0 -19 -8.5 -36.5t-26 -26t-36.5 -8.5zM210 260v475h80v-475h-80z" />
    <glyph glyph-name="quotedbl" unicode="&#x22;" 
d="M112 451l-1 14v10v10l-1 10v10v10v10l-1 5v9v10v10l-1 10v10v5v10v10l-1 10v9v10q-1 57 -1 114v10v15h88v-69v-10l-1 -25v-10q0 -32 -1 -64v-10l-1 -25v-10v-10v-9l-1 -5v-10v-10v-10l-1 -10v-10v-10l-1 -14h-76zM312 451l-1 14v10v10l-1 10v10v10v10l-1 5v9v10v10l-1 10
v10v5v10v10l-1 10v9v10q-1 57 -1 114v10v15h88v-69v-10l-1 -25v-10q0 -32 -1 -64v-10l-1 -25v-10v-10v-9l-1 -5v-10v-10v-10l-1 -10v-10v-10l-1 -14h-76z" />
    <glyph glyph-name="numbersign" unicode="#" 
d="M112 -88v236h-88v72h88v290h-88v72h88v236h80v-236h116v236h80v-236h88v-72h-88v-290h88v-72h-88v-236h-80v236h-116v-236h-80zM192 220h116v290h-116v-290z" />
    <glyph glyph-name="dollar" unicode="$" 
d="M210 -103v134q-27 4 -54 14q-45 17 -73 57t-28 86v4l79 8v-6q0 -27 16.5 -50.5t43.5 -33.5q9 -3 18 -5v236q-31 14 -61 34q-41 27 -66 70t-25 91q0 37 15 70.5t43 57t63 33.5q14 4 29 6v135h80v-134q27 -4 54 -14q45 -17 73 -57t28 -86v-4l-79 -8v6q0 27 -16.5 50.5
t-43.5 33.5q-9 3 -18 5v-236q31 -14 61 -34q41 -27 66 -70t25 -91q0 -37 -15 -70.5t-43 -57t-63 -33.5q-14 -4 -29 -6v-135h-80zM288 106q7 2 14 5q26 10 42 34t16 52q0 48 -39 82q-16 14 -33 24v-197zM212 432v197q-7 -2 -14 -5q-26 -10 -42 -34t-16 -52q0 -48 39 -82
q16 -14 33 -24z" />
    <glyph glyph-name="percent" unicode="%" 
d="M360 -8q-22 0 -44 6t-39.5 20.5t-26 35.5t-8.5 44v172q0 22 8.5 43.5t26 36t39.5 20.5t44 6t44 -6t39.5 -20.5t26 -36t8.5 -43.5v-172q0 -23 -8.5 -44t-26 -35.5t-39.5 -20.5t-44 -6zM30 0l104 304h78l-84 -304h-98zM360 61q10 0 20.5 3.5t16 13t5.5 20.5v172
q0 11 -5.5 20t-16 13t-20.5 4t-20.5 -4t-16 -13t-5.5 -20v-172q0 -11 5.5 -20.5t16 -13t20.5 -3.5zM140 360q-22 0 -44 5.5t-39.5 20t-26 36t-8.5 43.5v173q0 22 8.5 43t26 35.5t39.5 20.5t44 6t44 -6t39.5 -20.5t26 -35.5t8.5 -43v-173q0 -22 -8.5 -43.5t-26 -36t-39.5 -20
t-44 -5.5zM140 428q10 0 20.5 4t16 13t5.5 20v173q0 10 -5.5 19.5t-16 13t-20.5 3.5t-20.5 -3.5t-16 -13t-5.5 -19.5v-173q0 -11 5.5 -20t16 -13t20.5 -4zM288 431l84 304h98l-104 -304h-78z" />
    <glyph glyph-name="ampersand" unicode="&#x26;" 
d="M250 -8q-39 0 -77 12.5t-66 41t-41.5 66t-13.5 76.5q0 49 22.5 94t59.5 77q10 9 19 17q-24 34 -43 73q-31 62 -31 129q0 33 10 63.5t31.5 55t52.5 35.5t63 11t62 -11t52 -35t32.5 -54.5t10.5 -62.5q0 -49 -23.5 -93.5t-60.5 -77.5q-24 -21 -50 -41q32 -39 66 -76
q22 -24 43 -49v125h80v-173q0 -29 -6 -57q7 -14 13 -29q23 -52 23 -109h-80q0 24 -4 46q-28 -28 -65 -41q-39 -13 -79 -13zM250 64q25 0 48.5 9t39.5 29q13 15 20 33q-36 55 -81 100q-40 41 -79 84q-19 -19 -36 -41q-30 -42 -30 -91q0 -32 14 -62t43 -45.5t61 -15.5z
M217 426q35 27 64 65q32 40 32 89q0 23 -8 44t-27.5 34t-41.5 13q-23 0 -42.5 -13t-27 -35t-7.5 -45q0 -56 29 -106q14 -24 29 -46z" />
    <glyph glyph-name="quotesingle" unicode="'" 
d="M212 451l-1 14v10v10l-1 10v10v10v10l-1 5v9v10v10l-1 10v10v5v10v10l-1 10v9v10q-1 57 -1 114v10v15h88v-69v-10l-1 -25v-10q0 -32 -1 -64v-10l-1 -25v-10v-10v-9l-1 -5v-10v-10v-10l-1 -10v-10v-10l-1 -14h-76z" />
    <glyph glyph-name="parenleft" unicode="(" 
d="M402 -188q-92 56 -154.5 145.5t-87 195t-24.5 212.5t24.5 212.5t87 195t154.5 145.5l41 -62q-227 -144 -227 -491t227 -491z" />
    <glyph glyph-name="parenright" unicode=")" 
d="M98 -188l-41 62q227 144 227 491t-227 491l41 62q92 -56 154.5 -145.5t87 -195t24.5 -212.5t-24.5 -212.5t-87 -195t-154.5 -145.5z" />
    <glyph glyph-name="asterisk" unicode="*" 
d="M341 174l-91 135l-91 -135l-65 42l105 134l-161 46l25 68l153 -56l-6 167h80l-6 -167l153 56l25 -68l-161 -46l105 -134z" />
    <glyph glyph-name="plus" unicode="+" 
d="M210 156v173h-150v72h150v173h80v-173h150v-72h-150v-173h-80z" />
    <glyph glyph-name="comma" unicode="," 
d="M229 -205l-63 41q56 78 75 156q-16 2 -31 9q-19 10 -28.5 29t-9.5 40t9.5 40t28.5 28.5t40 9.5t40 -9.5t29 -28.5q9 -18 9 -40q0 -138 -99 -275z" />
    <glyph glyph-name="hyphen" unicode="-" 
d="M60 329v72h380v-72h-380z" />
    <glyph glyph-name="period" unicode="." 
d="M250 -8q-21 0 -40 9.5t-28.5 28.5t-9.5 40t9.5 40t28.5 28.5t40 9.5t40 -9.5t28.5 -28.5t9.5 -40t-9.5 -40t-28.5 -28.5t-40 -9.5z" />
    <glyph glyph-name="slash" unicode="/" 
d="M55 -168l308 1066h82l-308 -1066h-82z" />
    <glyph glyph-name="zero" unicode="0" 
d="M250 -8q-43 0 -83 17t-66.5 51t-37.5 75.5t-11 84.5v295q0 43 11 84.5t37.5 75.5t66.5 51t83 17t83 -17t66.5 -51t37.5 -75.5t11 -84.5v-295q0 -43 -11 -84.5t-37.5 -75.5t-66.5 -51t-83 -17zM250 64q28 0 52.5 13.5t39.5 37t20.5 50.5t5.5 55v236l-229 -295
q6 -25 19 -47q15 -23 39.5 -36.5t52.5 -13.5zM132 279l229 295q-6 25 -19 47q-15 23 -39.5 36.5t-52.5 13.5t-52.5 -13.5t-39.5 -37t-20.5 -50.5t-5.5 -55v-236z" />
    <glyph glyph-name="one" unicode="1" 
d="M240 0v645l-128 -86l-44 60l172 116h80v-735h-80z" />
    <glyph glyph-name="two" unicode="2" 
d="M60 0v1q0 55 7.5 109t35.5 102t68.5 85.5t83.5 71t76 79.5t33 101q0 32 -13.5 61.5t-42 45t-60.5 15.5q-28 0 -54.5 -13t-41.5 -38.5t-19 -53.5l-78 14q4 35 20.5 66.5t43.5 54t60.5 32.5t68.5 10q39 0 76.5 -12.5t65 -40.5t41 -65t13.5 -76q0 -46 -19.5 -90t-51 -78.5
t-67.5 -64t-70 -62t-58 -73t-31 -87.5q-2 -11 -3 -22h296v-72h-380z" />
    <glyph glyph-name="three" unicode="3" 
d="M250 -8q-48 0 -93 18t-73.5 58t-36.5 87l78 17q4 -30 21 -56t45 -39t59 -13q34 0 65 17t46 49t15 67t-16 67.5t-45.5 53.5t-64.5 26.5t-71 5.5v72q32 0 64 4.5t59.5 22.5t42.5 47.5t15 61.5q0 29 -13 56.5t-40 42t-56 14.5q-28 0 -53.5 -12.5t-39.5 -37.5t-16 -52l-79 11
q3 34 18.5 66t41.5 54.5t59.5 32.5t68.5 10q37 0 73 -11.5t62.5 -38t40 -62t13.5 -72.5q0 -46 -22 -88t-62 -66q-18 -11 -36 -19q25 -9 48 -24q42 -27 65 -72.5t23 -94.5q0 -41 -14.5 -79.5t-43.5 -68t-68.5 -42.5t-79.5 -13z" />
    <glyph glyph-name="four" unicode="4" 
d="M294 0v222h-242v72l224 441h98v-441h66v-72h-66v-222h-80zM131 294h163v320z" />
    <glyph glyph-name="five" unicode="5" 
d="M247 -8q-34 0 -67 11t-59 34t-42.5 53.5t-23.5 64.5l74 27q6 -30 20.5 -57.5t41 -44t56.5 -16.5t56 15.5t40 42t19.5 55.5t5.5 58.5t-5 58t-18.5 54.5t-39 42t-54.5 16q-26 0 -50 -13t-38.5 -36t-21.5 -49l-71 32v395h351v-72h-272v-213q11 7 23 12q38 16 79 16
q44 0 85 -19t66.5 -56t35.5 -80t10 -87.5t-10.5 -88.5t-36.5 -80.5t-67.5 -55.5t-86.5 -19z" />
    <glyph glyph-name="six" unicode="6" 
d="M250 -8q-43 0 -83 17t-66.5 51t-37.5 76t-11 84q0 80 13 159t47 151.5t95 126t136 78.5l25 -68q-63 -24 -113 -71.5t-76 -110.5q-16 -37 -26 -75q17 17 39 26q30 13 61 13q43 0 82.5 -17.5t65.5 -52t36.5 -75.5t10.5 -83.5t-11 -84.5t-37.5 -76t-66.5 -51t-83 -17z
M250 64q28 0 52.5 13.5t39.5 37.5t20.5 51t5.5 54.5t-5.5 54.5t-20 51t-39.5 37.5t-52 13.5q-28 0 -53 -13.5t-40 -37t-20.5 -51t-5.5 -55t5.5 -54.5t20.5 -51t39.5 -37.5t52.5 -13.5z" />
    <glyph glyph-name="seven" unicode="7" 
d="M124 0l231 663h-295v72h380v-72l-231 -663h-85z" />
    <glyph glyph-name="eight" unicode="8" 
d="M250 -8q-38 0 -74.5 10.5t-65.5 36t-43.5 61t-14.5 73.5q0 52 27 99t68 78q18 14 37 27q-10 7 -21 15q-41 32 -68 78.5t-27 98.5q0 36 12.5 69.5t39 58.5t61 35.5t69.5 10.5t69.5 -10.5t61 -35.5t39 -58.5t12.5 -69.5q0 -52 -27 -98.5t-68 -78.5q-11 -8 -21 -15
q19 -13 37 -27q41 -31 68 -78t27 -99q0 -38 -14.5 -73.5t-43.5 -61t-65.5 -36t-74.5 -10.5zM250 64q30 0 58.5 12t44 39.5t15.5 57.5q0 52 -36.5 93t-81.5 68q-45 -27 -81.5 -68t-36.5 -93q0 -30 15.5 -57.5t44 -39.5t58.5 -12zM250 418q36 24 66 58q36 41 36 93
q0 27 -12.5 52t-37.5 37.5t-52 12.5t-52 -12.5t-37.5 -37.5t-12.5 -52q0 -52 36 -93q30 -34 66 -58z" />
    <glyph glyph-name="nine" unicode="9" 
d="M246 -8q-34 0 -67 11.5t-58 35t-41.5 53.5t-24.5 63l72 32q6 -30 20 -58.5t41 -46.5t58 -18q32 0 58.5 19.5t40 49t18.5 61t5 63.5v77q-5 -8 -11 -15q-20 -25 -49.5 -38t-60.5 -13q-42 0 -81.5 17.5t-66 52t-37 75.5t-10.5 83v19q0 43 11 84.5t37.5 75.5t66.5 51t83 17
t84 -18t67 -54t36.5 -79t10.5 -86v-249q0 -37 -6 -74.5t-21 -72t-41 -62.5t-61.5 -42t-72.5 -14zM249 340q28 0 53 13.5t39.5 37t20.5 51t6 54.5v11q0 28 -5.5 56t-19.5 53t-39.5 40t-53.5 15t-53 -13.5t-39.5 -37t-20 -51t-5.5 -54.5v-19q0 -27 5.5 -54t20 -51t39.5 -37.5
t52 -13.5z" />
    <glyph glyph-name="colon" unicode=":" 
d="M250 -8q-21 0 -40 9.5t-28.5 28.5t-9.5 40t9.5 40t28.5 28.5t40 9.5t40 -9.5t28.5 -28.5t9.5 -40t-9.5 -40t-28.5 -28.5t-40 -9.5zM250 382q-21 0 -40 9.5t-28.5 28.5t-9.5 40t9.5 40t28.5 28.5t40 9.5t40 -9.5t28.5 -28.5t9.5 -40t-9.5 -40t-28.5 -28.5t-40 -9.5z" />
    <glyph glyph-name="semicolon" unicode=";" 
d="M229 -205l-63 41q56 78 75 156q-16 2 -31 9q-19 10 -28.5 29t-9.5 40t9.5 40t28.5 28.5t40 9.5t40 -9.5t29 -28.5q9 -18 9 -40q0 -138 -99 -275zM250 382q-21 0 -40 9.5t-28.5 28.5t-9.5 40t9.5 40t28.5 28.5t40 9.5t40 -9.5t28.5 -28.5t9.5 -40t-9.5 -40t-28.5 -28.5
t-40 -9.5z" />
    <glyph glyph-name="less" unicode="&#x3c;" 
d="M420 121l-360 203v82l360 203l40 -62l-326 -182l326 -182z" />
    <glyph glyph-name="equal" unicode="=" 
d="M60 436v72h380v-72h-380zM60 223v72h380v-72h-380z" />
    <glyph glyph-name="greater" unicode="&#x3e;" 
d="M80 121l-40 62l326 182l-326 182l40 62l360 -203v-82z" />
    <glyph glyph-name="question" unicode="?" 
d="M250 -8q-19 0 -36.5 8.5t-25.5 26t-8 36.5q0 18 8 35.5t25.5 26t36.5 8.5t36.5 -8.5t26 -26t8.5 -35.5q0 -19 -8.5 -36.5t-26 -26t-36.5 -8.5zM210 221q0 38 7 76.5t28.5 71.5t47.5 62t46.5 63t20.5 73q0 29 -15 55t-42 37.5t-56 11.5q-27 0 -53.5 -9.5t-43 -33.5
t-16.5 -51v-7l-79 10v2q0 47 28 87.5t72.5 57t91.5 16.5q37 0 73 -10.5t64 -35.5t42 -60t14 -72q0 -32 -10 -63t-27 -58t-38 -51.5t-40.5 -50.5t-27 -57.5t-7.5 -63.5h-80z" />
    <glyph glyph-name="at" unicode="@" 
d="M250 -112q-39 0 -76.5 14t-64.5 44t-38 68t-11 77v548q0 39 11 77t38 68t64.5 44t76.5 14t76.5 -14t64.5 -44t38 -68t11 -77v-424q0 -25 -5.5 -50t-20 -46t-38 -32t-49.5 -11t-50.5 10.5t-40.5 31t-22.5 46t-6.5 51.5v253q0 26 6.5 51.5t23 46.5t41 31t50.5 10h32v32
q0 24 -6 47.5t-20.5 43.5t-37 30t-46.5 10t-46.5 -10t-37 -30t-20.5 -43.5t-6 -47.5v-548q0 -24 6 -47.5t20.5 -43.5t37 -30t46.5 -10h154v-72h-154zM326.5 148q14.5 0 22 13t9.5 26.5t2 27.5v320h-32q-15 0 -25 -12t-13 -26t-3 -29v-253q0 -14 3 -28.5t12.5 -26.5t24 -12z
" />
    <glyph glyph-name="A" unicode="A" 
d="M60 0v74q0 199 144 661h92q144 -462 144 -661v-74h-80v74q0 50 -9 119h-202q-9 -69 -9 -119v-74h-80zM159 265h182q-27 161 -91 398q-64 -237 -91 -398z" />
    <glyph glyph-name="B" unicode="B" 
d="M60 0v735h175q38 0 74 -13t61.5 -41.5t36.5 -64.5t11 -74q0 -36 -11.5 -71t-38.5 -60q-17 -16 -38 -26q31 -12 57 -33q31 -26 46 -65t15 -79q0 -42 -14 -82.5t-45 -70t-71.5 -42.5t-82.5 -13h-175zM140 72h95q27 0 53 9t45 29t27 46t8 53t-8 53t-27 46t-45 29t-53 9h-95
v-274zM140 418h95q23 0 44 9.5t34.5 28t19 40.5t5.5 44.5t-5.5 45t-19 40.5t-34.5 27.5t-44 9.5h-95v-245z" />
    <glyph glyph-name="C" unicode="C" 
d="M250 -8q-40 0 -78.5 13t-67 42.5t-40.5 68.5t-12 79v345q0 40 12 79t40.5 68.5t67 42.5t78.5 13q47 0 91 -18.5t71 -58.5t33 -86l-78 -14q-4 28 -19.5 54t-42 38.5t-55.5 12.5q-25 0 -48.5 -9.5t-40 -29t-23 -43.5t-6.5 -49v-345q0 -25 6.5 -49t23 -43.5t40 -29
t48.5 -9.5q29 0 55.5 12.5t42 38.5t19.5 54l78 -14q-5 -35 -21 -66.5t-43.5 -54t-61.5 -32.5t-69 -10z" />
    <glyph glyph-name="D" unicode="D" 
d="M60 0v735h165q39 0 76.5 -12.5t67 -39t47 -61.5t25 -73t7.5 -77v-209q0 -39 -7.5 -77t-25 -73t-47 -61.5t-67 -39t-76.5 -12.5h-165zM140 72h85q34 0 64 16.5t47.5 46t24.5 62.5t7 66v209q0 33 -7 66t-24.5 62.5t-47.5 46t-64 16.5h-85v-591z" />
    <glyph glyph-name="E" unicode="E" 
d="M90 0v735h350v-72h-270v-230h213v-72h-213v-289h270v-72h-350z" />
    <glyph glyph-name="F" unicode="F" 
d="M90 0v735h350v-72h-270v-230h213v-72h-213v-361h-80z" />
    <glyph glyph-name="G" unicode="G" 
d="M249 -8q-40 0 -78 13.5t-66.5 43t-40.5 68t-12 78.5v345q0 40 12 79t40.5 68.5t67 42.5t78.5 13q47 0 91 -18.5t71 -58.5t33 -86l-78 -14q-4 28 -19.5 54t-42 38.5t-55.5 12.5q-25 0 -48.5 -9.5t-40 -29t-23 -43.5t-6.5 -49v-345q0 -25 6.5 -49t22.5 -43.5t39.5 -29
t48.5 -9.5q24 0 47 10t37.5 29.5t20.5 43.5t6 48v133h-110v72h190v-205q0 -39 -11 -77.5t-38 -68.5t-64.5 -43.5t-77.5 -13.5z" />
    <glyph glyph-name="H" unicode="H" 
d="M60 0v735h80v-313h220v313h80v-735h-80v350h-220v-350h-80z" />
    <glyph glyph-name="I" unicode="I" 
d="M75 0v72h135v591h-135v72h350v-72h-135v-591h135v-72h-350z" />
    <glyph glyph-name="J" unicode="J" 
d="M226 -8q-34 0 -67 10t-59 33.5t-41 54.5t-19 65l78 15q3 -28 16.5 -53t38.5 -39t53 -14q24 0 46.5 10t37 30t20 43.5t5.5 47.5v468h-135v72h215v-540q0 -39 -11 -77t-37.5 -68t-64 -44t-76.5 -14z" />
    <glyph glyph-name="K" unicode="K" 
d="M60 0v735h80v-340q10 11 20 23q21 23 41 47.5t39 49.5t37 51t34 53t30.5 55.5t14.5 60.5h84q0 -35 -16 -67.5t-33 -62.5t-37 -59t-41 -57l-24 -32q159 -341 159 -457h-80q0 102 -134 390l-8 -11l-46 -52q-20 -22 -40 -43v-284h-80z" />
    <glyph glyph-name="L" unicode="L" 
d="M90 0v735h80v-663h278v-72h-358z" />
    <glyph glyph-name="M" unicode="M" 
d="M47 0v735h28h61l114 -407l114 407h61h28v-735h-80v147v40v10q0 30 1 60v10q1 37 3 74v10q2 45 5 90q2 25 3 50l1 10v15l1 10q2 42 3 85l-110 -390h-60l-110 390q1 -50 4 -100v-10l1 -10q1 -25 3 -50q3 -45 5 -90v-10l1 -15v-10l1 -9q0 -20 1 -40v-10q1 -30 1 -60v-10v-40
v-147h-80z" />
    <glyph glyph-name="N" unicode="N" 
d="M60 0v735h34h77l192 -601v52l-1 10v5v10v10v24l-1 10v5v10v19v10q-1 68 -1 137v299h80v-735h-34h-77l-192 601v-52l1 -10v-5v-10v-10v-24l1 -10v-5v-10v-19v-10q1 -68 1 -137v-299h-80z" />
    <glyph glyph-name="O" unicode="O" 
d="M250 -8q-40 0 -78.5 13t-67 42.5t-40.5 68.5t-12 79v345q0 40 12 79t40.5 68.5t67 42.5t78.5 13t78.5 -13t67 -42.5t40.5 -68.5t12 -79v-345q0 -40 -12 -79t-40.5 -68.5t-67 -42.5t-78.5 -13zM250 64q25 0 48.5 9.5t40 29t23 43.5t6.5 49v345q0 25 -6.5 49t-23 43.5
t-40 29t-48.5 9.5t-48.5 -9.5t-40 -29t-23 -43.5t-6.5 -49v-345q0 -25 6.5 -49t23 -43.5t40 -29t48.5 -9.5z" />
    <glyph glyph-name="P" unicode="P" 
d="M75 0v735h176q41 0 80 -14t66.5 -45t39 -70.5t11.5 -80t-11.5 -80t-39 -70.5t-66.5 -45.5t-80 -14.5h-96v-315h-80zM251 387q26 0 49.5 10.5t39.5 31.5t22 46t6 50.5t-6 50.5t-22 45.5t-39.5 31t-49.5 10.5h-96v-276h96z" />
    <glyph glyph-name="Q" unicode="Q" 
d="M377 -155q-32 0 -62.5 9.5t-54.5 31t-35 52.5q-10 28 -11 57q-22 3 -43 10q-38 13 -66.5 42.5t-40.5 68.5t-12 79v345q0 40 12 79t40.5 68.5t67 42.5t78.5 13t78.5 -13t67 -42.5t40.5 -68.5t12 -79v-345q0 -40 -12 -79t-40.5 -68.5t-66.5 -42.5q-17 -6 -35 -9
q1 -20 10 -39q10 -20 30.5 -30t42.5 -10h43v-72h-43zM250 64q25 0 48.5 9.5t40 29t23 43.5t6.5 49v345q0 25 -6.5 49t-23 43.5t-40 29t-48.5 9.5t-48.5 -9.5t-40 -29t-23 -43.5t-6.5 -49v-345q0 -25 6.5 -49t23 -43.5t40 -29t48.5 -9.5z" />
    <glyph glyph-name="R" unicode="R" 
d="M60 0v735h191q41 0 80 -14t66.5 -45t39 -70.5t11.5 -80t-11.5 -80t-39 -70.5t-66.5 -45q-7 -3 -14 -5q131 -191 131 -325h-80q0 128 -139 315h-89v-315h-80zM251 387q26 0 49.5 10.5t39.5 31.5t22 46t6 50.5t-6 50.5t-22 45.5t-39.5 31t-49.5 10.5h-111v-276h111z" />
    <glyph glyph-name="S" unicode="S" 
d="M247 -8q-47 0 -91.5 17t-72.5 57t-28 88v1l79 11v-7q0 -28 16.5 -51.5t42.5 -33.5t54 -10q30 0 57.5 13t41.5 40.5t14 57.5q0 51 -38 90.5t-83.5 63t-87 54.5t-66.5 77.5t-25 98.5q0 37 14 73t41.5 62t64 37.5t73.5 11.5q47 0 91.5 -17t72.5 -57t28 -88v-1l-79 -11v7
q0 28 -16.5 51.5t-42.5 33.5t-54 10q-30 0 -57.5 -13t-41.5 -40.5t-14 -57.5q0 -51 38 -90.5t83.5 -63t87 -54.5t66.5 -77.5t25 -98.5q0 -37 -14 -73t-41.5 -62t-64 -37.5t-73.5 -11.5z" />
    <glyph glyph-name="T" unicode="T" 
d="M210 0v663h-162v72h404v-72h-162v-663h-80z" />
    <glyph glyph-name="U" unicode="U" 
d="M250 -8q-39 0 -76.5 14t-64.5 43.5t-38 68t-11 77.5v540h80v-540q0 -24 6 -47.5t20.5 -43.5t37 -30t46.5 -10t46.5 10t37 30t20.5 43.5t6 47.5v540h80v-540q0 -39 -11 -77.5t-38 -68t-64.5 -43.5t-76.5 -14z" />
    <glyph glyph-name="V" unicode="V" 
d="M204 0q-144 462 -144 662v73h80v-73q0 -183 110 -590q110 407 110 590v73h80v-73q0 -200 -144 -662h-92z" />
    <glyph glyph-name="W" unicode="W" 
d="M133 0q-86 384 -86 551v184h80v-184q0 -131 43 -399l50 289h60l50 -289q43 268 43 399v184h80v-184q0 -167 -86 -551h-61l-56 321l-56 -321h-61z" />
    <glyph glyph-name="X" unicode="X" 
d="M60 0v37q0 102 66 207l78 124l-78 123q-66 105 -66 207v37h80v-37q0 -83 54 -168l56 -89l56 89q54 85 54 168v37h80v-37q0 -102 -66 -207l-78 -123l78 -124q66 -105 66 -207v-37h-80v37q0 83 -54 168l-56 89l-56 -89q-54 -85 -54 -168v-37h-80z" />
    <glyph glyph-name="Y" unicode="Y" 
d="M210 0v287l-85 162q-65 123 -65 242v44h80v-44q0 -103 55 -209l55 -105l55 105q55 106 55 209v44h80v-44q0 -119 -65 -242l-85 -162v-287h-80z" />
    <glyph glyph-name="Z" unicode="Z" 
d="M60 0v72l288 591h-288v72h380v-72l-288 -591h288v-72h-380z" />
    <glyph glyph-name="bracketleft" unicode="[" 
d="M98 -168v1066h323v-72h-243v-922h243v-72h-323z" />
    <glyph glyph-name="backslash" unicode="\" 
d="M363 -168l-308 1066h82l308 -1066h-82z" />
    <glyph glyph-name="bracketright" unicode="]" 
d="M79 -168v72h243v922h-243v72h323v-1066h-323z" />
    <glyph glyph-name="asciicircum" unicode="^" 
d="M121 538l-67 46l154 194h84l154 -194l-67 -46l-129 181z" />
    <glyph glyph-name="underscore" unicode="_" 
d="M60 -184v72h380v-72h-380z" />
    <glyph glyph-name="grave" unicode="`" 
d="M273 536l-183 198l66 52l171 -207z" />
    <glyph glyph-name="a" unicode="a" 
d="M206 -8q-31 0 -61 10t-52 33t-31.5 53t-9.5 61t11 60.5t34 51t51.5 34t59 17.5t61.5 5h91v46q0 22 -8 42.5t-24.5 34.5t-37.5 20t-43 6q-25 0 -50 -8.5t-42 -29.5t-20 -46l-77 18q6 42 35 76.5t70.5 48t83.5 13.5q37 0 73 -10t64.5 -34t42 -59t13.5 -72v-363h-80v75
q-7 -12 -16 -23q-25 -30 -62 -45t-76 -15zM231.5 64q25.5 0 50.5 9t43.5 28.5t26.5 45t8 51.5v47h-91q-23 0 -46.5 -4t-44.5 -15.5t-33.5 -32t-12.5 -44.5t13.5 -46t37 -30.5t49 -8.5z" />
    <glyph glyph-name="b" unicode="b" 
d="M275 -8q-31 0 -61 12.5t-51 37.5q-13 16 -23 34v-76h-80v735h80v-281q10 18 23 34q21 25 51 37.5t61 12.5q41 0 77 -19.5t57.5 -54.5t30 -74.5t8.5 -79.5v-90q0 -40 -8.5 -79.5t-30 -74.5t-57.5 -54.5t-77 -19.5zM251 64q27 0 52 13.5t39.5 37.5t20 51t5.5 54v90
q0 27 -5.5 54t-20 51t-39.5 37.5t-52 13.5t-51 -14t-37 -38t-18 -50.5t-5 -53.5v-90q0 -27 5 -53.5t18 -50.5t37 -38t51 -14zM110 311v4v-4z" />
    <glyph glyph-name="c" unicode="c" 
d="M251 -8q-42 0 -82.5 16.5t-67.5 51t-38 76t-11 84.5v90q0 43 11 84.5t38 76t67.5 51t82.5 16.5q35 0 68.5 -10.5t60 -33.5t42.5 -54t23 -65l-76 -22q-5 29 -19.5 56t-41.5 42t-57 15q-27 0 -52 -13t-40 -37t-21 -51t-6 -55v-90q0 -28 6 -55t21 -51t40 -37t52 -13
q30 0 57 15t41.5 42t19.5 56l76 -22q-7 -34 -23 -65t-42.5 -54t-60 -33.5t-68.5 -10.5z" />
    <glyph glyph-name="d" unicode="d" 
d="M225 -8q-41 0 -77 19.5t-57.5 54.5t-30 74.5t-8.5 79.5v90q0 40 8.5 79.5t30 74.5t57.5 54.5t77 19.5q31 0 61 -12.5t51 -37.5q13 -16 23 -34v281h80v-735h-80v76q-10 -18 -23 -34q-21 -25 -51 -37.5t-61 -12.5zM249 64q27 0 51 14t37 38t18 50.5t5 53.5v90q0 27 -5 53.5
t-18 50.5t-37 38t-51 14t-52 -13.5t-39.5 -37.5t-20 -51t-5.5 -54v-90q0 -27 5.5 -54t20 -51t39.5 -37.5t52 -13.5zM390 215v4v-4z" />
    <glyph glyph-name="e" unicode="e" 
d="M257 -8q-44 0 -85 16t-69 50t-39.5 76.5t-11.5 85.5v90q0 43 11 84.5t37.5 75.5t66.5 51t83 17t83 -17t66.5 -51t37.5 -75.5t11 -84.5v-81h-316v-9q0 -28 6.5 -56t22.5 -51.5t42 -36t54 -12.5q27 0 52.5 11.5t42 34.5t24.5 49l73 -29q-13 -41 -41 -74t-68.5 -48.5
t-82.5 -15.5zM132 301h236v9q0 28 -5.5 55t-20.5 50.5t-39.5 37t-52.5 13.5t-52.5 -13.5t-39.5 -37t-20.5 -50.5t-5.5 -55v-9z" />
    <glyph glyph-name="f" unicode="f" 
d="M173 0v428h-113v72h113v95q0 31 8 61t28 54.5t49 36.5t60 12q35 0 67 -15t51 -45t24 -64l-77 -19q-2 17 -9.5 33.5t-22.5 27t-33 10.5q-21 0 -37.5 -15t-22 -35.5t-5.5 -41.5v-95h168v-72h-168v-428h-80z" />
    <glyph glyph-name="g" unicode="g" 
d="M238 -213q-39 0 -76 13t-64.5 41t-42.5 64l72 32q8 -22 24.5 -41t39 -28t47.5 -9q28 0 53.5 13t41 36.5t21.5 51t6 55.5v61q-10 -18 -23 -34q-21 -25 -51 -37.5t-61 -12.5q-41 0 -77 19.5t-57.5 54.5t-30 74.5t-8.5 79.5v90q0 40 8.5 79.5t30 74.5t57.5 54.5t77 19.5
q31 0 61 -12.5t51 -37.5q13 -16 23 -34v76h80v-515q0 -43 -11.5 -85t-39 -76t-68 -50.5t-83.5 -16.5zM249 64q27 0 51 14t37 38t18 50.5t5 53.5v90q0 27 -5 53.5t-18 50.5t-37 38t-51 14t-52 -13.5t-39.5 -37.5t-20 -51t-5.5 -54v-90q0 -27 5.5 -54t20 -51t39.5 -37.5
t52 -13.5zM390 215v4v-4z" />
    <glyph glyph-name="h" unicode="h" 
d="M60 0v735h80v-281q10 18 23 34q21 24 50.5 37t61.5 13q31 0 61 -13t50.5 -37.5t32.5 -54t16.5 -60.5t4.5 -63v-310h-80v310q0 27 -5 53.5t-18 50t-36.5 38t-50.5 14.5t-50.5 -14.5t-36.5 -38t-18 -50t-5 -53.5v-310h-80z" />
    <glyph glyph-name="i" unicode="i" 
d="M235 0v458h-136l1 72h214v-530h-79zM250 623q-17 0 -32.5 7t-23 22.5t-6.5 32.5q-1 17 6.5 32.5t23 23t32.5 7.5t32.5 -7.5t22.5 -23t8 -32.5q-1 -17 -8 -32.5t-22.5 -22.5t-32.5 -7z" />
    <glyph glyph-name="j" unicode="j" 
d="M180 -213q-40 0 -77 17.5t-59.5 52t-30.5 73.5l76 24q3 -24 14 -46t32 -35.5t45 -13.5q23 0 43 12t31 32t15 42t4 45v468h-135v72h215v-540q0 -38 -9.5 -74.5t-32.5 -67.5t-58 -46t-73 -15zM299 623q-17 0 -32.5 7t-23 22.5t-6.5 32.5q-1 17 6.5 32.5t23 23t32.5 7.5
t32.5 -7.5t22.5 -23t8 -32.5q-1 -17 -8 -32.5t-22.5 -22.5t-32.5 -7z" />
    <glyph glyph-name="k" unicode="k" 
d="M60 0v735h80v-438l14 11q17 13 34 27t33.5 28.5t32.5 29t31.5 30t29 32t27.5 35t14 40.5h84q0 -26 -15 -48t-31 -42t-33 -38.5t-35 -36t-35 -34.5q157 -247 157 -331h-80q0 72 -135 280q-11 -9 -21 -18l-40 -32q-16 -13 -32 -25v-205h-80z" />
    <glyph glyph-name="l" unicode="l" 
d="M235 0v663h-136l1 72h214v-735h-79z" />
    <glyph glyph-name="m" unicode="m" 
d="M47 0v530h80v-34q4 6 9 12q23 30 58 30t58 -29q16 -19 24 -40q8 21 23 39q23 30 57 30q35 0 59 -29t31 -63.5t7 -69.5v-376h-80v376q0 18 -2.5 35.5t-12 36t-27.5 18.5t-27 -18.5t-12 -35.5q-2 -17 -2 -36v-376h-80v376q0 18 -2.5 35.5t-11.5 36t-27 18.5t-27.5 -18.5
t-12 -36t-2.5 -35.5v-376h-80z" />
    <glyph glyph-name="n" unicode="n" 
d="M60 0v530h80v-76q10 18 23 34q21 24 50.5 37t61.5 13q31 0 61 -13t50.5 -37.5t32.5 -54t16.5 -60.5t4.5 -63v-310h-80v310q0 27 -5 53.5t-18 50t-36.5 38t-50.5 14.5t-50.5 -14.5t-36.5 -38t-18 -50t-5 -53.5v-310h-80z" />
    <glyph glyph-name="o" unicode="o" 
d="M250 -8q-43 0 -83 17t-66.5 51t-37.5 75.5t-11 84.5v90q0 43 11 84.5t37.5 75.5t66.5 51t83 17t83 -17t66.5 -51t37.5 -75.5t11 -84.5v-90q0 -43 -11 -84.5t-37.5 -75.5t-66.5 -51t-83 -17zM250 64q28 0 52.5 13.5t39.5 37t20.5 50.5t5.5 55v90q0 28 -5.5 55t-20.5 50.5
t-39.5 37t-52.5 13.5t-52.5 -13.5t-39.5 -37t-20.5 -50.5t-5.5 -55v-90q0 -28 5.5 -55t20.5 -50.5t39.5 -37t52.5 -13.5z" />
    <glyph glyph-name="p" unicode="p" 
d="M60 -205v735h80v-76q10 18 23 34q21 25 51 37.5t61 12.5q41 0 77 -19.5t57.5 -54.5t30 -74.5t8.5 -79.5v-90q0 -40 -8.5 -79.5t-30 -74.5t-57.5 -54.5t-77 -19.5q-31 0 -61 12.5t-51 37.5q-13 16 -23 34v-281h-80zM251 64q27 0 52 13.5t39.5 37.5t20 51t5.5 54v90
q0 27 -5.5 54t-20 51t-39.5 37.5t-52 13.5t-51 -14t-37 -38t-18 -50.5t-5 -53.5v-90q0 -27 5 -53.5t18 -50.5t37 -38t51 -14zM110 311v4v-4z" />
    <glyph glyph-name="q" unicode="q" 
d="M360 -205v281q-10 -18 -23 -34q-21 -25 -51 -37.5t-61 -12.5q-41 0 -77 19.5t-57.5 54.5t-30 74.5t-8.5 79.5v90q0 40 8.5 79.5t30 74.5t57.5 54.5t77 19.5q31 0 61 -12.5t51 -37.5q13 -16 23 -34v76h80v-735h-80zM249 64q27 0 51 14t37 38t18 50.5t5 53.5v90
q0 27 -5 53.5t-18 50.5t-37 38t-51 14t-52 -13.5t-39.5 -37.5t-20 -51t-5.5 -54v-90q0 -27 5.5 -54t20 -51t39.5 -37.5t52 -13.5zM390 215v4v-4z" />
    <glyph glyph-name="r" unicode="r" 
d="M120 0v530h80v-100q8 22 20 43q17 28 46 46.5t62 18.5q29 0 55.5 -12.5t45 -35t26.5 -50.5l-75 -34q-6 24 -25 42t-44 18q-30 0 -54.5 -20t-36 -48t-16 -57.5t-4.5 -59.5v-281h-80z" />
    <glyph glyph-name="s" unicode="s" 
d="M248 -8q-40 0 -79.5 11t-69.5 40t-42 67l75 24q8 -23 26 -40t41.5 -23.5t48.5 -6.5t50 6t44 25.5t19 44.5q0 37 -32.5 59.5t-69 25t-72.5 10t-66 29.5t-46 55.5t-16 70.5q0 34 16.5 65t46 50t63 26t67.5 7q40 0 79.5 -11t69.5 -40t42 -67l-75 -24q-8 23 -26 40
t-41.5 23.5t-48.5 6.5t-50 -6t-44 -25.5t-19 -44.5q0 -37 32.5 -59.5t69 -25t72.5 -10t66 -29.5t46 -55.5t16 -70.5q0 -34 -16.5 -65t-46 -50t-63 -26t-67.5 -7z" />
    <glyph glyph-name="t" unicode="t" 
d="M326 -8q-37 0 -71.5 16t-56 46.5t-30 66.5t-8.5 73v264h-109v72h109v205h80v-205h161v-72h-161v-264q0 -29 6.5 -57.5t28.5 -50.5t51 -22q25 0 45.5 17t29 41t10.5 50l78 -17q-3 -32 -15 -62t-34 -54t-52.5 -35.5t-61.5 -11.5z" />
    <glyph glyph-name="u" unicode="u" 
d="M225 -8q-31 0 -61 13t-50.5 37.5t-32.5 54t-16.5 60.5t-4.5 63v310h80v-310q0 -27 5 -53.5t18 -50t36.5 -38t50.5 -14.5t50.5 14.5t36.5 38t18 50t5 53.5v310h80v-530h-80v76q-10 -18 -23 -34q-21 -24 -50.5 -37t-61.5 -13z" />
    <glyph glyph-name="v" unicode="v" 
d="M204 0q-144 333 -144 477v53h80v-53q0 -129 110 -420l2 5q108 287 108 415v53h80v-53q0 -144 -144 -477h-92z" />
    <glyph glyph-name="w" unicode="w" 
d="M133 0q-86 277 -86 398v132h80v-132q0 -94 43 -286l50 206h60l50 -206q43 192 43 286v132h80v-132q0 -121 -86 -398h-61l-56 231l-56 -231h-61z" />
    <glyph glyph-name="x" unicode="x" 
d="M60 0v5q0 21 8.5 39.5t17.5 36.5t19.5 35.5t21.5 34.5l77 114l-77 114q-11 17 -21.5 34.5t-19.5 35.5t-17.5 36.5t-8.5 39.5v5h80v-5q0 -15 6.5 -29t14 -27t16 -25.5t16.5 -24.5l57 -85l57 85q8 12 16.5 24.5t16 25.5t14 27t6.5 29v5h80v-5q0 -21 -8.5 -39.5t-17.5 -36.5
t-19.5 -35.5t-21.5 -34.5l-77 -114l77 -114q11 -17 21.5 -34.5t19.5 -35.5t17.5 -36.5t8.5 -39.5v-5h-80v5q0 15 -6.5 29t-14 27t-16 25.5t-16.5 24.5l-57 85l-57 -85q-8 -12 -16.5 -24.5t-16 -25.5t-14 -27t-6.5 -29v-5h-80z" />
    <glyph glyph-name="y" unicode="y" 
d="M160 -205v7q0 60 12 95l37 108l-115 324q-34 97 -34 164v37h80v-37q0 -52 30 -140l79 -234l81 234q30 86 30 140v37h80v-37q0 -65 -34 -164l-158 -456q-8 -22 -8 -71v-7h-80z" />
    <glyph glyph-name="z" unicode="z" 
d="M60 0v72l284 386h-284v72h380v-72l-284 -386h284v-72h-380z" />
    <glyph glyph-name="braceleft" unicode="{" 
d="M421 -179q-35 0 -69.5 6t-66.5 20t-58 38.5t-38.5 57.5t-12.5 68t10.5 68.5t25.5 66t15 67.5q0 26 -12 50.5t-34.5 39.5t-48.5 20.5t-53 5.5v72q27 0 53 5.5t48.5 20.5t34.5 39.5t12 50.5q0 35 -15 67.5t-25.5 66t-10.5 68.5t12.5 68t38.5 57.5t58 38.5t66.5 20t69.5 6
v-72q-28 0 -56.5 -5.5t-53.5 -19.5t-40 -39.5t-15 -53.5q0 -35 15 -67.5t25.5 -66t10.5 -68.5q0 -42 -17.5 -80.5t-52.5 -63.5l-12 -8l12 -8q35 -25 52.5 -63.5t17.5 -80.5q0 -35 -10.5 -68.5t-25.5 -66t-15 -67.5q0 -28 15 -53.5t40 -39.5t53.5 -19.5t56.5 -5.5v-72z" />
    <glyph glyph-name="bar" unicode="|" 
d="M210 -168v1066h80v-1066h-80z" />
    <glyph glyph-name="braceright" unicode="}" 
d="M79 -179v72q28 0 56.5 5.5t53.5 19.5t40 39.5t15 53.5q0 35 -15 67.5t-25.5 66t-10.5 68.5q0 42 17.5 80.5t52.5 63.5l12 8l-12 8q-35 25 -52.5 63.5t-17.5 80.5q0 35 10.5 68.5t25.5 66t15 67.5q0 28 -15 53.5t-40 39.5t-53.5 19.5t-56.5 5.5v72q35 0 69.5 -6t66.5 -20
t58 -38.5t38.5 -57.5t12.5 -68t-10.5 -68.5t-25.5 -66t-15 -67.5q0 -26 12 -50.5t34.5 -39.5t48.5 -20.5t53 -5.5v-72q-27 0 -53 -5.5t-48.5 -20.5t-34.5 -39.5t-12 -50.5q0 -35 15 -67.5t25.5 -66t10.5 -68.5t-12.5 -68t-38.5 -57.5t-58 -38.5t-66.5 -20t-69.5 -6z" />
    <glyph glyph-name="asciitilde" unicode="~" 
d="M324 242q-27 0 -49 18.5t-37 41.5l-8 12l-5 9l-5 8l-11 17q-14 22 -33 42q0 -5 -4 -5q-5 -1 -7.5 -4l-5 -6t-4.5 -6l-4 -6l-5 -7l-4 -6l-3 -7q-2 -3 -4 -7l-4 -6l-3 -7l-4 -7l-3 -7q-2 -3 -3 -7l-4 -7q-1 -3 -3 -7l-3 -7l-3 -7l-3 -7l-3 -7q-1 -3 -2.5 -7t-3.5 -7l-66 24
q11 29 24.5 57.5t29 55.5t40 49.5t55.5 22.5q27 0 49 -18t37 -41l8 -13l5 -8l5 -9l11 -16q14 -23 33 -42q0 4 4 5q5 0 7.5 3.5t5 6.5t4.5 6l4 6l5 6q2 4 4 7l3 6q2 4 4 7l4 7l3 7l4 6l1 3l2 4q2 4 3 7l4 7q1 4 3 7l3 7l3 7l3 7l3 7q1 4 2.5 7.5t3.5 7.5l66 -24
q-11 -30 -24.5 -58t-29 -55t-40 -50t-55.5 -23z" />
    <glyph glyph-name="uni00A0" unicode="&#xa0;" 
 />
    <glyph glyph-name="exclamdown" unicode="&#xa1;" 
d="M210 -205v475h80v-475h-80zM250 397q-19 0 -36.5 8.5t-25.5 26t-8 36.5q0 18 8 35.5t25.5 26t36.5 8.5t36.5 -8.5t26 -26t8.5 -35.5q0 -19 -8.5 -36.5t-26 -26t-36.5 -8.5z" />
    <glyph glyph-name="cent" unicode="&#xa2;" 
d="M210 -103v99q-21 4 -42 13q-40 16 -67 50.5t-38 76t-11 84.5v90q0 43 11 84.5t38 76t67 50.5q21 9 42 13v99h80v-98q15 -3 29 -7q34 -11 60.5 -34t42.5 -54t23 -65l-76 -22q-5 29 -19.5 56t-41.5 42t-57 15q-27 0 -52 -13t-40 -37t-21 -51t-6 -55v-90q0 -28 6 -55t21 -51
t40 -37t52 -13q30 0 57 15t41.5 42t19.5 56l76 -22q-7 -34 -23 -65t-42.5 -54t-60.5 -34q-14 -4 -29 -7v-98h-80z" />
    <glyph glyph-name="sterling" unicode="&#xa3;" 
d="M60 0v72q29 23 47.5 55.5t23.5 69.5t5 74v83h-57v72h57v114q0 35 7 70t24.5 66t49 49t67.5 18q27 0 52.5 -10.5t44 -31t29.5 -46t16 -52.5l-74 -28q-4 32 -20 64t-48 32q-28 0 -43.5 -25.5t-20 -52t-4.5 -53.5v-114h110v-72h-110v-83q0 -49 -7 -97t-33 -90l-8 -12h272
v-72h-380z" />
    <glyph glyph-name="currency" unicode="&#xa4;" 
d="M88 150l-56 50l64 64q-9 15 -14 31q-11 34 -11 70t11 70q5 16 14 31l-64 64l56 50l61 -61q15 8 31 14q34 11 70 11t70 -11q16 -6 31 -14l61 61l56 -50l-64 -64q9 -15 14 -31q11 -34 11 -70t-11 -70q-5 -16 -14 -31l64 -64l-56 -50l-61 61q-15 -8 -31 -14q-34 -11 -70 -11
t-70 11q-16 6 -31 14zM250 258q27 0 52 13.5t36 40t11 53.5t-11 53.5t-36 40t-52 13.5t-52 -13.5t-36 -40t-11 -53.5t11 -53.5t36 -40t52 -13.5z" />
    <glyph glyph-name="yen" unicode="&#xa5;" 
d="M210 0v287l-85 162q-65 123 -65 242v44h80v-44q0 -103 55 -209l55 -105l55 105q55 106 55 209v44h80v-44q0 -119 -65 -242l-85 -162v-287h-80zM60 295v72h380v-72h-380zM60 148v72h380v-72h-380z" />
    <glyph glyph-name="brokenbar" unicode="&#xa6;" 
d="M210 -168v487h80v-487h-80zM210 411v487h80v-487h-80z" />
    <glyph glyph-name="section" unicode="&#xa7;" 
d="M246 -168q-45 0 -88 17t-70 55t-33 83l78 15q4 -28 19.5 -51.5t41 -35t52.5 -11.5q30 0 58 13.5t42 41.5t14 58q0 49 -36 86.5t-81 56.5t-87 44t-69 68.5t-27 91.5q0 68 44 125q24 31 55 52q-18 11 -34 26q-31 27 -48 65t-17 79q0 38 14 74.5t42.5 63t65 38t74.5 11.5
q46 0 90 -16t72.5 -54.5t31.5 -84.5l-78 -14q0 28 -17 52.5t-43.5 34.5t-55.5 10q-30 0 -58.5 -13.5t-43 -41.5t-14.5 -58q0 -49 36 -86.5t81 -56.5t87 -44t69 -68.5t27 -91.5q0 -68 -44 -125q-24 -31 -54 -51q18 -12 34 -27q30 -27 47 -65.5t17 -78.5q0 -38 -14 -74
t-41.5 -63t-64 -38.5t-74.5 -11.5zM260 230l2 1q40 15 68 51q30 38 30 84q0 40 -28 73t-65 49q-14 6 -27 12q-41 -16 -70 -52q-30 -38 -30 -84q0 -40 28 -73t65 -49q14 -6 27 -12z" />
    <glyph glyph-name="dieresis" unicode="&#xa8;" 
d="M150 623q-17 0 -32.5 7t-23 22.5t-6.5 32.5q-1 17 6.5 32.5t23 23t32.5 7.5t32.5 -7.5t22.5 -23t8 -32.5q-1 -17 -8 -32.5t-22.5 -22.5t-32.5 -7zM350 623q-17 0 -32.5 7t-23 22.5t-6.5 32.5q-1 17 6.5 32.5t23 23t32.5 7.5t32.5 -7.5t22.5 -23t8 -32.5q-1 -17 -8 -32.5
t-22.5 -22.5t-32.5 -7z" />
    <glyph glyph-name="copyright" unicode="&#xa9;" 
d="M250 158q-24 0 -47 6t-41.5 21.5t-27.5 37.5t-9 46v190q0 24 9 46.5t27.5 37.5t41.5 21.5t47 6.5q28 0 55 -9t46 -31t23 -50l-50 -12q-2 17 -13.5 30.5t-27.5 19t-33 5.5q-19 0 -36.5 -7t-27.5 -23t-10 -35v-190q0 -18 10 -34.5t27.5 -23.5t36.5 -7q17 0 33 5.5t27.5 19
t13.5 30.5l50 -12q-4 -27 -23 -49.5t-46 -31t-55 -8.5zM250 16q-45 0 -88 14.5t-75 48t-45.5 77t-13.5 88.5v242q0 45 13.5 88.5t45.5 77t75 48t88 14.5t88 -14.5t75 -48t45.5 -77t13.5 -88.5v-242q0 -45 -13.5 -88.5t-45.5 -77t-75 -48t-88 -14.5zM250 62q35 0 68.5 12.5
t57.5 39t34 60.5t10 70v242q0 36 -10 70t-34 60.5t-57.5 39t-68.5 12.5t-68.5 -12.5t-57.5 -39t-34 -60.5t-10 -70v-242q0 -36 10 -70t34 -60.5t57.5 -39t68.5 -12.5z" />
    <glyph glyph-name="ordfeminine" unicode="&#xaa;" 
d="M117 221v50h266v-50h-266zM215 358q-24 0 -47 7t-41.5 23t-27.5 38.5t-9 46.5t10 46.5t29 38t42 24t46.5 12t47.5 3.5h59v25q0 16 -13.5 28t-29.5 15.5t-33 3.5q-16 0 -32 -4.5t-28.5 -16.5t-17.5 -27l-76 23q10 31 34 55t56 33t64 9q22 0 44 -3.5t42.5 -12.5t37 -24
t24.5 -36t8 -43v-258h-80v46q-4 -5 -9 -11q-19 -21 -45.5 -31t-54.5 -10zM241.5 430q15.5 0 30.5 4t27.5 14t18.5 24.5t6 30.5v22h-59q-19 0 -38.5 -3.5t-38 -15.5t-18.5 -32q0 -16 12.5 -26.5t28 -14t31 -3.5z" />
    <glyph glyph-name="guillemotleft" unicode="&#xab;" 
d="M393 85q-63 175 -171 244v72q108 69 171 244l75 -27q-74 -169 -188 -253q114 -84 188 -253zM203 85q-63 175 -171 244v72q108 69 171 244l75 -27q-74 -169 -188 -253q114 -84 188 -253z" />
    <glyph glyph-name="logicalnot" unicode="&#xac;" 
d="M360 156v173h-300v72h380v-245h-80z" />
    <glyph glyph-name="uni00AD" unicode="&#xad;" 
d="M60 329v72h380v-72h-380z" />
    <glyph glyph-name="registered" unicode="&#xae;" 
d="M129 162v404h135q23 0 45 -8t37.5 -25.5t22 -40t6.5 -45.5t-6.5 -45t-22 -39.5t-37.5 -26.5q-6 -2 -12 -3q78 -100 78 -171h-51q0 68 -86 166h-57v-166h-52zM181 375h83q18 0 33 10t21 27.5t6 35t-6 34.5t-21 27.5t-33 10.5h-83v-145zM250 16q-45 0 -88 14.5t-75 48
t-45.5 77t-13.5 88.5v242q0 45 13.5 88.5t45.5 77t75 48t88 14.5t88 -14.5t75 -48t45.5 -77t13.5 -88.5v-242q0 -45 -13.5 -88.5t-45.5 -77t-75 -48t-88 -14.5zM250 62q35 0 68.5 12.5t57.5 39t34 60.5t10 70v242q0 36 -10 70t-34 60.5t-57.5 39t-68.5 12.5t-68.5 -12.5
t-57.5 -39t-34 -60.5t-10 -70v-242q0 -36 10 -70t34 -60.5t57.5 -39t68.5 -12.5z" />
    <glyph glyph-name="macron" unicode="&#xaf;" 
d="M100 649v72h300v-72h-300z" />
    <glyph glyph-name="degree" unicode="&#xb0;" 
d="M250 533q-32 0 -62.5 14.5t-44.5 44.5t-14 62.5t14 62.5t44.5 44.5t62.5 14.5t62.5 -14.5t44.5 -44.5t14 -62.5t-14 -62.5t-44.5 -44.5t-62.5 -14.5zM250 607q13 0 24.5 5.5t17 17.5t5.5 24.5t-5.5 24t-17 17t-24.5 5.5t-24.5 -5.5t-17 -17t-5.5 -24t5.5 -24.5t17 -17.5
t24.5 -5.5z" />
    <glyph glyph-name="plusminus" unicode="&#xb1;" 
d="M210 156v173h-150v72h150v173h80v-173h150v-72h-150v-173h-80zM60 0v72h380v-72h-380z" />
    <glyph glyph-name="uni00B2" unicode="&#xb2;" 
d="M404 298l-308 1q0 39 5.5 78t26.5 72.5t51 58.5t63 46.5t61 52t28 69.5q0 21 -11.5 39.5t-31 26t-40.5 7.5q-19 0 -37.5 -6t-30.5 -22t-14 -35l-73 18q5 35 28.5 63t57.5 39.5t69 11.5q40 0 78 -15.5t59.5 -51t21.5 -75.5q0 -39 -20 -74t-50 -60t-62 -47t-58.5 -51.5
t-35.5 -67.5l-2 -9h225v-69z" />
    <glyph glyph-name="uni00B3" unicode="&#xb3;" 
d="M249 292q-36 0 -71 11.5t-59.5 39.5t-31.5 64l73 19q3 -20 16.5 -36t33 -22.5t39.5 -6.5q22 0 43.5 7.5t34 27t12.5 41.5t-11.5 43t-30.5 34t-41.5 16.5t-45.5 3.5v68q27 0 53.5 7t45.5 29t19 49q0 19 -11.5 34.5t-29.5 21.5t-37 6q-18 0 -35.5 -5.5t-29 -21t-13.5 -33.5
l-74 15q4 35 27 63t57 39.5t68 11.5q38 0 74 -13.5t58 -46t22 -70.5q0 -34 -17.5 -64t-46.5 -47q-8 -5 -15 -8q12 -6 24 -13q30 -19 48 -51.5t18 -68.5q0 -41 -23 -77t-62 -51.5t-81 -15.5z" />
    <glyph glyph-name="acute" unicode="&#xb4;" 
d="M227 536l-54 43l171 207l66 -52z" />
    <glyph glyph-name="uni00B5" unicode="&#xb5;" 
d="M60 -205v735h80v-310q0 -27 5 -53.5t18 -50t36.5 -38t50.5 -14.5t50.5 14.5t36.5 38t18 50.5q5 24 5 48v5v310h80v-530h-80v76q-10 -18 -23 -34q-21 -24 -50.5 -37t-61.5 -13q-31 0 -61 13q-14 6 -25 14v-9v-10v-15l1 -9v-10v-44v-10v-10v-107h-80z" />
    <glyph glyph-name="paragraph" unicode="&#xb6;" 
d="M228 0v332q-36 0 -70.5 14.5t-58.5 45t-33.5 67t-9.5 74.5t9.5 75t33.5 67t58.5 44.5t70.5 15.5h80v-735h-80zM364 0v735h80v-735h-80zM228 404v259q-21 -1 -39 -11q-20 -12 -32 -31.5t-16.5 -42t-4.5 -45t4.5 -45t16.5 -42.5t32 -31q18 -10 39 -11z" />
    <glyph glyph-name="periodcentered" unicode="&#xb7;" 
d="M250 287q-21 0 -40 9.5t-28.5 28.5t-9.5 40t9.5 40t28.5 28.5t40 9.5t40 -9.5t28.5 -28.5t9.5 -40t-9.5 -40t-28.5 -28.5t-40 -9.5z" />
    <glyph glyph-name="cedilla" unicode="&#xb8;" 
d="M150 -214v72h100q28 0 28 23t-28 23h-40v96h80v-29q7 -2 13 -5q26 -10 40.5 -34t14.5 -51t-14.5 -51t-40.5 -34t-53 -10h-100z" />
    <glyph glyph-name="uni00B9" unicode="&#xb9;" 
d="M233 298v426l-66 -48l-45 55l111 82h76v-515h-76z" />
    <glyph glyph-name="ordmasculine" unicode="&#xba;" 
d="M117 221v50h266v-50h-266zM250 358q-32 0 -62.5 10.5t-53.5 33.5t-33.5 53.5t-10.5 62.5v63q0 32 10.5 62.5t33.5 53.5t53.5 33.5t62.5 10.5t62.5 -10.5t53.5 -33.5t33.5 -53.5t10.5 -62.5v-63q0 -32 -10.5 -62.5t-33.5 -53.5t-53.5 -33.5t-62.5 -10.5zM250 430
q17 0 33 6.5t27 19.5t15.5 29t4.5 33v63q0 17 -4.5 33t-15.5 29t-27 19.5t-33 6.5t-33 -6.5t-27 -19.5t-15.5 -29t-4.5 -33v-63q0 -17 4.5 -33t15.5 -29t27 -19.5t33 -6.5z" />
    <glyph glyph-name="guillemotright" unicode="&#xbb;" 
d="M107 85l-75 27q74 169 189 253q-115 84 -189 253l75 27q63 -175 172 -244v-72q-109 -69 -172 -244zM297 85l-75 27q74 169 189 253q-115 84 -189 253l75 27q63 -175 172 -244v-72q-109 -69 -172 -244z" />
    <glyph glyph-name="onequarter" unicode="&#xbc;" 
d="M259 -145v99h-134v62l118 243h86v-243h42v-62h-42v-99h-70zM193 16h66v134zM232 471v321l-39 -30l-43 49l82 64h69v-404h-69zM60 338v54h380v-54h-380z" />
    <glyph glyph-name="onehalf" unicode="&#xbd;" 
d="M371 -145h-242q0 30 4 60t19 56.5t37 46.5t46.5 37t46 40.5t21.5 53.5q0 14 -7 27t-20 19t-28 6q-12 0 -24.5 -4.5t-21 -15.5t-8.5 -24l-68 17q4 27 22.5 49t45.5 31t54 9q32 0 62 -12.5t46.5 -41t16.5 -60.5q0 -30 -14.5 -57t-37 -46.5t-46.5 -37.5t-43 -41
q-19 -22 -25 -49h164v-63zM232 471v321l-39 -30l-43 49l82 64h69v-404h-69zM60 338v54h380v-54h-380z" />
    <glyph glyph-name="threequarters" unicode="&#xbe;" 
d="M259 -145v99h-134v62l118 243h86v-243h42v-62h-42v-99h-70zM193 16h66v134zM250 467q-29 0 -56.5 8.5t-47 30.5t-24.5 50l67 18q2 -14 11 -25t22.5 -15.5t27.5 -4.5t28.5 5.5t23 18t8.5 27.5q0 23 -15 41.5t-37 24.5t-45 6v63q20 0 39.5 5t34 21t14.5 36q0 12 -7.5 22
t-19.5 14t-24 4t-23.5 -4t-19.5 -14.5t-8 -22.5l-68 14q3 27 21 49.5t44.5 31.5t53.5 9q30 0 58.5 -11t45.5 -36.5t17 -55.5q0 -27 -14.5 -51t-38.5 -38l-8 -4q8 -4 15 -8q25 -16 40 -42t15 -55q0 -32 -18.5 -60.5t-49 -40t-62.5 -11.5zM60 338v54h380v-54h-380z" />
    <glyph glyph-name="questiondown" unicode="&#xbf;" 
d="M253 -213q-37 0 -73 10.5t-64 35.5t-42 60t-14 72q0 32 10 63t27 58t38 51.5t40.5 50.5t27 57.5t7.5 63.5l80 1q0 -39 -7 -77.5t-28.5 -71.5t-47.5 -62t-46.5 -63t-20.5 -73q0 -29 15 -55t42 -37.5t56 -11.5q27 0 53.5 9.5t43 33.5t16.5 51v7l79 -10v-2q0 -47 -28 -87.5
t-72.5 -57t-91.5 -16.5zM250 397q-19 0 -36.5 8.5t-25.5 26t-8 36.5q0 18 8 35.5t25.5 26t36.5 8.5t36.5 -8.5t26 -26t8.5 -35.5q0 -19 -8.5 -36.5t-26 -26t-36.5 -8.5z" />
    <glyph glyph-name="Agrave" unicode="&#xc0;" 
d="M60 0v74q0 199 144 661h92q144 -462 144 -661v-74h-80v74q0 50 -9 119h-202q-9 -69 -9 -119v-74h-80zM159 265h182q-27 161 -91 398q-64 -237 -91 -398zM262 768l-145 155l66 52l134 -164z" />
    <glyph glyph-name="Aacute" unicode="&#xc1;" 
d="M60 0v74q0 199 144 661h92q144 -462 144 -661v-74h-80v74q0 50 -9 119h-202q-9 -69 -9 -119v-74h-80zM159 265h182q-27 161 -91 398q-64 -237 -91 -398zM238 768l-55 43l134 164l66 -52z" />
    <glyph glyph-name="Acircumflex" unicode="&#xc2;" 
d="M60 0v74q0 199 144 661h92q144 -462 144 -661v-74h-80v74q0 50 -9 119h-202q-9 -69 -9 -119v-74h-80zM159 265h182q-27 161 -91 398q-64 -237 -91 -398zM145 772l-69 49l130 151h88l130 -151l-69 -49l-105 141z" />
    <glyph glyph-name="Atilde" unicode="&#xc3;" 
d="M60 0v74q0 199 144 661h92q144 -462 144 -661v-74h-80v74q0 50 -9 119h-202q-9 -69 -9 -119v-74h-80zM159 265h182q-27 161 -91 398q-64 -237 -91 -398zM308 790q-5 0 -10 0.5t-9.5 2t-9 3.5t-9.5 5l-8 6l-7 6q-4 4 -7 7.5t-6 7.5l-6 8l-6 8q-3 4 -5 8l-6 8l-2 4l-3 5
l-6 8l-5 8q-3 4 -8 7l-3 2l-3 -1q-5 -2 -7 -6l-5 -7l-5 -8q-2 -3 -4.5 -7t-4.5 -8l-3 -6l-2 -3l-3 -7l-2 -3l-2 -4l-4 -8l-3 -9l-4 -8l-3 -8l-4 -8l-66 25q13 31 28 61t39 57.5t58 27.5q5 0 10 -0.5t9.5 -2t9 -3.5t9.5 -5l8 -5l7 -7q4 -3 7 -7t6 -7.5t6 -7.5l6 -9q3 -4 5 -8
l6 -8l2 -3l3 -5l6 -9l5 -8q3 -4 8 -7l3 -2l3 1q5 3 7 6l5 8l5 7q2 4 4.5 7.5t4.5 7.5l4 8l4 8l2 3l2 5l4 8l3 8l4 8l3 8l4 8l66 -24q-13 -32 -28 -62t-39 -57.5t-58 -27.5z" />
    <glyph glyph-name="Adieresis" unicode="&#xc4;" 
d="M60 0v74q0 199 144 661h92q144 -462 144 -661v-74h-80v74q0 50 -9 119h-202q-9 -69 -9 -119v-74h-80zM159 265h182q-27 161 -91 398q-64 -237 -91 -398zM150 828q-17 0 -32.5 7t-23 22.5t-6.5 32.5q-1 17 6.5 32.5t23 23t32.5 7.5t32.5 -7.5t22.5 -23t8 -32.5
q-1 -17 -8 -32.5t-22.5 -22.5t-32.5 -7zM350 828q-17 0 -32.5 7t-23 22.5t-6.5 32.5q-1 17 6.5 32.5t23 23t32.5 7.5t32.5 -7.5t22.5 -23t8 -32.5q-1 -17 -8 -32.5t-22.5 -22.5t-32.5 -7z" />
    <glyph glyph-name="Aring" unicode="&#xc5;" 
d="M60 0v74q0 199 144 661h92q144 -462 144 -661v-74h-80v74q0 50 -9 119h-202q-9 -69 -9 -119v-74h-80zM159 265h182q-27 161 -91 398q-64 -237 -91 -398zM250 770q-26 0 -49.5 11.5t-35 35t-11.5 49t11.5 49.5t35 35.5t49.5 11.5t49.5 -11.5t35 -35.5t11.5 -49.5
t-11.5 -49t-35 -35t-49.5 -11.5zM250 829q10 0 19 4t13.5 13.5t4.5 19.5t-4.5 19t-13.5 13.5t-19 4.5t-19 -4.5t-13.5 -13.5t-4.5 -19t4.5 -19.5t13.5 -13.5t19 -4z" />
    <glyph glyph-name="AE" unicode="&#xc6;" 
d="M47 0v74q0 200 149 661h257v-72h-141v-230h123v-72h-123v-289h141v-72h-221v193h-96q-9 -68 -9 -119v-74h-80zM147 265h85v364q-59 -215 -85 -364z" />
    <glyph glyph-name="Ccedilla" unicode="&#xc7;" 
d="M150 -214v72h100q28 0 28 23t-28 23h-40v96h80v-29q7 -2 13 -5q26 -10 40.5 -34t14.5 -51t-14.5 -51t-40.5 -34t-53 -10h-100zM250 -8q-40 0 -78.5 13t-67 42.5t-40.5 68.5t-12 79v345q0 40 12 79t40.5 68.5t67 42.5t78.5 13q47 0 91 -18.5t71 -58.5t33 -86l-78 -14
q-4 28 -19.5 54t-42 38.5t-55.5 12.5q-25 0 -48.5 -9.5t-40 -29t-23 -43.5t-6.5 -49v-345q0 -25 6.5 -49t23 -43.5t40 -29t48.5 -9.5q29 0 55.5 12.5t42 38.5t19.5 54l78 -14q-5 -35 -21 -66.5t-43.5 -54t-61.5 -32.5t-69 -10z" />
    <glyph glyph-name="Egrave" unicode="&#xc8;" 
d="M90 0v735h350v-72h-270v-230h213v-72h-213v-289h270v-72h-350zM262 768l-145 155l66 52l134 -164z" />
    <glyph glyph-name="Eacute" unicode="&#xc9;" 
d="M90 0v735h350v-72h-270v-230h213v-72h-213v-289h270v-72h-350zM238 768l-55 43l134 164l66 -52z" />
    <glyph glyph-name="Ecircumflex" unicode="&#xca;" 
d="M90 0v735h350v-72h-270v-230h213v-72h-213v-289h270v-72h-350zM145 772l-69 49l130 151h88l130 -151l-69 -49l-105 141z" />
    <glyph glyph-name="Edieresis" unicode="&#xcb;" 
d="M90 0v735h350v-72h-270v-230h213v-72h-213v-289h270v-72h-350zM150 828q-17 0 -32.5 7t-23 22.5t-6.5 32.5q-1 17 6.5 32.5t23 23t32.5 7.5t32.5 -7.5t22.5 -23t8 -32.5q-1 -17 -8 -32.5t-22.5 -22.5t-32.5 -7zM350 828q-17 0 -32.5 7t-23 22.5t-6.5 32.5q-1 17 6.5 32.5
t23 23t32.5 7.5t32.5 -7.5t22.5 -23t8 -32.5q-1 -17 -8 -32.5t-22.5 -22.5t-32.5 -7z" />
    <glyph glyph-name="Igrave" unicode="&#xcc;" 
d="M75 0v72h135v591h-135v72h350v-72h-135v-591h135v-72h-350zM262 768l-145 155l66 52l134 -164z" />
    <glyph glyph-name="Iacute" unicode="&#xcd;" 
d="M75 0v72h135v591h-135v72h350v-72h-135v-591h135v-72h-350zM238 768l-55 43l134 164l66 -52z" />
    <glyph glyph-name="Icircumflex" unicode="&#xce;" 
d="M75 0v72h135v591h-135v72h350v-72h-135v-591h135v-72h-350zM145 772l-69 49l130 151h88l130 -151l-69 -49l-105 141z" />
    <glyph glyph-name="Idieresis" unicode="&#xcf;" 
d="M75 0v72h135v591h-135v72h350v-72h-135v-591h135v-72h-350zM150 828q-17 0 -32.5 7t-23 22.5t-6.5 32.5q-1 17 6.5 32.5t23 23t32.5 7.5t32.5 -7.5t22.5 -23t8 -32.5q-1 -17 -8 -32.5t-22.5 -22.5t-32.5 -7zM350 828q-17 0 -32.5 7t-23 22.5t-6.5 32.5q-1 17 6.5 32.5
t23 23t32.5 7.5t32.5 -7.5t22.5 -23t8 -32.5q-1 -17 -8 -32.5t-22.5 -22.5t-32.5 -7z" />
    <glyph glyph-name="Eth" unicode="&#xd0;" 
d="M60 0v346h-42v72h42v317h165q39 0 76.5 -12.5t67 -39t47 -61.5t25 -73t7.5 -77v-209q0 -39 -7.5 -77t-25 -73t-47 -61.5t-67 -39t-76.5 -12.5h-165zM140 72h85q34 0 64 16.5t47.5 46t24.5 62.5t7 66v209q0 33 -7 66t-24.5 62.5t-47.5 46t-64 16.5h-85v-245h122v-72h-122
v-274z" />
    <glyph glyph-name="Ntilde" unicode="&#xd1;" 
d="M60 0v735h34h77l192 -601v52l-1 10v5v10v10v24l-1 10v5v10v19v10q-1 68 -1 137v299h80v-735h-34h-77l-192 601v-52l1 -10v-5v-10v-10v-24l1 -10v-5v-10v-19v-10q1 -68 1 -137v-299h-80zM308 790q-5 0 -10 0.5t-9.5 2t-9 3.5t-9.5 5l-8 6l-7 6q-4 4 -7 7.5t-6 7.5l-6 8
l-6 8q-3 4 -5 8l-6 8l-2 4l-3 5l-6 8l-5 8q-3 4 -8 7l-3 2l-3 -1q-5 -2 -7 -6l-5 -7l-5 -8q-2 -3 -4.5 -7t-4.5 -8l-3 -6l-2 -3l-3 -7l-2 -3l-2 -4l-4 -8l-3 -9l-4 -8l-3 -8l-4 -8l-66 25q13 31 28 61t39 57.5t58 27.5q5 0 10 -0.5t9.5 -2t9 -3.5t9.5 -5l8 -5l7 -7
q4 -3 7 -7t6 -7.5t6 -7.5l6 -9q3 -4 5 -8l6 -8l2 -3l3 -5l6 -9l5 -8q3 -4 8 -7l3 -2l3 1q5 3 7 6l5 8l5 7q2 4 4.5 7.5t4.5 7.5l4 8l4 8l2 3l2 5l4 8l3 8l4 8l3 8l4 8l66 -24q-13 -32 -28 -62t-39 -57.5t-58 -27.5z" />
    <glyph glyph-name="Ograve" unicode="&#xd2;" 
d="M262 768l-145 155l66 52l134 -164zM250 -8q-40 0 -78.5 13t-67 42.5t-40.5 68.5t-12 79v345q0 40 12 79t40.5 68.5t67 42.5t78.5 13t78.5 -13t67 -42.5t40.5 -68.5t12 -79v-345q0 -40 -12 -79t-40.5 -68.5t-67 -42.5t-78.5 -13zM250 64q25 0 48.5 9.5t40 29t23 43.5
t6.5 49v345q0 25 -6.5 49t-23 43.5t-40 29t-48.5 9.5t-48.5 -9.5t-40 -29t-23 -43.5t-6.5 -49v-345q0 -25 6.5 -49t23 -43.5t40 -29t48.5 -9.5z" />
    <glyph glyph-name="Oacute" unicode="&#xd3;" 
d="M238 768l-55 43l134 164l66 -52zM250 -8q-40 0 -78.5 13t-67 42.5t-40.5 68.5t-12 79v345q0 40 12 79t40.5 68.5t67 42.5t78.5 13t78.5 -13t67 -42.5t40.5 -68.5t12 -79v-345q0 -40 -12 -79t-40.5 -68.5t-67 -42.5t-78.5 -13zM250 64q25 0 48.5 9.5t40 29t23 43.5t6.5 49
v345q0 25 -6.5 49t-23 43.5t-40 29t-48.5 9.5t-48.5 -9.5t-40 -29t-23 -43.5t-6.5 -49v-345q0 -25 6.5 -49t23 -43.5t40 -29t48.5 -9.5z" />
    <glyph glyph-name="Ocircumflex" unicode="&#xd4;" 
d="M145 772l-69 49l130 151h88l130 -151l-69 -49l-105 141zM250 -8q-40 0 -78.5 13t-67 42.5t-40.5 68.5t-12 79v345q0 40 12 79t40.5 68.5t67 42.5t78.5 13t78.5 -13t67 -42.5t40.5 -68.5t12 -79v-345q0 -40 -12 -79t-40.5 -68.5t-67 -42.5t-78.5 -13zM250 64
q25 0 48.5 9.5t40 29t23 43.5t6.5 49v345q0 25 -6.5 49t-23 43.5t-40 29t-48.5 9.5t-48.5 -9.5t-40 -29t-23 -43.5t-6.5 -49v-345q0 -25 6.5 -49t23 -43.5t40 -29t48.5 -9.5z" />
    <glyph glyph-name="Otilde" unicode="&#xd5;" 
d="M308 790q-5 0 -10 0.5t-9.5 2t-9 3.5t-9.5 5l-8 6l-7 6q-4 4 -7 7.5t-6 7.5l-6 8l-6 8q-3 4 -5 8l-6 8l-2 4l-3 5l-6 8l-5 8q-3 4 -8 7l-3 2l-3 -1q-5 -2 -7 -6l-5 -7l-5 -8q-2 -3 -4.5 -7t-4.5 -8l-3 -6l-2 -3l-3 -7l-2 -3l-2 -4l-4 -8l-3 -9l-4 -8l-3 -8l-4 -8l-66 25
q13 31 28 61t39 57.5t58 27.5q5 0 10 -0.5t9.5 -2t9 -3.5t9.5 -5l8 -5l7 -7q4 -3 7 -7t6 -7.5t6 -7.5l6 -9q3 -4 5 -8l6 -8l2 -3l3 -5l6 -9l5 -8q3 -4 8 -7l3 -2l3 1q5 3 7 6l5 8l5 7q2 4 4.5 7.5t4.5 7.5l4 8l4 8l2 3l2 5l4 8l3 8l4 8l3 8l4 8l66 -24q-13 -32 -28 -62
t-39 -57.5t-58 -27.5zM250 -8q-40 0 -78.5 13t-67 42.5t-40.5 68.5t-12 79v345q0 40 12 79t40.5 68.5t67 42.5t78.5 13t78.5 -13t67 -42.5t40.5 -68.5t12 -79v-345q0 -40 -12 -79t-40.5 -68.5t-67 -42.5t-78.5 -13zM250 64q25 0 48.5 9.5t40 29t23 43.5t6.5 49v345
q0 25 -6.5 49t-23 43.5t-40 29t-48.5 9.5t-48.5 -9.5t-40 -29t-23 -43.5t-6.5 -49v-345q0 -25 6.5 -49t23 -43.5t40 -29t48.5 -9.5z" />
    <glyph glyph-name="Odieresis" unicode="&#xd6;" 
d="M150 828q-17 0 -32.5 7t-23 22.5t-6.5 32.5q-1 17 6.5 32.5t23 23t32.5 7.5t32.5 -7.5t22.5 -23t8 -32.5q-1 -17 -8 -32.5t-22.5 -22.5t-32.5 -7zM350 828q-17 0 -32.5 7t-23 22.5t-6.5 32.5q-1 17 6.5 32.5t23 23t32.5 7.5t32.5 -7.5t22.5 -23t8 -32.5q-1 -17 -8 -32.5
t-22.5 -22.5t-32.5 -7zM250 -8q-40 0 -78.5 13t-67 42.5t-40.5 68.5t-12 79v345q0 40 12 79t40.5 68.5t67 42.5t78.5 13t78.5 -13t67 -42.5t40.5 -68.5t12 -79v-345q0 -40 -12 -79t-40.5 -68.5t-67 -42.5t-78.5 -13zM250 64q25 0 48.5 9.5t40 29t23 43.5t6.5 49v345
q0 25 -6.5 49t-23 43.5t-40 29t-48.5 9.5t-48.5 -9.5t-40 -29t-23 -43.5t-6.5 -49v-345q0 -25 6.5 -49t23 -43.5t40 -29t48.5 -9.5z" />
    <glyph glyph-name="multiply" unicode="&#xd7;" 
d="M412 150l-380 380l56 50l380 -380zM88 150l-56 50l380 380l56 -50z" />
    <glyph glyph-name="Oslash" unicode="&#xd8;" 
d="M125 -50l-74 27l37 91q-16 22 -24 48q-12 39 -12 79v345q0 40 12 79t40.5 68.5t67 42.5t78.5 13t79 -13q11 -4 20 -9l26 64l74 -27l-37 -91q16 -22 24 -48q12 -39 12 -79v-345q0 -40 -12 -79t-40.5 -68.5t-67 -42.5t-78.5 -13t-79 13q-11 4 -20 9zM250 64q25 0 48.5 9.5
t40 29t23 43.5t6.5 49v345q0 7 -1 15l-188 -470q10 -7 22 -12q24 -9 49 -9zM133 180l188 470q-10 7 -22 12q-24 9 -49 9t-48.5 -9.5t-40 -29t-23 -43.5t-6.5 -49v-345q0 -7 1 -15z" />
    <glyph glyph-name="Ugrave" unicode="&#xd9;" 
d="M262 768l-145 155l66 52l134 -164zM250 -8q-39 0 -76.5 14t-64.5 43.5t-38 68t-11 77.5v540h80v-540q0 -24 6 -47.5t20.5 -43.5t37 -30t46.5 -10t46.5 10t37 30t20.5 43.5t6 47.5v540h80v-540q0 -39 -11 -77.5t-38 -68t-64.5 -43.5t-76.5 -14z" />
    <glyph glyph-name="Uacute" unicode="&#xda;" 
d="M238 768l-55 43l134 164l66 -52zM250 -8q-39 0 -76.5 14t-64.5 43.5t-38 68t-11 77.5v540h80v-540q0 -24 6 -47.5t20.5 -43.5t37 -30t46.5 -10t46.5 10t37 30t20.5 43.5t6 47.5v540h80v-540q0 -39 -11 -77.5t-38 -68t-64.5 -43.5t-76.5 -14z" />
    <glyph glyph-name="Ucircumflex" unicode="&#xdb;" 
d="M145 772l-69 49l130 151h88l130 -151l-69 -49l-105 141zM250 -8q-39 0 -76.5 14t-64.5 43.5t-38 68t-11 77.5v540h80v-540q0 -24 6 -47.5t20.5 -43.5t37 -30t46.5 -10t46.5 10t37 30t20.5 43.5t6 47.5v540h80v-540q0 -39 -11 -77.5t-38 -68t-64.5 -43.5t-76.5 -14z" />
    <glyph glyph-name="Udieresis" unicode="&#xdc;" 
d="M150 828q-17 0 -32.5 7t-23 22.5t-6.5 32.5q-1 17 6.5 32.5t23 23t32.5 7.5t32.5 -7.5t22.5 -23t8 -32.5q-1 -17 -8 -32.5t-22.5 -22.5t-32.5 -7zM350 828q-17 0 -32.5 7t-23 22.5t-6.5 32.5q-1 17 6.5 32.5t23 23t32.5 7.5t32.5 -7.5t22.5 -23t8 -32.5q-1 -17 -8 -32.5
t-22.5 -22.5t-32.5 -7zM250 -8q-39 0 -76.5 14t-64.5 43.5t-38 68t-11 77.5v540h80v-540q0 -24 6 -47.5t20.5 -43.5t37 -30t46.5 -10t46.5 10t37 30t20.5 43.5t6 47.5v540h80v-540q0 -39 -11 -77.5t-38 -68t-64.5 -43.5t-76.5 -14z" />
    <glyph glyph-name="Yacute" unicode="&#xdd;" 
d="M210 0v287l-85 162q-65 123 -65 242v44h80v-44q0 -103 55 -209l55 -105l55 105q55 106 55 209v44h80v-44q0 -119 -65 -242l-85 -162v-287h-80zM238 768l-55 43l134 164l66 -52z" />
    <glyph glyph-name="Thorn" unicode="&#xde;" 
d="M75 0v735h80v-140h57q47 0 91.5 -13.5t79 -46t50 -77t15.5 -91t-15.5 -91t-50 -77t-79 -46t-91.5 -13.5h-57v-140h-80zM155 212h57q31 0 61 9.5t52.5 32t32.5 52.5t10 61.5t-10 61.5t-32.5 52.5t-52.5 32t-61 9.5h-57v-311z" />
    <glyph glyph-name="germandbls" unicode="&#xdf;" 
d="M60 0v530q0 40 10 78.5t34 70.5t61.5 48t77.5 16q37 0 72.5 -13t60.5 -41.5t36.5 -64.5t11.5 -73q0 -55 -25 -106q-20 -40 -55 -68q20 -9 37 -23q34 -28 50.5 -68.5t16.5 -83.5t-16.5 -84t-50.5 -68.5t-76 -38.5t-85 -11h-16v72h16q28 0 55 7t49 25t33 44t11 54t-11 54
t-33 43.5t-49 24.5t-55 8v72q36 0 66 22t44 55.5t14 68.5q0 30 -10.5 58.5t-36 45.5t-54.5 17q-25 0 -47 -12.5t-34 -34t-17 -45.5t-5 -49v-530h-80z" />
    <glyph glyph-name="agrave" unicode="&#xe0;" 
d="M206 -8q-31 0 -61 10t-52 33t-31.5 53t-9.5 61t11 60.5t34 51t51.5 34t59 17.5t61.5 5h91v46q0 22 -8 42.5t-24.5 34.5t-37.5 20t-43 6q-25 0 -50 -8.5t-42 -29.5t-20 -46l-77 18q6 42 35 76.5t70.5 48t83.5 13.5q37 0 73 -10t64.5 -34t42 -59t13.5 -72v-363h-80v75
q-7 -12 -16 -23q-25 -30 -62 -45t-76 -15zM231.5 64q25.5 0 50.5 9t43.5 28.5t26.5 45t8 51.5v47h-91q-23 0 -46.5 -4t-44.5 -15.5t-33.5 -32t-12.5 -44.5t13.5 -46t37 -30.5t49 -8.5zM262 563l-145 155l66 52l134 -164z" />
    <glyph glyph-name="aacute" unicode="&#xe1;" 
d="M206 -8q-31 0 -61 10t-52 33t-31.5 53t-9.5 61t11 60.5t34 51t51.5 34t59 17.5t61.5 5h91v46q0 22 -8 42.5t-24.5 34.5t-37.5 20t-43 6q-25 0 -50 -8.5t-42 -29.5t-20 -46l-77 18q6 42 35 76.5t70.5 48t83.5 13.5q37 0 73 -10t64.5 -34t42 -59t13.5 -72v-363h-80v75
q-7 -12 -16 -23q-25 -30 -62 -45t-76 -15zM231.5 64q25.5 0 50.5 9t43.5 28.5t26.5 45t8 51.5v47h-91q-23 0 -46.5 -4t-44.5 -15.5t-33.5 -32t-12.5 -44.5t13.5 -46t37 -30.5t49 -8.5zM238 563l-55 43l134 164l66 -52z" />
    <glyph glyph-name="acircumflex" unicode="&#xe2;" 
d="M145 567l-69 49l130 151h88l130 -151l-69 -49l-105 141zM206 -8q-31 0 -61 10t-52 33t-31.5 53t-9.5 61t11 60.5t34 51t51.5 34t59 17.5t61.5 5h91v46q0 22 -8 42.5t-24.5 34.5t-37.5 20t-43 6q-25 0 -50 -8.5t-42 -29.5t-20 -46l-77 18q6 42 35 76.5t70.5 48t83.5 13.5
q37 0 73 -10t64.5 -34t42 -59t13.5 -72v-363h-80v75q-7 -12 -16 -23q-25 -30 -62 -45t-76 -15zM231.5 64q25.5 0 50.5 9t43.5 28.5t26.5 45t8 51.5v47h-91q-23 0 -46.5 -4t-44.5 -15.5t-33.5 -32t-12.5 -44.5t13.5 -46t37 -30.5t49 -8.5z" />
    <glyph glyph-name="atilde" unicode="&#xe3;" 
d="M206 -8q-31 0 -61 10t-52 33t-31.5 53t-9.5 61t11 60.5t34 51t51.5 34t59 17.5t61.5 5h91v46q0 22 -8 42.5t-24.5 34.5t-37.5 20t-43 6q-25 0 -50 -8.5t-42 -29.5t-20 -46l-77 18q6 42 35 76.5t70.5 48t83.5 13.5q37 0 73 -10t64.5 -34t42 -59t13.5 -72v-363h-80v75
q-7 -12 -16 -23q-25 -30 -62 -45t-76 -15zM231.5 64q25.5 0 50.5 9t43.5 28.5t26.5 45t8 51.5v47h-91q-23 0 -46.5 -4t-44.5 -15.5t-33.5 -32t-12.5 -44.5t13.5 -46t37 -30.5t49 -8.5zM308 585q-5 0 -10 0.5t-9.5 2t-9 3.5t-9.5 5l-8 6l-7 6q-4 4 -7 7.5t-6 7.5l-6 8l-6 8
q-3 4 -5 8l-6 8l-2 4l-3 5l-6 8l-5 8q-3 4 -8 7l-3 2l-3 -1q-5 -2 -7 -6l-5 -7l-5 -8q-2 -3 -4.5 -7t-4.5 -8l-3 -6l-2 -3l-3 -7l-2 -3l-2 -4l-4 -8l-3 -9l-4 -8l-3 -8l-4 -8l-66 25q13 31 28 61t39 57.5t58 27.5q5 0 10 -0.5t9.5 -2t9 -3.5t9.5 -5l8 -5l7 -7q4 -3 7 -7
t6 -7.5t6 -7.5l6 -9q3 -4 5 -8l6 -8l2 -3l3 -5l6 -9l5 -8q3 -4 8 -7l3 -2l3 1q5 3 7 6l5 8l5 7q2 4 4.5 7.5t4.5 7.5l4 8l4 8l2 3l2 5l4 8l3 8l4 8l3 8l4 8l66 -24q-13 -32 -28 -62t-39 -57.5t-58 -27.5z" />
    <glyph glyph-name="adieresis" unicode="&#xe4;" 
d="M150 623q-17 0 -32.5 7t-23 22.5t-6.5 32.5q-1 17 6.5 32.5t23 23t32.5 7.5t32.5 -7.5t22.5 -23t8 -32.5q-1 -17 -8 -32.5t-22.5 -22.5t-32.5 -7zM350 623q-17 0 -32.5 7t-23 22.5t-6.5 32.5q-1 17 6.5 32.5t23 23t32.5 7.5t32.5 -7.5t22.5 -23t8 -32.5q-1 -17 -8 -32.5
t-22.5 -22.5t-32.5 -7zM206 -8q-31 0 -61 10t-52 33t-31.5 53t-9.5 61t11 60.5t34 51t51.5 34t59 17.5t61.5 5h91v46q0 22 -8 42.5t-24.5 34.5t-37.5 20t-43 6q-25 0 -50 -8.5t-42 -29.5t-20 -46l-77 18q6 42 35 76.5t70.5 48t83.5 13.5q37 0 73 -10t64.5 -34t42 -59
t13.5 -72v-363h-80v75q-7 -12 -16 -23q-25 -30 -62 -45t-76 -15zM231.5 64q25.5 0 50.5 9t43.5 28.5t26.5 45t8 51.5v47h-91q-23 0 -46.5 -4t-44.5 -15.5t-33.5 -32t-12.5 -44.5t13.5 -46t37 -30.5t49 -8.5z" />
    <glyph glyph-name="aring" unicode="&#xe5;" 
d="M250 565q-26 0 -49.5 11.5t-35 35t-11.5 49t11.5 49.5t35 35.5t49.5 11.5t49.5 -11.5t35 -35.5t11.5 -49.5t-11.5 -49t-35 -35t-49.5 -11.5zM250 624q10 0 19 4t13.5 13.5t4.5 19.5t-4.5 19t-13.5 13.5t-19 4.5t-19 -4.5t-13.5 -13.5t-4.5 -19t4.5 -19.5t13.5 -13.5
t19 -4zM206 -8q-31 0 -61 10t-52 33t-31.5 53t-9.5 61t11 60.5t34 51t51.5 34t59 17.5t61.5 5h91v46q0 22 -8 42.5t-24.5 34.5t-37.5 20t-43 6q-25 0 -50 -8.5t-42 -29.5t-20 -46l-77 18q6 42 35 76.5t70.5 48t83.5 13.5q37 0 73 -10t64.5 -34t42 -59t13.5 -72v-363h-80v75
q-7 -12 -16 -23q-25 -30 -62 -45t-76 -15zM231.5 64q25.5 0 50.5 9t43.5 28.5t26.5 45t8 51.5v47h-91q-23 0 -46.5 -4t-44.5 -15.5t-33.5 -32t-12.5 -44.5t13.5 -46t37 -30.5t49 -8.5z" />
    <glyph glyph-name="ae" unicode="&#xe6;" 
d="M161 -8q-28 0 -54.5 11t-43.5 33.5t-24.5 50t-7.5 55.5q0 36 12.5 70.5t40 59t62.5 35.5q32 9 64 10v81q0 16 -4 31t-16 26t-28 11q-15 0 -27 -10.5t-16.5 -25t-4.5 -31.5l-80 1v4q0 26 8.5 51t26 45t42.5 29t51 9q27 0 52 -10q21 -8 36 -23q16 16 37 23q25 10 52 10
t53 -9.5t44 -30.5t25.5 -47t7.5 -53v-169h-179v-97q0 -16 4.5 -31.5t18 -26t29.5 -10.5t28.5 10t18 25t5.5 32l80 -1v-4q0 -35 -16 -68t-48.5 -49.5t-67.5 -16.5q-27 0 -53 9q-22 8 -39 24q-15 -15 -36 -23q-26 -10 -53 -10zM161 64q16 0 28.5 11t16.5 26t4 31v113
q-17 -1 -34 -6q-20 -7 -35.5 -21.5t-22.5 -35t-7 -41.5q0 -17 4 -33.5t16.5 -30t29.5 -13.5zM290 301h99v97q0 16 -4.5 31.5t-17 26t-28.5 10.5q-15 0 -27.5 -10.5t-17 -26t-4.5 -31.5v-97z" />
    <glyph glyph-name="ccedilla" unicode="&#xe7;" 
d="M150 -214v72h100q28 0 28 23t-28 23h-40v96h80v-29q7 -2 13 -5q26 -10 40.5 -34t14.5 -51t-14.5 -51t-40.5 -34t-53 -10h-100zM251 -8q-42 0 -82.5 16.5t-67.5 51t-38 76t-11 84.5v90q0 43 11 84.5t38 76t67.5 51t82.5 16.5q35 0 68.5 -10.5t60 -33.5t42.5 -54t23 -65
l-76 -22q-5 29 -19.5 56t-41.5 42t-57 15q-27 0 -52 -13t-40 -37t-21 -51t-6 -55v-90q0 -28 6 -55t21 -51t40 -37t52 -13q30 0 57 15t41.5 42t19.5 56l76 -22q-7 -34 -23 -65t-42.5 -54t-60 -33.5t-68.5 -10.5z" />
    <glyph glyph-name="egrave" unicode="&#xe8;" 
d="M257 -8q-44 0 -85 16t-69 50t-39.5 76.5t-11.5 85.5v90q0 43 11 84.5t37.5 75.5t66.5 51t83 17t83 -17t66.5 -51t37.5 -75.5t11 -84.5v-81h-316v-9q0 -28 6.5 -56t22.5 -51.5t42 -36t54 -12.5q27 0 52.5 11.5t42 34.5t24.5 49l73 -29q-13 -41 -41 -74t-68.5 -48.5
t-82.5 -15.5zM132 301h236v9q0 28 -5.5 55t-20.5 50.5t-39.5 37t-52.5 13.5t-52.5 -13.5t-39.5 -37t-20.5 -50.5t-5.5 -55v-9zM262 563l-145 155l66 52l134 -164z" />
    <glyph glyph-name="eacute" unicode="&#xe9;" 
d="M257 -8q-44 0 -85 16t-69 50t-39.5 76.5t-11.5 85.5v90q0 43 11 84.5t37.5 75.5t66.5 51t83 17t83 -17t66.5 -51t37.5 -75.5t11 -84.5v-81h-316v-9q0 -28 6.5 -56t22.5 -51.5t42 -36t54 -12.5q27 0 52.5 11.5t42 34.5t24.5 49l73 -29q-13 -41 -41 -74t-68.5 -48.5
t-82.5 -15.5zM132 301h236v9q0 28 -5.5 55t-20.5 50.5t-39.5 37t-52.5 13.5t-52.5 -13.5t-39.5 -37t-20.5 -50.5t-5.5 -55v-9zM238 563l-55 43l134 164l66 -52z" />
    <glyph glyph-name="ecircumflex" unicode="&#xea;" 
d="M145 567l-69 49l130 151h88l130 -151l-69 -49l-105 141zM257 -8q-44 0 -85 16t-69 50t-39.5 76.5t-11.5 85.5v90q0 43 11 84.5t37.5 75.5t66.5 51t83 17t83 -17t66.5 -51t37.5 -75.5t11 -84.5v-81h-316v-9q0 -28 6.5 -56t22.5 -51.5t42 -36t54 -12.5q27 0 52.5 11.5
t42 34.5t24.5 49l73 -29q-13 -41 -41 -74t-68.5 -48.5t-82.5 -15.5zM132 301h236v9q0 28 -5.5 55t-20.5 50.5t-39.5 37t-52.5 13.5t-52.5 -13.5t-39.5 -37t-20.5 -50.5t-5.5 -55v-9z" />
    <glyph glyph-name="edieresis" unicode="&#xeb;" 
d="M150 623q-17 0 -32.5 7t-23 22.5t-6.5 32.5q-1 17 6.5 32.5t23 23t32.5 7.5t32.5 -7.5t22.5 -23t8 -32.5q-1 -17 -8 -32.5t-22.5 -22.5t-32.5 -7zM350 623q-17 0 -32.5 7t-23 22.5t-6.5 32.5q-1 17 6.5 32.5t23 23t32.5 7.5t32.5 -7.5t22.5 -23t8 -32.5q-1 -17 -8 -32.5
t-22.5 -22.5t-32.5 -7zM257 -8q-44 0 -85 16t-69 50t-39.5 76.5t-11.5 85.5v90q0 43 11 84.5t37.5 75.5t66.5 51t83 17t83 -17t66.5 -51t37.5 -75.5t11 -84.5v-81h-316v-9q0 -28 6.5 -56t22.5 -51.5t42 -36t54 -12.5q27 0 52.5 11.5t42 34.5t24.5 49l73 -29q-13 -41 -41 -74
t-68.5 -48.5t-82.5 -15.5zM132 301h236v9q0 28 -5.5 55t-20.5 50.5t-39.5 37t-52.5 13.5t-52.5 -13.5t-39.5 -37t-20.5 -50.5t-5.5 -55v-9z" />
    <glyph glyph-name="igrave" unicode="&#xec;" 
d="M235 0v458h-136l1 72h214v-530h-79zM262 563l-145 155l66 52l134 -164z" />
    <glyph glyph-name="iacute" unicode="&#xed;" 
d="M235 0v458h-136l1 72h214v-530h-79zM238 563l-55 43l134 164l66 -52z" />
    <glyph glyph-name="icircumflex" unicode="&#xee;" 
d="M145 567l-69 49l130 151h88l130 -151l-69 -49l-105 141zM235 0v458h-136l1 72h214v-530h-79z" />
    <glyph glyph-name="idieresis" unicode="&#xef;" 
d="M150 623q-17 0 -32.5 7t-23 22.5t-6.5 32.5q-1 17 6.5 32.5t23 23t32.5 7.5t32.5 -7.5t22.5 -23t8 -32.5q-1 -17 -8 -32.5t-22.5 -22.5t-32.5 -7zM350 623q-17 0 -32.5 7t-23 22.5t-6.5 32.5q-1 17 6.5 32.5t23 23t32.5 7.5t32.5 -7.5t22.5 -23t8 -32.5q-1 -17 -8 -32.5
t-22.5 -22.5t-32.5 -7zM235 0v458h-136l1 72h214v-530h-79z" />
    <glyph glyph-name="eth" unicode="&#xf0;" 
d="M250 -8q-43 0 -83 17t-66.5 51t-37.5 75.5t-11 84.5v1q0 43 11 84.5t37.5 75.5t66.5 51t83 17t83 -17l7 -3q-10 30 -24 59q-8 18 -19 35l-189 -48l-20 69l160 41q-7 7 -14 13q-52 47 -117 68l22 69q78 -23 141 -76q29 -24 53 -52l78 19l20 -69l-54 -14l5 -9
q38 -72 52 -152.5t14 -161.5q0 -43 -11 -84.5t-37.5 -75.5t-66.5 -51t-83 -17zM250 64q28 0 52.5 13.5t39.5 37t20.5 50.5t5.5 55v1q0 28 -5.5 55t-20.5 50.5t-39.5 37t-52.5 13.5t-52.5 -13.5t-39.5 -37t-20.5 -50.5t-5.5 -55v-1q0 -28 5.5 -55t20.5 -50.5t39.5 -37
t52.5 -13.5z" />
    <glyph glyph-name="ntilde" unicode="&#xf1;" 
d="M60 0v530h80v-76q10 18 23 34q21 24 50.5 37t61.5 13q31 0 61 -13t50.5 -37.5t32.5 -54t16.5 -60.5t4.5 -63v-310h-80v310q0 27 -5 53.5t-18 50t-36.5 38t-50.5 14.5t-50.5 -14.5t-36.5 -38t-18 -50t-5 -53.5v-310h-80zM308 585q-5 0 -10 0.5t-9.5 2t-9 3.5t-9.5 5l-8 6
l-7 6q-4 4 -7 7.5t-6 7.5l-6 8l-6 8q-3 4 -5 8l-6 8l-2 4l-3 5l-6 8l-5 8q-3 4 -8 7l-3 2l-3 -1q-5 -2 -7 -6l-5 -7l-5 -8q-2 -3 -4.5 -7t-4.5 -8l-3 -6l-2 -3l-3 -7l-2 -3l-2 -4l-4 -8l-3 -9l-4 -8l-3 -8l-4 -8l-66 25q13 31 28 61t39 57.5t58 27.5q5 0 10 -0.5t9.5 -2
t9 -3.5t9.5 -5l8 -5l7 -7q4 -3 7 -7t6 -7.5t6 -7.5l6 -9q3 -4 5 -8l6 -8l2 -3l3 -5l6 -9l5 -8q3 -4 8 -7l3 -2l3 1q5 3 7 6l5 8l5 7q2 4 4.5 7.5t4.5 7.5l4 8l4 8l2 3l2 5l4 8l3 8l4 8l3 8l4 8l66 -24q-13 -32 -28 -62t-39 -57.5t-58 -27.5z" />
    <glyph glyph-name="ograve" unicode="&#xf2;" 
d="M262 563l-145 155l66 52l134 -164zM250 -8q-43 0 -83 17t-66.5 51t-37.5 75.5t-11 84.5v90q0 43 11 84.5t37.5 75.5t66.5 51t83 17t83 -17t66.5 -51t37.5 -75.5t11 -84.5v-90q0 -43 -11 -84.5t-37.5 -75.5t-66.5 -51t-83 -17zM250 64q28 0 52.5 13.5t39.5 37t20.5 50.5
t5.5 55v90q0 28 -5.5 55t-20.5 50.5t-39.5 37t-52.5 13.5t-52.5 -13.5t-39.5 -37t-20.5 -50.5t-5.5 -55v-90q0 -28 5.5 -55t20.5 -50.5t39.5 -37t52.5 -13.5z" />
    <glyph glyph-name="oacute" unicode="&#xf3;" 
d="M238 563l-55 43l134 164l66 -52zM250 -8q-43 0 -83 17t-66.5 51t-37.5 75.5t-11 84.5v90q0 43 11 84.5t37.5 75.5t66.5 51t83 17t83 -17t66.5 -51t37.5 -75.5t11 -84.5v-90q0 -43 -11 -84.5t-37.5 -75.5t-66.5 -51t-83 -17zM250 64q28 0 52.5 13.5t39.5 37t20.5 50.5
t5.5 55v90q0 28 -5.5 55t-20.5 50.5t-39.5 37t-52.5 13.5t-52.5 -13.5t-39.5 -37t-20.5 -50.5t-5.5 -55v-90q0 -28 5.5 -55t20.5 -50.5t39.5 -37t52.5 -13.5z" />
    <glyph glyph-name="ocircumflex" unicode="&#xf4;" 
d="M145 567l-69 49l130 151h88l130 -151l-69 -49l-105 141zM250 -8q-43 0 -83 17t-66.5 51t-37.5 75.5t-11 84.5v90q0 43 11 84.5t37.5 75.5t66.5 51t83 17t83 -17t66.5 -51t37.5 -75.5t11 -84.5v-90q0 -43 -11 -84.5t-37.5 -75.5t-66.5 -51t-83 -17zM250 64q28 0 52.5 13.5
t39.5 37t20.5 50.5t5.5 55v90q0 28 -5.5 55t-20.5 50.5t-39.5 37t-52.5 13.5t-52.5 -13.5t-39.5 -37t-20.5 -50.5t-5.5 -55v-90q0 -28 5.5 -55t20.5 -50.5t39.5 -37t52.5 -13.5z" />
    <glyph glyph-name="otilde" unicode="&#xf5;" 
d="M308 585q-5 0 -10 0.5t-9.5 2t-9 3.5t-9.5 5l-8 6l-7 6q-4 4 -7 7.5t-6 7.5l-6 8l-6 8q-3 4 -5 8l-6 8l-2 4l-3 5l-6 8l-5 8q-3 4 -8 7l-3 2l-3 -1q-5 -2 -7 -6l-5 -7l-5 -8q-2 -3 -4.5 -7t-4.5 -8l-3 -6l-2 -3l-3 -7l-2 -3l-2 -4l-4 -8l-3 -9l-4 -8l-3 -8l-4 -8l-66 25
q13 31 28 61t39 57.5t58 27.5q5 0 10 -0.5t9.5 -2t9 -3.5t9.5 -5l8 -5l7 -7q4 -3 7 -7t6 -7.5t6 -7.5l6 -9q3 -4 5 -8l6 -8l2 -3l3 -5l6 -9l5 -8q3 -4 8 -7l3 -2l3 1q5 3 7 6l5 8l5 7q2 4 4.5 7.5t4.5 7.5l4 8l4 8l2 3l2 5l4 8l3 8l4 8l3 8l4 8l66 -24q-13 -32 -28 -62
t-39 -57.5t-58 -27.5zM250 -8q-43 0 -83 17t-66.5 51t-37.5 75.5t-11 84.5v90q0 43 11 84.5t37.5 75.5t66.5 51t83 17t83 -17t66.5 -51t37.5 -75.5t11 -84.5v-90q0 -43 -11 -84.5t-37.5 -75.5t-66.5 -51t-83 -17zM250 64q28 0 52.5 13.5t39.5 37t20.5 50.5t5.5 55v90
q0 28 -5.5 55t-20.5 50.5t-39.5 37t-52.5 13.5t-52.5 -13.5t-39.5 -37t-20.5 -50.5t-5.5 -55v-90q0 -28 5.5 -55t20.5 -50.5t39.5 -37t52.5 -13.5z" />
    <glyph glyph-name="odieresis" unicode="&#xf6;" 
d="M150 623q-17 0 -32.5 7t-23 22.5t-6.5 32.5q-1 17 6.5 32.5t23 23t32.5 7.5t32.5 -7.5t22.5 -23t8 -32.5q-1 -17 -8 -32.5t-22.5 -22.5t-32.5 -7zM350 623q-17 0 -32.5 7t-23 22.5t-6.5 32.5q-1 17 6.5 32.5t23 23t32.5 7.5t32.5 -7.5t22.5 -23t8 -32.5q-1 -17 -8 -32.5
t-22.5 -22.5t-32.5 -7zM250 -8q-43 0 -83 17t-66.5 51t-37.5 75.5t-11 84.5v90q0 43 11 84.5t37.5 75.5t66.5 51t83 17t83 -17t66.5 -51t37.5 -75.5t11 -84.5v-90q0 -43 -11 -84.5t-37.5 -75.5t-66.5 -51t-83 -17zM250 64q28 0 52.5 13.5t39.5 37t20.5 50.5t5.5 55v90
q0 28 -5.5 55t-20.5 50.5t-39.5 37t-52.5 13.5t-52.5 -13.5t-39.5 -37t-20.5 -50.5t-5.5 -55v-90q0 -28 5.5 -55t20.5 -50.5t39.5 -37t52.5 -13.5z" />
    <glyph glyph-name="divide" unicode="&#xf7;" 
d="M250 113q-18 0 -35 6.5t-26 22t-9 33.5t9 33.5t26 22.5t35 7t35 -7t26.5 -22.5t9.5 -33.5t-9.5 -33.5t-26.5 -22t-35 -6.5zM60 329v72h380v-72h-380zM250 493q-18 0 -35 6.5t-26 22t-9 33.5t9 33.5t26 22.5t35 7t35 -7t26.5 -22.5t9.5 -33.5t-9.5 -33.5t-26.5 -22
t-35 -6.5z" />
    <glyph glyph-name="oslash" unicode="&#xf8;" 
d="M123 -44l-70 35l42 76q-22 31 -32 69q-11 41 -11 84v90q0 43 11 84.5t37.5 75.5t66.5 51t83 17t83 -17q6 -2 12 -5l32 58l70 -35l-42 -76q22 -31 32 -69q11 -41 11 -84v-90q0 -43 -11 -84.5t-37.5 -75.5t-66.5 -51t-83 -17t-83 17q-6 2 -12 5zM250 64q28 0 52.5 13.5
t39.5 37t20.5 50.5t5.5 55v90q0 28 -6 55q-1 7 -4 14l-166 -298l6 -4q24 -13 52 -13zM142 151l166 298l-6 4q-24 13 -52 13t-52.5 -13.5t-39.5 -37t-20.5 -50.5t-5.5 -55v-90q0 -28 6 -55q1 -7 4 -14z" />
    <glyph glyph-name="ugrave" unicode="&#xf9;" 
d="M225 -8q-31 0 -61 13t-50.5 37.5t-32.5 54t-16.5 60.5t-4.5 63v310h80v-310q0 -27 5 -53.5t18 -50t36.5 -38t50.5 -14.5t50.5 14.5t36.5 38t18 50t5 53.5v310h80v-530h-80v76q-10 -18 -23 -34q-21 -24 -50.5 -37t-61.5 -13zM262 563l-145 155l66 52l134 -164z" />
    <glyph glyph-name="uacute" unicode="&#xfa;" 
d="M225 -8q-31 0 -61 13t-50.5 37.5t-32.5 54t-16.5 60.5t-4.5 63v310h80v-310q0 -27 5 -53.5t18 -50t36.5 -38t50.5 -14.5t50.5 14.5t36.5 38t18 50t5 53.5v310h80v-530h-80v76q-10 -18 -23 -34q-21 -24 -50.5 -37t-61.5 -13zM238 563l-55 43l134 164l66 -52z" />
    <glyph glyph-name="ucircumflex" unicode="&#xfb;" 
d="M145 567l-69 49l130 151h88l130 -151l-69 -49l-105 141zM225 -8q-31 0 -61 13t-50.5 37.5t-32.5 54t-16.5 60.5t-4.5 63v310h80v-310q0 -27 5 -53.5t18 -50t36.5 -38t50.5 -14.5t50.5 14.5t36.5 38t18 50t5 53.5v310h80v-530h-80v76q-10 -18 -23 -34q-21 -24 -50.5 -37
t-61.5 -13z" />
    <glyph glyph-name="udieresis" unicode="&#xfc;" 
d="M150 623q-17 0 -32.5 7t-23 22.5t-6.5 32.5q-1 17 6.5 32.5t23 23t32.5 7.5t32.5 -7.5t22.5 -23t8 -32.5q-1 -17 -8 -32.5t-22.5 -22.5t-32.5 -7zM350 623q-17 0 -32.5 7t-23 22.5t-6.5 32.5q-1 17 6.5 32.5t23 23t32.5 7.5t32.5 -7.5t22.5 -23t8 -32.5q-1 -17 -8 -32.5
t-22.5 -22.5t-32.5 -7zM225 -8q-31 0 -61 13t-50.5 37.5t-32.5 54t-16.5 60.5t-4.5 63v310h80v-310q0 -27 5 -53.5t18 -50t36.5 -38t50.5 -14.5t50.5 14.5t36.5 38t18 50t5 53.5v310h80v-530h-80v76q-10 -18 -23 -34q-21 -24 -50.5 -37t-61.5 -13z" />
    <glyph glyph-name="yacute" unicode="&#xfd;" 
d="M160 -205v7q0 60 12 95l37 108l-115 324q-34 97 -34 164v37h80v-37q0 -52 30 -140l79 -234l81 234q30 86 30 140v37h80v-37q0 -65 -34 -164l-158 -456q-8 -22 -8 -71v-7h-80zM238 563l-55 43l134 164l66 -52z" />
    <glyph glyph-name="thorn" unicode="&#xfe;" 
d="M275 -8q-31 0 -61 12.5t-51 37.5q-13 16 -23 34v-76h-80v735h80v-281q10 18 23 34q21 25 51 37.5t61 12.5q41 0 77 -19.5t57.5 -54.5t30 -74.5t8.5 -79.5v-90q0 -40 -8.5 -79.5t-30 -74.5t-57.5 -54.5t-77 -19.5zM251 64q27 0 52 13.5t39.5 37.5t20 51t5.5 54v90
q0 27 -5.5 54t-20 51t-39.5 37.5t-52 13.5t-51 -14t-37 -38t-18 -50.5t-5 -53.5v-90q0 -27 5 -53.5t18 -50.5t37 -38t51 -14zM110 311v4v-4zM60 -205v735h80v-735h-80z" />
    <glyph glyph-name="ydieresis" unicode="&#xff;" 
d="M150 623q-17 0 -32.5 7t-23 22.5t-6.5 32.5q-1 17 6.5 32.5t23 23t32.5 7.5t32.5 -7.5t22.5 -23t8 -32.5q-1 -17 -8 -32.5t-22.5 -22.5t-32.5 -7zM350 623q-17 0 -32.5 7t-23 22.5t-6.5 32.5q-1 17 6.5 32.5t23 23t32.5 7.5t32.5 -7.5t22.5 -23t8 -32.5q-1 -17 -8 -32.5
t-22.5 -22.5t-32.5 -7zM160 -205v7q0 60 12 95l37 108l-115 324q-34 97 -34 164v37h80v-37q0 -52 30 -140l79 -234l81 234q30 86 30 140v37h80v-37q0 -65 -34 -164l-158 -456q-8 -22 -8 -71v-7h-80z" />
    <glyph glyph-name="Amacron" unicode="&#x100;" 
d="M60 0v74q0 199 144 661h92q144 -462 144 -661v-74h-80v74q0 50 -9 119h-202q-9 -69 -9 -119v-74h-80zM159 265h182q-27 161 -91 398q-64 -237 -91 -398zM100 854v72h300v-72h-300z" />
    <glyph glyph-name="amacron" unicode="&#x101;" 
d="M206 -8q-31 0 -61 10t-52 33t-31.5 53t-9.5 61t11 60.5t34 51t51.5 34t59 17.5t61.5 5h91v46q0 22 -8 42.5t-24.5 34.5t-37.5 20t-43 6q-25 0 -50 -8.5t-42 -29.5t-20 -46l-77 18q6 42 35 76.5t70.5 48t83.5 13.5q37 0 73 -10t64.5 -34t42 -59t13.5 -72v-363h-80v75
q-7 -12 -16 -23q-25 -30 -62 -45t-76 -15zM231.5 64q25.5 0 50.5 9t43.5 28.5t26.5 45t8 51.5v47h-91q-23 0 -46.5 -4t-44.5 -15.5t-33.5 -32t-12.5 -44.5t13.5 -46t37 -30.5t49 -8.5zM100 649v72h300v-72h-300z" />
    <glyph glyph-name="Abreve" unicode="&#x102;" 
d="M60 0v74q0 199 144 661h92q144 -462 144 -661v-74h-80v74q0 50 -9 119h-202q-9 -69 -9 -119v-74h-80zM159 265h182q-27 161 -91 398q-64 -237 -91 -398zM250 789q-32 0 -63 10t-54 33t-33 54t-10 63h80q0 -22 8.5 -43.5t29 -33t42.5 -11.5t42.5 11.5t29 33t8.5 43.5h80
q0 -32 -10 -63t-33 -54t-54 -33t-63 -10z" />
    <glyph glyph-name="abreve" unicode="&#x103;" 
d="M206 -8q-31 0 -61 10t-52 33t-31.5 53t-9.5 61t11 60.5t34 51t51.5 34t59 17.5t61.5 5h91v46q0 22 -8 42.5t-24.5 34.5t-37.5 20t-43 6q-25 0 -50 -8.5t-42 -29.5t-20 -46l-77 18q6 42 35 76.5t70.5 48t83.5 13.5q37 0 73 -10t64.5 -34t42 -59t13.5 -72v-363h-80v75
q-7 -12 -16 -23q-25 -30 -62 -45t-76 -15zM231.5 64q25.5 0 50.5 9t43.5 28.5t26.5 45t8 51.5v47h-91q-23 0 -46.5 -4t-44.5 -15.5t-33.5 -32t-12.5 -44.5t13.5 -46t37 -30.5t49 -8.5zM250 584q-32 0 -63 10t-54 33t-33 54t-10 63h80q0 -22 8.5 -43.5t29 -33t42.5 -11.5
t42.5 11.5t29 33t8.5 43.5h80q0 -32 -10 -63t-33 -54t-54 -33t-63 -10z" />
    <glyph glyph-name="Aogonek" unicode="&#x104;" 
d="M60 0v74q0 199 144 661h92q144 -462 144 -661v-74h-80v74q0 50 -9 119h-202q-9 -69 -9 -119v-74h-80zM159 265h182q-27 161 -91 398q-64 -237 -91 -398zM429 -174q-34 0 -67.5 5.5t-58 31.5t-24.5 60q0 30 19.5 54.5t47.5 35t58 10.5v-31q-18 0 -32.5 -12.5t-14.5 -29.5
q0 -45 72 -45h60v-79h-60z" />
    <glyph glyph-name="aogonek" unicode="&#x105;" 
d="M206 -8q-31 0 -61 10t-52 33t-31.5 53t-9.5 61t11 60.5t34 51t51.5 34t59 17.5t61.5 5h91v46q0 22 -8 42.5t-24.5 34.5t-37.5 20t-43 6q-25 0 -50 -8.5t-42 -29.5t-20 -46l-77 18q6 42 35 76.5t70.5 48t83.5 13.5q37 0 73 -10t64.5 -34t42 -59t13.5 -72v-363h-80v75
q-7 -12 -16 -23q-25 -30 -62 -45t-76 -15zM231.5 64q25.5 0 50.5 9t43.5 28.5t26.5 45t8 51.5v47h-91q-23 0 -46.5 -4t-44.5 -15.5t-33.5 -32t-12.5 -44.5t13.5 -46t37 -30.5t49 -8.5zM429 -174q-34 0 -67.5 5.5t-58 31.5t-24.5 60q0 30 19.5 54.5t47.5 35t58 10.5v-31
q-18 0 -32.5 -12.5t-14.5 -29.5q0 -45 72 -45h60v-79h-60z" />
    <glyph glyph-name="Cacute" unicode="&#x106;" 
d="M238 768l-55 43l134 164l66 -52zM250 -8q-40 0 -78.5 13t-67 42.5t-40.5 68.5t-12 79v345q0 40 12 79t40.5 68.5t67 42.5t78.5 13q47 0 91 -18.5t71 -58.5t33 -86l-78 -14q-4 28 -19.5 54t-42 38.5t-55.5 12.5q-25 0 -48.5 -9.5t-40 -29t-23 -43.5t-6.5 -49v-345
q0 -25 6.5 -49t23 -43.5t40 -29t48.5 -9.5q29 0 55.5 12.5t42 38.5t19.5 54l78 -14q-5 -35 -21 -66.5t-43.5 -54t-61.5 -32.5t-69 -10z" />
    <glyph glyph-name="cacute" unicode="&#x107;" 
d="M238 563l-55 43l134 164l66 -52zM251 -8q-42 0 -82.5 16.5t-67.5 51t-38 76t-11 84.5v90q0 43 11 84.5t38 76t67.5 51t82.5 16.5q35 0 68.5 -10.5t60 -33.5t42.5 -54t23 -65l-76 -22q-5 29 -19.5 56t-41.5 42t-57 15q-27 0 -52 -13t-40 -37t-21 -51t-6 -55v-90
q0 -28 6 -55t21 -51t40 -37t52 -13q30 0 57 15t41.5 42t19.5 56l76 -22q-7 -34 -23 -65t-42.5 -54t-60 -33.5t-68.5 -10.5z" />
    <glyph glyph-name="Ccircumflex" unicode="&#x108;" 
d="M145 772l-69 49l130 151h88l130 -151l-69 -49l-105 141zM250 -8q-40 0 -78.5 13t-67 42.5t-40.5 68.5t-12 79v345q0 40 12 79t40.5 68.5t67 42.5t78.5 13q47 0 91 -18.5t71 -58.5t33 -86l-78 -14q-4 28 -19.5 54t-42 38.5t-55.5 12.5q-25 0 -48.5 -9.5t-40 -29t-23 -43.5
t-6.5 -49v-345q0 -25 6.5 -49t23 -43.5t40 -29t48.5 -9.5q29 0 55.5 12.5t42 38.5t19.5 54l78 -14q-5 -35 -21 -66.5t-43.5 -54t-61.5 -32.5t-69 -10z" />
    <glyph glyph-name="ccircumflex" unicode="&#x109;" 
d="M145 567l-69 49l130 151h88l130 -151l-69 -49l-105 141zM251 -8q-42 0 -82.5 16.5t-67.5 51t-38 76t-11 84.5v90q0 43 11 84.5t38 76t67.5 51t82.5 16.5q35 0 68.5 -10.5t60 -33.5t42.5 -54t23 -65l-76 -22q-5 29 -19.5 56t-41.5 42t-57 15q-27 0 -52 -13t-40 -37
t-21 -51t-6 -55v-90q0 -28 6 -55t21 -51t40 -37t52 -13q30 0 57 15t41.5 42t19.5 56l76 -22q-7 -34 -23 -65t-42.5 -54t-60 -33.5t-68.5 -10.5z" />
    <glyph glyph-name="Cdotaccent" unicode="&#x10a;" 
d="M250 828q-17 0 -32.5 7t-23 22.5t-6.5 32.5q-1 17 6.5 32.5t23 23t32.5 7.5t32.5 -7.5t22.5 -23t8 -32.5q-1 -17 -8 -32.5t-22.5 -22.5t-32.5 -7zM250 -8q-40 0 -78.5 13t-67 42.5t-40.5 68.5t-12 79v345q0 40 12 79t40.5 68.5t67 42.5t78.5 13q47 0 91 -18.5t71 -58.5
t33 -86l-78 -14q-4 28 -19.5 54t-42 38.5t-55.5 12.5q-25 0 -48.5 -9.5t-40 -29t-23 -43.5t-6.5 -49v-345q0 -25 6.5 -49t23 -43.5t40 -29t48.5 -9.5q29 0 55.5 12.5t42 38.5t19.5 54l78 -14q-5 -35 -21 -66.5t-43.5 -54t-61.5 -32.5t-69 -10z" />
    <glyph glyph-name="cdotaccent" unicode="&#x10b;" 
d="M250 623q-17 0 -32.5 7t-23 22.5t-6.5 32.5q-1 17 6.5 32.5t23 23t32.5 7.5t32.5 -7.5t22.5 -23t8 -32.5q-1 -17 -8 -32.5t-22.5 -22.5t-32.5 -7zM251 -8q-42 0 -82.5 16.5t-67.5 51t-38 76t-11 84.5v90q0 43 11 84.5t38 76t67.5 51t82.5 16.5q35 0 68.5 -10.5t60 -33.5
t42.5 -54t23 -65l-76 -22q-5 29 -19.5 56t-41.5 42t-57 15q-27 0 -52 -13t-40 -37t-21 -51t-6 -55v-90q0 -28 6 -55t21 -51t40 -37t52 -13q30 0 57 15t41.5 42t19.5 56l76 -22q-7 -34 -23 -65t-42.5 -54t-60 -33.5t-68.5 -10.5z" />
    <glyph glyph-name="Ccaron" unicode="&#x10c;" 
d="M206 774l-130 150l69 50l105 -141l105 141l69 -50l-130 -150h-88zM250 -8q-40 0 -78.5 13t-67 42.5t-40.5 68.5t-12 79v345q0 40 12 79t40.5 68.5t67 42.5t78.5 13q47 0 91 -18.5t71 -58.5t33 -86l-78 -14q-4 28 -19.5 54t-42 38.5t-55.5 12.5q-25 0 -48.5 -9.5t-40 -29
t-23 -43.5t-6.5 -49v-345q0 -25 6.5 -49t23 -43.5t40 -29t48.5 -9.5q29 0 55.5 12.5t42 38.5t19.5 54l78 -14q-5 -35 -21 -66.5t-43.5 -54t-61.5 -32.5t-69 -10z" />
    <glyph glyph-name="ccaron" unicode="&#x10d;" 
d="M206 569l-130 150l69 50l105 -141l105 141l69 -50l-130 -150h-88zM251 -8q-42 0 -82.5 16.5t-67.5 51t-38 76t-11 84.5v90q0 43 11 84.5t38 76t67.5 51t82.5 16.5q35 0 68.5 -10.5t60 -33.5t42.5 -54t23 -65l-76 -22q-5 29 -19.5 56t-41.5 42t-57 15q-27 0 -52 -13
t-40 -37t-21 -51t-6 -55v-90q0 -28 6 -55t21 -51t40 -37t52 -13q30 0 57 15t41.5 42t19.5 56l76 -22q-7 -34 -23 -65t-42.5 -54t-60 -33.5t-68.5 -10.5z" />
    <glyph glyph-name="Dcaron" unicode="&#x10e;" 
d="M206 774l-130 150l69 50l105 -141l105 141l69 -50l-130 -150h-88zM60 0v735h165q39 0 76.5 -12.5t67 -39t47 -61.5t25 -73t7.5 -77v-209q0 -39 -7.5 -77t-25 -73t-47 -61.5t-67 -39t-76.5 -12.5h-165zM140 72h85q34 0 64 16.5t47.5 46t24.5 62.5t7 66v209q0 33 -7 66
t-24.5 62.5t-47.5 46t-64 16.5h-85v-591z" />
    <glyph glyph-name="dcaron" unicode="&#x10f;" 
d="M211 -8q-39 0 -73 21t-53 56t-26 73.5t-7 77.5v90q0 39 7 77.5t26 73.5t53 56t73 21q31 0 59 -14t47 -39q10 -14 18 -30v280h80v-735h-80v75q-8 -16 -18 -30q-19 -25 -47 -39t-59 -14zM237 64q26 0 47.5 16t32 39.5t14.5 49t4 51.5v90q0 26 -4 51.5t-14.5 49t-32 39.5
t-47.5 16t-49 -15t-35 -39t-16.5 -50t-4.5 -52v-90q0 -26 4.5 -52t16.5 -50t35 -39t49 -15zM363 215v4v-4zM479 546l-42 37q31 34 42 81q-8 1 -16 5q-13 6 -19.5 19t-6.5 27.5t6.5 27.5t19.5 19.5t27 6.5t27 -6.5t19.5 -19.5t6.5 -27v-12q-3 -96 -64 -158z" />
    <glyph glyph-name="Dcroat" unicode="&#x110;" 
d="M60 0v346h-42v72h42v317h165q39 0 76.5 -12.5t67 -39t47 -61.5t25 -73t7.5 -77v-209q0 -39 -7.5 -77t-25 -73t-47 -61.5t-67 -39t-76.5 -12.5h-165zM140 72h85q34 0 64 16.5t47.5 46t24.5 62.5t7 66v209q0 33 -7 66t-24.5 62.5t-47.5 46t-64 16.5h-85v-245h122v-72h-122
v-274z" />
    <glyph glyph-name="dcroat" unicode="&#x111;" 
d="M225 -8q-41 0 -77 19.5t-57.5 54.5t-30 74.5t-8.5 79.5v90q0 40 8.5 79.5t30 74.5t57.5 54.5t77 19.5q31 0 61 -12.5t51 -37.5q13 -16 23 -34v132h-110v72h110v77h80v-77h42v-72h-42v-586h-80v76q-10 -18 -23 -34q-21 -25 -51 -37.5t-61 -12.5zM249 64q27 0 51 14t37 38
t18 50.5t5 53.5v90q0 27 -5 53.5t-18 50.5t-37 38t-51 14t-52 -13.5t-39.5 -37.5t-20 -51t-5.5 -54v-90q0 -27 5.5 -54t20 -51t39.5 -37.5t52 -13.5zM390 215v4v-4z" />
    <glyph glyph-name="Emacron" unicode="&#x112;" 
d="M90 0v735h350v-72h-270v-230h213v-72h-213v-289h270v-72h-350zM100 854v72h300v-72h-300z" />
    <glyph glyph-name="emacron" unicode="&#x113;" 
d="M257 -8q-44 0 -85 16t-69 50t-39.5 76.5t-11.5 85.5v90q0 43 11 84.5t37.5 75.5t66.5 51t83 17t83 -17t66.5 -51t37.5 -75.5t11 -84.5v-81h-316v-9q0 -28 6.5 -56t22.5 -51.5t42 -36t54 -12.5q27 0 52.5 11.5t42 34.5t24.5 49l73 -29q-13 -41 -41 -74t-68.5 -48.5
t-82.5 -15.5zM132 301h236v9q0 28 -5.5 55t-20.5 50.5t-39.5 37t-52.5 13.5t-52.5 -13.5t-39.5 -37t-20.5 -50.5t-5.5 -55v-9zM100 649v72h300v-72h-300z" />
    <glyph glyph-name="Ebreve" unicode="&#x114;" 
d="M90 0v735h350v-72h-270v-230h213v-72h-213v-289h270v-72h-350zM250 789q-32 0 -63 10t-54 33t-33 54t-10 63h80q0 -22 8.5 -43.5t29 -33t42.5 -11.5t42.5 11.5t29 33t8.5 43.5h80q0 -32 -10 -63t-33 -54t-54 -33t-63 -10z" />
    <glyph glyph-name="ebreve" unicode="&#x115;" 
d="M257 -8q-44 0 -85 16t-69 50t-39.5 76.5t-11.5 85.5v90q0 43 11 84.5t37.5 75.5t66.5 51t83 17t83 -17t66.5 -51t37.5 -75.5t11 -84.5v-81h-316v-9q0 -28 6.5 -56t22.5 -51.5t42 -36t54 -12.5q27 0 52.5 11.5t42 34.5t24.5 49l73 -29q-13 -41 -41 -74t-68.5 -48.5
t-82.5 -15.5zM132 301h236v9q0 28 -5.5 55t-20.5 50.5t-39.5 37t-52.5 13.5t-52.5 -13.5t-39.5 -37t-20.5 -50.5t-5.5 -55v-9zM250 584q-32 0 -63 10t-54 33t-33 54t-10 63h80q0 -22 8.5 -43.5t29 -33t42.5 -11.5t42.5 11.5t29 33t8.5 43.5h80q0 -32 -10 -63t-33 -54
t-54 -33t-63 -10z" />
    <glyph glyph-name="Edotaccent" unicode="&#x116;" 
d="M90 0v735h350v-72h-270v-230h213v-72h-213v-289h270v-72h-350zM250 828q-17 0 -32.5 7t-23 22.5t-6.5 32.5q-1 17 6.5 32.5t23 23t32.5 7.5t32.5 -7.5t22.5 -23t8 -32.5q-1 -17 -8 -32.5t-22.5 -22.5t-32.5 -7z" />
    <glyph glyph-name="edotaccent" unicode="&#x117;" 
d="M257 -8q-44 0 -85 16t-69 50t-39.5 76.5t-11.5 85.5v90q0 43 11 84.5t37.5 75.5t66.5 51t83 17t83 -17t66.5 -51t37.5 -75.5t11 -84.5v-81h-316v-9q0 -28 6.5 -56t22.5 -51.5t42 -36t54 -12.5q27 0 52.5 11.5t42 34.5t24.5 49l73 -29q-13 -41 -41 -74t-68.5 -48.5
t-82.5 -15.5zM132 301h236v9q0 28 -5.5 55t-20.5 50.5t-39.5 37t-52.5 13.5t-52.5 -13.5t-39.5 -37t-20.5 -50.5t-5.5 -55v-9zM250 623q-17 0 -32.5 7t-23 22.5t-6.5 32.5q-1 17 6.5 32.5t23 23t32.5 7.5t32.5 -7.5t22.5 -23t8 -32.5q-1 -17 -8 -32.5t-22.5 -22.5t-32.5 -7z
" />
    <glyph glyph-name="Eogonek" unicode="&#x118;" 
d="M90 0v735h350v-72h-270v-230h213v-72h-213v-289h270v-72h-350zM275 -174q-34 0 -67.5 5.5t-58 31.5t-24.5 60q0 30 19.5 54.5t47.5 35t58 10.5v-31q-18 0 -32.5 -12.5t-14.5 -29.5q0 -45 72 -45h60v-79h-60z" />
    <glyph glyph-name="eogonek" unicode="&#x119;" 
d="M257 -8q-44 0 -85 16t-69 50t-39.5 76.5t-11.5 85.5v90q0 43 11 84.5t37.5 75.5t66.5 51t83 17t83 -17t66.5 -51t37.5 -75.5t11 -84.5v-81h-316v-9q0 -28 6.5 -56t22.5 -51.5t42 -36t54 -12.5q27 0 52.5 11.5t42 34.5t24.5 49l73 -29q-13 -41 -41 -74t-68.5 -48.5
t-82.5 -15.5zM132 301h236v9q0 28 -5.5 55t-20.5 50.5t-39.5 37t-52.5 13.5t-52.5 -13.5t-39.5 -37t-20.5 -50.5t-5.5 -55v-9zM275 -174q-34 0 -67.5 5.5t-58 31.5t-24.5 60q0 30 19.5 54.5t47.5 35t58 10.5v-31q-18 0 -32.5 -12.5t-14.5 -29.5q0 -45 72 -45h60v-79h-60z
" />
    <glyph glyph-name="Ecaron" unicode="&#x11a;" 
d="M90 0v735h350v-72h-270v-230h213v-72h-213v-289h270v-72h-350zM206 774l-130 150l69 50l105 -141l105 141l69 -50l-130 -150h-88z" />
    <glyph glyph-name="ecaron" unicode="&#x11b;" 
d="M206 569l-130 150l69 50l105 -141l105 141l69 -50l-130 -150h-88zM257 -8q-44 0 -85 16t-69 50t-39.5 76.5t-11.5 85.5v90q0 43 11 84.5t37.5 75.5t66.5 51t83 17t83 -17t66.5 -51t37.5 -75.5t11 -84.5v-81h-316v-9q0 -28 6.5 -56t22.5 -51.5t42 -36t54 -12.5
q27 0 52.5 11.5t42 34.5t24.5 49l73 -29q-13 -41 -41 -74t-68.5 -48.5t-82.5 -15.5zM132 301h236v9q0 28 -5.5 55t-20.5 50.5t-39.5 37t-52.5 13.5t-52.5 -13.5t-39.5 -37t-20.5 -50.5t-5.5 -55v-9z" />
    <glyph glyph-name="Gcircumflex" unicode="&#x11c;" 
d="M145 772l-69 49l130 151h88l130 -151l-69 -49l-105 141zM249 -8q-40 0 -78 13.5t-66.5 43t-40.5 68t-12 78.5v345q0 40 12 79t40.5 68.5t67 42.5t78.5 13q47 0 91 -18.5t71 -58.5t33 -86l-78 -14q-4 28 -19.5 54t-42 38.5t-55.5 12.5q-25 0 -48.5 -9.5t-40 -29t-23 -43.5
t-6.5 -49v-345q0 -25 6.5 -49t22.5 -43.5t39.5 -29t48.5 -9.5q24 0 47 10t37.5 29.5t20.5 43.5t6 48v133h-110v72h190v-205q0 -39 -11 -77.5t-38 -68.5t-64.5 -43.5t-77.5 -13.5z" />
    <glyph glyph-name="gcircumflex" unicode="&#x11d;" 
d="M145 567l-69 49l130 151h88l130 -151l-69 -49l-105 141zM238 -213q-39 0 -76 13t-64.5 41t-42.5 64l72 32q8 -22 24.5 -41t39 -28t47.5 -9q28 0 53.5 13t41 36.5t21.5 51t6 55.5v61q-10 -18 -23 -34q-21 -25 -51 -37.5t-61 -12.5q-41 0 -77 19.5t-57.5 54.5t-30 74.5
t-8.5 79.5v90q0 40 8.5 79.5t30 74.5t57.5 54.5t77 19.5q31 0 61 -12.5t51 -37.5q13 -16 23 -34v76h80v-515q0 -43 -11.5 -85t-39 -76t-68 -50.5t-83.5 -16.5zM249 64q27 0 51 14t37 38t18 50.5t5 53.5v90q0 27 -5 53.5t-18 50.5t-37 38t-51 14t-52 -13.5t-39.5 -37.5
t-20 -51t-5.5 -54v-90q0 -27 5.5 -54t20 -51t39.5 -37.5t52 -13.5zM390 215v4v-4z" />
    <glyph glyph-name="Gbreve" unicode="&#x11e;" 
d="M249 -8q-40 0 -78 13.5t-66.5 43t-40.5 68t-12 78.5v345q0 40 12 79t40.5 68.5t67 42.5t78.5 13q47 0 91 -18.5t71 -58.5t33 -86l-78 -14q-4 28 -19.5 54t-42 38.5t-55.5 12.5q-25 0 -48.5 -9.5t-40 -29t-23 -43.5t-6.5 -49v-345q0 -25 6.5 -49t22.5 -43.5t39.5 -29
t48.5 -9.5q24 0 47 10t37.5 29.5t20.5 43.5t6 48v133h-110v72h190v-205q0 -39 -11 -77.5t-38 -68.5t-64.5 -43.5t-77.5 -13.5zM250 789q-32 0 -63 10t-54 33t-33 54t-10 63h80q0 -22 8.5 -43.5t29 -33t42.5 -11.5t42.5 11.5t29 33t8.5 43.5h80q0 -32 -10 -63t-33 -54
t-54 -33t-63 -10z" />
    <glyph glyph-name="gbreve" unicode="&#x11f;" 
d="M238 -213q-39 0 -76 13t-64.5 41t-42.5 64l72 32q8 -22 24.5 -41t39 -28t47.5 -9q28 0 53.5 13t41 36.5t21.5 51t6 55.5v61q-10 -18 -23 -34q-21 -25 -51 -37.5t-61 -12.5q-41 0 -77 19.5t-57.5 54.5t-30 74.5t-8.5 79.5v90q0 40 8.5 79.5t30 74.5t57.5 54.5t77 19.5
q31 0 61 -12.5t51 -37.5q13 -16 23 -34v76h80v-515q0 -43 -11.5 -85t-39 -76t-68 -50.5t-83.5 -16.5zM249 64q27 0 51 14t37 38t18 50.5t5 53.5v90q0 27 -5 53.5t-18 50.5t-37 38t-51 14t-52 -13.5t-39.5 -37.5t-20 -51t-5.5 -54v-90q0 -27 5.5 -54t20 -51t39.5 -37.5
t52 -13.5zM390 215v4v-4zM250 584q-32 0 -63 10t-54 33t-33 54t-10 63h80q0 -22 8.5 -43.5t29 -33t42.5 -11.5t42.5 11.5t29 33t8.5 43.5h80q0 -32 -10 -63t-33 -54t-54 -33t-63 -10z" />
    <glyph glyph-name="Gdotaccent" unicode="&#x120;" 
d="M249 -8q-40 0 -78 13.5t-66.5 43t-40.5 68t-12 78.5v345q0 40 12 79t40.5 68.5t67 42.5t78.5 13q47 0 91 -18.5t71 -58.5t33 -86l-78 -14q-4 28 -19.5 54t-42 38.5t-55.5 12.5q-25 0 -48.5 -9.5t-40 -29t-23 -43.5t-6.5 -49v-345q0 -25 6.5 -49t22.5 -43.5t39.5 -29
t48.5 -9.5q24 0 47 10t37.5 29.5t20.5 43.5t6 48v133h-110v72h190v-205q0 -39 -11 -77.5t-38 -68.5t-64.5 -43.5t-77.5 -13.5zM250 828q-17 0 -32.5 7t-23 22.5t-6.5 32.5q-1 17 6.5 32.5t23 23t32.5 7.5t32.5 -7.5t22.5 -23t8 -32.5q-1 -17 -8 -32.5t-22.5 -22.5t-32.5 -7z
" />
    <glyph glyph-name="gdotaccent" unicode="&#x121;" 
d="M238 -213q-39 0 -76 13t-64.5 41t-42.5 64l72 32q8 -22 24.5 -41t39 -28t47.5 -9q28 0 53.5 13t41 36.5t21.5 51t6 55.5v61q-10 -18 -23 -34q-21 -25 -51 -37.5t-61 -12.5q-41 0 -77 19.5t-57.5 54.5t-30 74.5t-8.5 79.5v90q0 40 8.5 79.5t30 74.5t57.5 54.5t77 19.5
q31 0 61 -12.5t51 -37.5q13 -16 23 -34v76h80v-515q0 -43 -11.5 -85t-39 -76t-68 -50.5t-83.5 -16.5zM249 64q27 0 51 14t37 38t18 50.5t5 53.5v90q0 27 -5 53.5t-18 50.5t-37 38t-51 14t-52 -13.5t-39.5 -37.5t-20 -51t-5.5 -54v-90q0 -27 5.5 -54t20 -51t39.5 -37.5
t52 -13.5zM390 215v4v-4zM250 623q-17 0 -32.5 7t-23 22.5t-6.5 32.5q-1 17 6.5 32.5t23 23t32.5 7.5t32.5 -7.5t22.5 -23t8 -32.5q-1 -17 -8 -32.5t-22.5 -22.5t-32.5 -7z" />
    <glyph glyph-name="Gcommaaccent" unicode="&#x122;" 
d="M239 -242l-42 37q31 34 42 81q-8 1 -16 5q-13 6 -19.5 19t-6.5 27.5t6.5 27.5t19.5 19.5t27 6.5t27 -6.5t19.5 -19.5t6.5 -27v-12q-3 -96 -64 -158zM249 -8q-40 0 -78 13.5t-66.5 43t-40.5 68t-12 78.5v345q0 40 12 79t40.5 68.5t67 42.5t78.5 13q47 0 91 -18.5t71 -58.5
t33 -86l-78 -14q-4 28 -19.5 54t-42 38.5t-55.5 12.5q-25 0 -48.5 -9.5t-40 -29t-23 -43.5t-6.5 -49v-345q0 -25 6.5 -49t22.5 -43.5t39.5 -29t48.5 -9.5q24 0 47 10t37.5 29.5t20.5 43.5t6 48v133h-110v72h190v-205q0 -39 -11 -77.5t-38 -68.5t-64.5 -43.5t-77.5 -13.5z
" />
    <glyph glyph-name="gcommaaccent" unicode="&#x123;" 
d="M250 550q-14 0 -27 6.5t-19.5 19.5t-6.5 27q0 103 64 170l42 -37q-31 -34 -42 -81q8 -1 16 -5q13 -7 19.5 -20t6.5 -27t-6.5 -27t-19.5 -19.5t-27 -6.5zM238 -213q-39 0 -76 13t-64.5 41t-42.5 64l72 32q8 -22 24.5 -41t39 -28t47.5 -9q28 0 53.5 13t41 36.5t21.5 51
t6 55.5v61q-10 -18 -23 -34q-21 -25 -51 -37.5t-61 -12.5q-41 0 -77 19.5t-57.5 54.5t-30 74.5t-8.5 79.5v90q0 40 8.5 79.5t30 74.5t57.5 54.5t77 19.5q31 0 61 -12.5t51 -37.5q13 -16 23 -34v76h80v-515q0 -43 -11.5 -85t-39 -76t-68 -50.5t-83.5 -16.5zM249 64
q27 0 51 14t37 38t18 50.5t5 53.5v90q0 27 -5 53.5t-18 50.5t-37 38t-51 14t-52 -13.5t-39.5 -37.5t-20 -51t-5.5 -54v-90q0 -27 5.5 -54t20 -51t39.5 -37.5t52 -13.5zM390 215v4v-4z" />
    <glyph glyph-name="Hcircumflex" unicode="&#x124;" 
d="M60 0v735h80v-313h220v313h80v-735h-80v350h-220v-350h-80zM145 772l-69 49l130 151h88l130 -151l-69 -49l-105 141z" />
    <glyph glyph-name="hcircumflex" unicode="&#x125;" 
d="M145 772l-69 49l130 151h88l130 -151l-69 -49l-105 141zM60 0v735h80v-281q10 18 23 34q21 24 50.5 37t61.5 13q31 0 61 -13t50.5 -37.5t32.5 -54t16.5 -60.5t4.5 -63v-310h-80v310q0 27 -5 53.5t-18 50t-36.5 38t-50.5 14.5t-50.5 -14.5t-36.5 -38t-18 -50t-5 -53.5
v-310h-80z" />
    <glyph glyph-name="Hbar" unicode="&#x126;" 
d="M60 0v497h-42v72h42v166h80v-166h220v166h80v-166h42v-72h-42v-497h-80v350h-220v-350h-80zM140 422h220v75h-220v-75z" />
    <glyph glyph-name="hbar" unicode="&#x127;" 
d="M60 0v586h-42v72h42v77h80v-77h110v-72h-110v-132q10 18 23 34q21 24 50.5 37t61.5 13q31 0 61 -13t50.5 -37.5t32.5 -54t16.5 -60.5t4.5 -63v-310h-80v310q0 27 -5 53.5t-18 50t-36.5 38t-50.5 14.5t-50.5 -14.5t-36.5 -38t-18 -50t-5 -53.5v-310h-80z" />
    <glyph glyph-name="Itilde" unicode="&#x128;" 
d="M75 0v72h135v591h-135v72h350v-72h-135v-591h135v-72h-350zM308 790q-5 0 -10 0.5t-9.5 2t-9 3.5t-9.5 5l-8 6l-7 6q-4 4 -7 7.5t-6 7.5l-6 8l-6 8q-3 4 -5 8l-6 8l-2 4l-3 5l-6 8l-5 8q-3 4 -8 7l-3 2l-3 -1q-5 -2 -7 -6l-5 -7l-5 -8q-2 -3 -4.5 -7t-4.5 -8l-3 -6l-2 -3
l-3 -7l-2 -3l-2 -4l-4 -8l-3 -9l-4 -8l-3 -8l-4 -8l-66 25q13 31 28 61t39 57.5t58 27.5q5 0 10 -0.5t9.5 -2t9 -3.5t9.5 -5l8 -5l7 -7q4 -3 7 -7t6 -7.5t6 -7.5l6 -9q3 -4 5 -8l6 -8l2 -3l3 -5l6 -9l5 -8q3 -4 8 -7l3 -2l3 1q5 3 7 6l5 8l5 7q2 4 4.5 7.5t4.5 7.5l4 8l4 8
l2 3l2 5l4 8l3 8l4 8l3 8l4 8l66 -24q-13 -32 -28 -62t-39 -57.5t-58 -27.5z" />
    <glyph glyph-name="itilde" unicode="&#x129;" 
d="M235 0v458h-136l1 72h214v-530h-79zM308 585q-5 0 -10 0.5t-9.5 2t-9 3.5t-9.5 5l-8 6l-7 6q-4 4 -7 7.5t-6 7.5l-6 8l-6 8q-3 4 -5 8l-6 8l-2 4l-3 5l-6 8l-5 8q-3 4 -8 7l-3 2l-3 -1q-5 -2 -7 -6l-5 -7l-5 -8q-2 -3 -4.5 -7t-4.5 -8l-3 -6l-2 -3l-3 -7l-2 -3l-2 -4
l-4 -8l-3 -9l-4 -8l-3 -8l-4 -8l-66 25q13 31 28 61t39 57.5t58 27.5q5 0 10 -0.5t9.5 -2t9 -3.5t9.5 -5l8 -5l7 -7q4 -3 7 -7t6 -7.5t6 -7.5l6 -9q3 -4 5 -8l6 -8l2 -3l3 -5l6 -9l5 -8q3 -4 8 -7l3 -2l3 1q5 3 7 6l5 8l5 7q2 4 4.5 7.5t4.5 7.5l4 8l4 8l2 3l2 5l4 8l3 8
l4 8l3 8l4 8l66 -24q-13 -32 -28 -62t-39 -57.5t-58 -27.5z" />
    <glyph glyph-name="Imacron" unicode="&#x12a;" 
d="M75 0v72h135v591h-135v72h350v-72h-135v-591h135v-72h-350zM100 854v72h300v-72h-300z" />
    <glyph glyph-name="imacron" unicode="&#x12b;" 
d="M235 0v458h-136l1 72h214v-530h-79zM100 649v72h300v-72h-300z" />
    <glyph glyph-name="Ibreve" unicode="&#x12c;" 
d="M75 0v72h135v591h-135v72h350v-72h-135v-591h135v-72h-350zM250 789q-32 0 -63 10t-54 33t-33 54t-10 63h80q0 -22 8.5 -43.5t29 -33t42.5 -11.5t42.5 11.5t29 33t8.5 43.5h80q0 -32 -10 -63t-33 -54t-54 -33t-63 -10z" />
    <glyph glyph-name="ibreve" unicode="&#x12d;" 
d="M235 0v458h-136l1 72h214v-530h-79zM250 584q-32 0 -63 10t-54 33t-33 54t-10 63h80q0 -22 8.5 -43.5t29 -33t42.5 -11.5t42.5 11.5t29 33t8.5 43.5h80q0 -32 -10 -63t-33 -54t-54 -33t-63 -10z" />
    <glyph glyph-name="Iogonek" unicode="&#x12e;" 
d="M75 0v72h135v591h-135v72h350v-72h-135v-591h135v-72h-350zM275 -174q-34 0 -67.5 5.5t-58 31.5t-24.5 60q0 30 19.5 54.5t47.5 35t58 10.5v-31q-18 0 -32.5 -12.5t-14.5 -29.5q0 -45 72 -45h60v-79h-60z" />
    <glyph glyph-name="iogonek" unicode="&#x12f;" 
d="M235 0v458h-136l1 72h214v-530h-79zM250 623q-17 0 -32.5 7t-23 22.5t-6.5 32.5q-1 17 6.5 32.5t23 23t32.5 7.5t32.5 -7.5t22.5 -23t8 -32.5q-1 -17 -8 -32.5t-22.5 -22.5t-32.5 -7zM275 -174q-34 0 -67.5 5.5t-58 31.5t-24.5 60q0 30 19.5 54.5t47.5 35t58 10.5v-31
q-18 0 -32.5 -12.5t-14.5 -29.5q0 -45 72 -45h60v-79h-60z" />
    <glyph glyph-name="Idotaccent" unicode="&#x130;" 
d="M75 0v72h135v591h-135v72h350v-72h-135v-591h135v-72h-350zM250 828q-17 0 -32.5 7t-23 22.5t-6.5 32.5q-1 17 6.5 32.5t23 23t32.5 7.5t32.5 -7.5t22.5 -23t8 -32.5q-1 -17 -8 -32.5t-22.5 -22.5t-32.5 -7z" />
    <glyph glyph-name="dotlessi" unicode="&#x131;" 
d="M235 0v458h-136l1 72h214v-530h-79z" />
    <glyph glyph-name="IJ" unicode="&#x132;" 
d="M199 -8v72q25 0 50.5 2.5t48.5 14t38.5 32t19.5 46t4 50.5v526h80v-526q0 -38 -6 -75.5t-29 -69t-57.5 -48.5t-72.5 -20.5t-76 -3.5zM60 0v735h80v-735h-80z" />
    <glyph glyph-name="ij" unicode="&#x133;" 
d="M130 623q-17 0 -32.5 7t-23 22.5t-6.5 32.5q-1 17 6.5 32.5t23 23t32.5 7.5t32.5 -7.5t22.5 -23t8 -32.5q-1 -17 -8 -32.5t-22.5 -22.5t-32.5 -7zM90 0v530h80v-530h-80zM370 623q-17 0 -32.5 7t-23 22.5t-6.5 32.5q-1 17 6.5 32.5t23 23t32.5 7.5t32.5 -7.5t22.5 -23
t8 -32.5q-1 -17 -8 -32.5t-22.5 -22.5t-32.5 -7zM237 -213q-40 0 -77 17.5t-59.5 52t-30.5 73.5l76 24q3 -24 14 -46t32 -35.5t45 -13.5q23 0 43 12t31 32t15 42t4 45v540h80v-540q0 -38 -9.5 -74.5t-32.5 -67.5t-58 -46t-73 -15z" />
    <glyph glyph-name="Jcircumflex" unicode="&#x134;" 
d="M250 772l-69 49l130 151h88l130 -151l-69 -49l-105 141zM226 -8q-34 0 -67 10t-59 33.5t-41 54.5t-19 65l78 15q3 -28 16.5 -53t38.5 -39t53 -14q24 0 46.5 10t37 30t20 43.5t5.5 47.5v468h-135v72h215v-540q0 -39 -11 -77t-37.5 -68t-64 -44t-76.5 -14z" />
    <glyph glyph-name="jcircumflex" unicode="&#x135;" 
d="M194 567l-69 49l130 151h88l130 -151l-69 -49l-105 141zM180 -213q-40 0 -77 17.5t-59.5 52t-30.5 73.5l76 24q3 -24 14 -46t32 -35.5t45 -13.5q23 0 43 12t31 32t15 42t4 45v468h-135v72h215v-540q0 -38 -9.5 -74.5t-32.5 -67.5t-58 -46t-73 -15z" />
    <glyph glyph-name="Kcommaaccent" unicode="&#x136;" 
d="M60 0v735h80v-340q10 11 20 23q21 23 41 47.5t39 49.5t37 51t34 53t30.5 55.5t14.5 60.5h84q0 -35 -16 -67.5t-33 -62.5t-37 -59t-41 -57l-24 -32q159 -341 159 -457h-80q0 102 -134 390l-8 -11l-46 -52q-20 -22 -40 -43v-284h-80zM239 -242l-42 37q31 34 42 81
q-8 1 -16 5q-13 6 -19.5 19t-6.5 27.5t6.5 27.5t19.5 19.5t27 6.5t27 -6.5t19.5 -19.5t6.5 -27v-12q-3 -96 -64 -158z" />
    <glyph glyph-name="kcommaaccent" unicode="&#x137;" 
d="M60 0v735h80v-438l14 11q17 13 34 27t33.5 28.5t32.5 29t31.5 30t29 32t27.5 35t14 40.5h84q0 -26 -15 -48t-31 -42t-33 -38.5t-35 -36t-35 -34.5q157 -247 157 -331h-80q0 72 -135 280q-11 -9 -21 -18l-40 -32q-16 -13 -32 -25v-205h-80zM239 -242l-42 37q31 34 42 81
q-8 1 -16 5q-13 6 -19.5 19t-6.5 27.5t6.5 27.5t19.5 19.5t27 6.5t27 -6.5t19.5 -19.5t6.5 -27v-12q-3 -96 -64 -158z" />
    <glyph glyph-name="kgreenlandic" unicode="&#x138;" 
d="M60 0v530h80v-233l14 11q17 13 34 27t33.5 28.5t32.5 29t31.5 30t29 32t27.5 35t14 40.5h84q0 -26 -15 -48t-31 -42t-33 -38.5t-35 -36t-35 -34.5q157 -247 157 -331h-80q0 72 -135 280q-11 -9 -21 -18l-40 -32q-16 -13 -32 -25v-205h-80z" />
    <glyph glyph-name="Lacute" unicode="&#x139;" 
d="M90 0v735h80v-663h278v-72h-358zM238 768l-55 43l134 164l66 -52z" />
    <glyph glyph-name="lacute" unicode="&#x13a;" 
d="M235 0v663h-136l1 72h214v-735h-79zM262 768l-55 43l134 164l66 -52z" />
    <glyph glyph-name="Lcommaaccent" unicode="&#x13b;" 
d="M239 -242l-42 37q31 34 42 81q-8 1 -16 5q-13 6 -19.5 19t-6.5 27.5t6.5 27.5t19.5 19.5t27 6.5t27 -6.5t19.5 -19.5t6.5 -27v-12q-3 -96 -64 -158zM90 0v735h80v-663h278v-72h-358z" />
    <glyph glyph-name="lcommaaccent" unicode="&#x13c;" 
d="M263 -242l-42 37q31 34 42 81q-8 1 -16 5q-13 6 -19.5 19t-6.5 27.5t6.5 27.5t19.5 19.5t27 6.5t27 -6.5t19.5 -19.5t6.5 -27v-12q-3 -96 -64 -158zM235 0v663h-136l1 72h214v-735h-79z" />
    <glyph glyph-name="Lcaron" unicode="&#x13d;" 
d="M381 546l-42 37q31 34 42 81q-8 1 -16 5q-13 6 -19.5 19t-6.5 27.5t6.5 27.5t19.5 19.5t27 6.5t27 -6.5t19.5 -19.5t6.5 -27v-12q-3 -96 -64 -158zM90 0v735h80v-663h278v-72h-358z" />
    <glyph glyph-name="lcaron" unicode="&#x13e;" 
d="M377 532l-42 37q31 34 42 81q-8 1 -16 5q-13 6 -19.5 19t-6.5 27.5t6.5 27.5t19.5 19.5t27 6.5t27 -6.5t19.5 -19.5t6.5 -27v-12q-3 -96 -64 -158zM235 0v663h-136l1 72h214v-735h-79z" />
    <glyph glyph-name="Ldot" unicode="&#x13f;" 
d="M90 0v735h80v-663h278v-72h-358zM307 342q-17 0 -32.5 7t-23 22.5t-6.5 32.5q-1 17 6.5 32.5t23 23t32.5 7.5t32.5 -7.5t22.5 -23t8 -32.5q-1 -17 -8 -32.5t-22.5 -22.5t-32.5 -7z" />
    <glyph glyph-name="ldot" unicode="&#x140;" 
d="M204 0v663h-136l1 72h214v-735h-79zM377 342q-17 0 -32.5 7t-23 22.5t-6.5 32.5q-1 17 6.5 32.5t23 23t32.5 7.5t32.5 -7.5t22.5 -23t8 -32.5q-1 -17 -8 -32.5t-22.5 -22.5t-32.5 -7z" />
    <glyph glyph-name="Lslash" unicode="&#x141;" 
d="M90 0v735h80v-663h278v-72h-358zM48 301l-36 64l280 140l36 -64z" />
    <glyph glyph-name="lslash" unicode="&#x142;" 
d="M235 0v663h-136l1 72h214v-735h-79zM152 280l-36 64l280 140l36 -64z" />
    <glyph glyph-name="Nacute" unicode="&#x143;" 
d="M60 0v735h34h77l192 -601v52l-1 10v5v10v10v24l-1 10v5v10v19v10q-1 68 -1 137v299h80v-735h-34h-77l-192 601v-52l1 -10v-5v-10v-10v-24l1 -10v-5v-10v-19v-10q1 -68 1 -137v-299h-80zM238 768l-55 43l134 164l66 -52z" />
    <glyph glyph-name="nacute" unicode="&#x144;" 
d="M60 0v530h80v-76q10 18 23 34q21 24 50.5 37t61.5 13q31 0 61 -13t50.5 -37.5t32.5 -54t16.5 -60.5t4.5 -63v-310h-80v310q0 27 -5 53.5t-18 50t-36.5 38t-50.5 14.5t-50.5 -14.5t-36.5 -38t-18 -50t-5 -53.5v-310h-80zM238 563l-55 43l134 164l66 -52z" />
    <glyph glyph-name="Ncommaaccent" unicode="&#x145;" 
d="M60 0v735h34h77l192 -601v52l-1 10v5v10v10v24l-1 10v5v10v19v10q-1 68 -1 137v299h80v-735h-34h-77l-192 601v-52l1 -10v-5v-10v-10v-24l1 -10v-5v-10v-19v-10q1 -68 1 -137v-299h-80zM239 -242l-42 37q31 34 42 81q-8 1 -16 5q-13 6 -19.5 19t-6.5 27.5t6.5 27.5
t19.5 19.5t27 6.5t27 -6.5t19.5 -19.5t6.5 -27v-12q-3 -96 -64 -158z" />
    <glyph glyph-name="ncommaaccent" unicode="&#x146;" 
d="M239 -242l-42 37q31 34 42 81q-8 1 -16 5q-13 6 -19.5 19t-6.5 27.5t6.5 27.5t19.5 19.5t27 6.5t27 -6.5t19.5 -19.5t6.5 -27v-12q-3 -96 -64 -158zM60 0v530h80v-76q10 18 23 34q21 24 50.5 37t61.5 13q31 0 61 -13t50.5 -37.5t32.5 -54t16.5 -60.5t4.5 -63v-310h-80
v310q0 27 -5 53.5t-18 50t-36.5 38t-50.5 14.5t-50.5 -14.5t-36.5 -38t-18 -50t-5 -53.5v-310h-80z" />
    <glyph glyph-name="Ncaron" unicode="&#x147;" 
d="M60 0v735h34h77l192 -601v52l-1 10v5v10v10v24l-1 10v5v10v19v10q-1 68 -1 137v299h80v-735h-34h-77l-192 601v-52l1 -10v-5v-10v-10v-24l1 -10v-5v-10v-19v-10q1 -68 1 -137v-299h-80zM206 774l-130 150l69 50l105 -141l105 141l69 -50l-130 -150h-88z" />
    <glyph glyph-name="ncaron" unicode="&#x148;" 
d="M206 569l-130 150l69 50l105 -141l105 141l69 -50l-130 -150h-88zM60 0v530h80v-76q10 18 23 34q21 24 50.5 37t61.5 13q31 0 61 -13t50.5 -37.5t32.5 -54t16.5 -60.5t4.5 -63v-310h-80v310q0 27 -5 53.5t-18 50t-36.5 38t-50.5 14.5t-50.5 -14.5t-36.5 -38t-18 -50
t-5 -53.5v-310h-80z" />
    <glyph glyph-name="napostrophe" unicode="&#x149;" 
d="M49 546l-42 37q31 34 42 81q-8 1 -16 5q-13 6 -19.5 19t-6.5 27.5t6.5 27.5t19.5 19.5t27 6.5t27 -6.5t19.5 -19.5t6.5 -27v-12q-3 -96 -64 -158zM60 0v530h80v-76q10 18 23 34q21 24 50.5 37t61.5 13q31 0 61 -13t50.5 -37.5t32.5 -54t16.5 -60.5t4.5 -63v-310h-80v310
q0 27 -5 53.5t-18 50t-36.5 38t-50.5 14.5t-50.5 -14.5t-36.5 -38t-18 -50t-5 -53.5v-310h-80z" />
    <glyph glyph-name="Eng" unicode="&#x14a;" 
d="M246 -8v72q23 0 45.5 8t38.5 25.5t23 40t7 45.5h80q0 -39 -12.5 -76t-40.5 -64t-65 -39t-76 -12zM60 0v735h80v-57l2 3q22 31 56.5 46.5t72.5 15.5q37 0 72 -15.5t57 -46.5t31 -67.5t9 -73.5v-357h-80v357q0 25 -6 48.5t-21.5 43.5t-38.5 29.5t-48 9.5t-48 -9.5
t-38 -29.5q-13 -17 -20 -37v-595h-80z" />
    <glyph glyph-name="eng" unicode="&#x14b;" 
d="M230 -191v72q25 0 49 7t43.5 23.5t28.5 40t9 48.5h80q0 -40 -14.5 -78t-46 -64.5t-70.5 -37.5t-79 -11zM60 0v530h80v-76q10 18 23 34q21 24 50.5 37t61.5 13q31 0 61 -13t50.5 -37.5t32.5 -54t16.5 -60.5t4.5 -63v-310h-80v310q0 27 -5 53.5t-18 50t-36.5 38t-50.5 14.5
t-50.5 -14.5t-36.5 -38t-18 -50t-5 -53.5v-310h-80z" />
    <glyph glyph-name="Omacron" unicode="&#x14c;" 
d="M100 854v72h300v-72h-300zM250 -8q-40 0 -78.5 13t-67 42.5t-40.5 68.5t-12 79v345q0 40 12 79t40.5 68.5t67 42.5t78.5 13t78.5 -13t67 -42.5t40.5 -68.5t12 -79v-345q0 -40 -12 -79t-40.5 -68.5t-67 -42.5t-78.5 -13zM250 64q25 0 48.5 9.5t40 29t23 43.5t6.5 49v345
q0 25 -6.5 49t-23 43.5t-40 29t-48.5 9.5t-48.5 -9.5t-40 -29t-23 -43.5t-6.5 -49v-345q0 -25 6.5 -49t23 -43.5t40 -29t48.5 -9.5z" />
    <glyph glyph-name="omacron" unicode="&#x14d;" 
d="M100 649v72h300v-72h-300zM250 -8q-43 0 -83 17t-66.5 51t-37.5 75.5t-11 84.5v90q0 43 11 84.5t37.5 75.5t66.5 51t83 17t83 -17t66.5 -51t37.5 -75.5t11 -84.5v-90q0 -43 -11 -84.5t-37.5 -75.5t-66.5 -51t-83 -17zM250 64q28 0 52.5 13.5t39.5 37t20.5 50.5t5.5 55v90
q0 28 -5.5 55t-20.5 50.5t-39.5 37t-52.5 13.5t-52.5 -13.5t-39.5 -37t-20.5 -50.5t-5.5 -55v-90q0 -28 5.5 -55t20.5 -50.5t39.5 -37t52.5 -13.5z" />
    <glyph glyph-name="Obreve" unicode="&#x14e;" 
d="M250 789q-32 0 -63 10t-54 33t-33 54t-10 63h80q0 -22 8.5 -43.5t29 -33t42.5 -11.5t42.5 11.5t29 33t8.5 43.5h80q0 -32 -10 -63t-33 -54t-54 -33t-63 -10zM250 -8q-40 0 -78.5 13t-67 42.5t-40.5 68.5t-12 79v345q0 40 12 79t40.5 68.5t67 42.5t78.5 13t78.5 -13
t67 -42.5t40.5 -68.5t12 -79v-345q0 -40 -12 -79t-40.5 -68.5t-67 -42.5t-78.5 -13zM250 64q25 0 48.5 9.5t40 29t23 43.5t6.5 49v345q0 25 -6.5 49t-23 43.5t-40 29t-48.5 9.5t-48.5 -9.5t-40 -29t-23 -43.5t-6.5 -49v-345q0 -25 6.5 -49t23 -43.5t40 -29t48.5 -9.5z" />
    <glyph glyph-name="obreve" unicode="&#x14f;" 
d="M250 584q-32 0 -63 10t-54 33t-33 54t-10 63h80q0 -22 8.5 -43.5t29 -33t42.5 -11.5t42.5 11.5t29 33t8.5 43.5h80q0 -32 -10 -63t-33 -54t-54 -33t-63 -10zM250 -8q-43 0 -83 17t-66.5 51t-37.5 75.5t-11 84.5v90q0 43 11 84.5t37.5 75.5t66.5 51t83 17t83 -17t66.5 -51
t37.5 -75.5t11 -84.5v-90q0 -43 -11 -84.5t-37.5 -75.5t-66.5 -51t-83 -17zM250 64q28 0 52.5 13.5t39.5 37t20.5 50.5t5.5 55v90q0 28 -5.5 55t-20.5 50.5t-39.5 37t-52.5 13.5t-52.5 -13.5t-39.5 -37t-20.5 -50.5t-5.5 -55v-90q0 -28 5.5 -55t20.5 -50.5t39.5 -37
t52.5 -13.5z" />
    <glyph glyph-name="Ohungarumlaut" unicode="&#x150;" 
d="M153 768l-55 43l134 164l66 -52zM323 768l-55 43l134 164l66 -52zM250 -8q-40 0 -78.5 13t-67 42.5t-40.5 68.5t-12 79v345q0 40 12 79t40.5 68.5t67 42.5t78.5 13t78.5 -13t67 -42.5t40.5 -68.5t12 -79v-345q0 -40 -12 -79t-40.5 -68.5t-67 -42.5t-78.5 -13zM250 64
q25 0 48.5 9.5t40 29t23 43.5t6.5 49v345q0 25 -6.5 49t-23 43.5t-40 29t-48.5 9.5t-48.5 -9.5t-40 -29t-23 -43.5t-6.5 -49v-345q0 -25 6.5 -49t23 -43.5t40 -29t48.5 -9.5z" />
    <glyph glyph-name="ohungarumlaut" unicode="&#x151;" 
d="M153 563l-55 43l134 164l66 -52zM323 563l-55 43l134 164l66 -52zM250 -8q-43 0 -83 17t-66.5 51t-37.5 75.5t-11 84.5v90q0 43 11 84.5t37.5 75.5t66.5 51t83 17t83 -17t66.5 -51t37.5 -75.5t11 -84.5v-90q0 -43 -11 -84.5t-37.5 -75.5t-66.5 -51t-83 -17zM250 64
q28 0 52.5 13.5t39.5 37t20.5 50.5t5.5 55v90q0 28 -5.5 55t-20.5 50.5t-39.5 37t-52.5 13.5t-52.5 -13.5t-39.5 -37t-20.5 -50.5t-5.5 -55v-90q0 -28 5.5 -55t20.5 -50.5t39.5 -37t52.5 -13.5z" />
    <glyph glyph-name="OE" unicode="&#x152;" 
d="M250 0q-40 0 -78.5 12t-68 39.5t-43 65.5t-13.5 78v345q0 40 13.5 78t43 65.5t68 39.5t78.5 12h203v-72h-123v-230h105v-72h-105v-289h123v-72h-203zM250 72v591q-25 0 -48.5 -8t-41 -25.5t-25.5 -41t-8 -48.5v-345q0 -25 8 -48.5t25.5 -41t41 -25.5t48.5 -8z" />
    <glyph glyph-name="oe" unicode="&#x153;" 
d="M161 -8q-27 0 -53 9.5t-44 30.5t-25.5 47t-7.5 53v266q0 27 7.5 53t25.5 47t44 30.5t53 9.5t52 -10q21 -7 37 -23q16 16 37 23q25 10 52 10t53 -9.5t44 -30.5t25.5 -47t7.5 -53v-169h-179v-97q0 -16 4.5 -31.5t18 -26t29.5 -10.5t28.5 10t18 25t5.5 32l80 -1v-4
q0 -35 -16 -68t-48.5 -49.5t-67.5 -16.5q-27 0 -53 9q-22 8 -39 24q-16 -15 -37 -23q-25 -10 -52 -10zM161 64q15 0 28 10.5t17 25.5t4 32v268q0 15 -4 30t-17 25.5t-28 10.5q-16 0 -28.5 -10.5t-17 -26t-4.5 -31.5v-266q0 -16 4.5 -31.5t17 -26t28.5 -10.5zM290 301h99v97
q0 16 -4.5 31.5t-17 26t-28.5 10.5q-15 0 -27.5 -10.5t-17 -26t-4.5 -31.5v-97z" />
    <glyph glyph-name="Racute" unicode="&#x154;" 
d="M60 0v735h191q41 0 80 -14t66.5 -45t39 -70.5t11.5 -80t-11.5 -80t-39 -70.5t-66.5 -45q-7 -3 -14 -5q131 -191 131 -325h-80q0 128 -139 315h-89v-315h-80zM251 387q26 0 49.5 10.5t39.5 31.5t22 46t6 50.5t-6 50.5t-22 45.5t-39.5 31t-49.5 10.5h-111v-276h111z
M238 768l-55 43l134 164l66 -52z" />
    <glyph glyph-name="racute" unicode="&#x155;" 
d="M120 0v530h80v-100q8 22 20 43q17 28 46 46.5t62 18.5q29 0 55.5 -12.5t45 -35t26.5 -50.5l-75 -34q-6 24 -25 42t-44 18q-30 0 -54.5 -20t-36 -48t-16 -57.5t-4.5 -59.5v-281h-80zM238 563l-55 43l134 164l66 -52z" />
    <glyph glyph-name="Rcommaaccent" unicode="&#x156;" 
d="M60 0v735h191q41 0 80 -14t66.5 -45t39 -70.5t11.5 -80t-11.5 -80t-39 -70.5t-66.5 -45q-7 -3 -14 -5q131 -191 131 -325h-80q0 128 -139 315h-89v-315h-80zM251 387q26 0 49.5 10.5t39.5 31.5t22 46t6 50.5t-6 50.5t-22 45.5t-39.5 31t-49.5 10.5h-111v-276h111z
M239 -242l-42 37q31 34 42 81q-8 1 -16 5q-13 6 -19.5 19t-6.5 27.5t6.5 27.5t19.5 19.5t27 6.5t27 -6.5t19.5 -19.5t6.5 -27v-12q-3 -96 -64 -158z" />
    <glyph glyph-name="rcommaaccent" unicode="&#x157;" 
d="M239 -242l-42 37q31 34 42 81q-8 1 -16 5q-13 6 -19.5 19t-6.5 27.5t6.5 27.5t19.5 19.5t27 6.5t27 -6.5t19.5 -19.5t6.5 -27v-12q-3 -96 -64 -158zM120 0v530h80v-100q8 22 20 43q17 28 46 46.5t62 18.5q29 0 55.5 -12.5t45 -35t26.5 -50.5l-75 -34q-6 24 -25 42t-44 18
q-30 0 -54.5 -20t-36 -48t-16 -57.5t-4.5 -59.5v-281h-80z" />
    <glyph glyph-name="Rcaron" unicode="&#x158;" 
d="M60 0v735h191q41 0 80 -14t66.5 -45t39 -70.5t11.5 -80t-11.5 -80t-39 -70.5t-66.5 -45q-7 -3 -14 -5q131 -191 131 -325h-80q0 128 -139 315h-89v-315h-80zM251 387q26 0 49.5 10.5t39.5 31.5t22 46t6 50.5t-6 50.5t-22 45.5t-39.5 31t-49.5 10.5h-111v-276h111z
M206 774l-130 150l69 50l105 -141l105 141l69 -50l-130 -150h-88z" />
    <glyph glyph-name="rcaron" unicode="&#x159;" 
d="M206 569l-130 150l69 50l105 -141l105 141l69 -50l-130 -150h-88zM120 0v530h80v-100q8 22 20 43q17 28 46 46.5t62 18.5q29 0 55.5 -12.5t45 -35t26.5 -50.5l-75 -34q-6 24 -25 42t-44 18q-30 0 -54.5 -20t-36 -48t-16 -57.5t-4.5 -59.5v-281h-80z" />
    <glyph glyph-name="Sacute" unicode="&#x15a;" 
d="M238 768l-55 43l134 164l66 -52zM247 -8q-47 0 -91.5 17t-72.5 57t-28 88v1l79 11v-7q0 -28 16.5 -51.5t42.5 -33.5t54 -10q30 0 57.5 13t41.5 40.5t14 57.5q0 51 -38 90.5t-83.5 63t-87 54.5t-66.5 77.5t-25 98.5q0 37 14 73t41.5 62t64 37.5t73.5 11.5q47 0 91.5 -17
t72.5 -57t28 -88v-1l-79 -11v7q0 28 -16.5 51.5t-42.5 33.5t-54 10q-30 0 -57.5 -13t-41.5 -40.5t-14 -57.5q0 -51 38 -90.5t83.5 -63t87 -54.5t66.5 -77.5t25 -98.5q0 -37 -14 -73t-41.5 -62t-64 -37.5t-73.5 -11.5z" />
    <glyph glyph-name="sacute" unicode="&#x15b;" 
d="M238 563l-55 43l134 164l66 -52zM248 -8q-40 0 -79.5 11t-69.5 40t-42 67l75 24q8 -23 26 -40t41.5 -23.5t48.5 -6.5t50 6t44 25.5t19 44.5q0 37 -32.5 59.5t-69 25t-72.5 10t-66 29.5t-46 55.5t-16 70.5q0 34 16.5 65t46 50t63 26t67.5 7q40 0 79.5 -11t69.5 -40t42 -67
l-75 -24q-8 23 -26 40t-41.5 23.5t-48.5 6.5t-50 -6t-44 -25.5t-19 -44.5q0 -37 32.5 -59.5t69 -25t72.5 -10t66 -29.5t46 -55.5t16 -70.5q0 -34 -16.5 -65t-46 -50t-63 -26t-67.5 -7z" />
    <glyph glyph-name="Scircumflex" unicode="&#x15c;" 
d="M145 772l-69 49l130 151h88l130 -151l-69 -49l-105 141zM247 -8q-47 0 -91.5 17t-72.5 57t-28 88v1l79 11v-7q0 -28 16.5 -51.5t42.5 -33.5t54 -10q30 0 57.5 13t41.5 40.5t14 57.5q0 51 -38 90.5t-83.5 63t-87 54.5t-66.5 77.5t-25 98.5q0 37 14 73t41.5 62t64 37.5
t73.5 11.5q47 0 91.5 -17t72.5 -57t28 -88v-1l-79 -11v7q0 28 -16.5 51.5t-42.5 33.5t-54 10q-30 0 -57.5 -13t-41.5 -40.5t-14 -57.5q0 -51 38 -90.5t83.5 -63t87 -54.5t66.5 -77.5t25 -98.5q0 -37 -14 -73t-41.5 -62t-64 -37.5t-73.5 -11.5z" />
    <glyph glyph-name="scircumflex" unicode="&#x15d;" 
d="M145 567l-69 49l130 151h88l130 -151l-69 -49l-105 141zM248 -8q-40 0 -79.5 11t-69.5 40t-42 67l75 24q8 -23 26 -40t41.5 -23.5t48.5 -6.5t50 6t44 25.5t19 44.5q0 37 -32.5 59.5t-69 25t-72.5 10t-66 29.5t-46 55.5t-16 70.5q0 34 16.5 65t46 50t63 26t67.5 7
q40 0 79.5 -11t69.5 -40t42 -67l-75 -24q-8 23 -26 40t-41.5 23.5t-48.5 6.5t-50 -6t-44 -25.5t-19 -44.5q0 -37 32.5 -59.5t69 -25t72.5 -10t66 -29.5t46 -55.5t16 -70.5q0 -34 -16.5 -65t-46 -50t-63 -26t-67.5 -7z" />
    <glyph glyph-name="Scedilla" unicode="&#x15e;" 
d="M150 -214v72h100q28 0 28 23t-28 23h-40v96h80v-29q7 -2 13 -5q26 -10 40.5 -34t14.5 -51t-14.5 -51t-40.5 -34t-53 -10h-100zM247 -8q-47 0 -91.5 17t-72.5 57t-28 88v1l79 11v-7q0 -28 16.5 -51.5t42.5 -33.5t54 -10q30 0 57.5 13t41.5 40.5t14 57.5q0 51 -38 90.5
t-83.5 63t-87 54.5t-66.5 77.5t-25 98.5q0 37 14 73t41.5 62t64 37.5t73.5 11.5q47 0 91.5 -17t72.5 -57t28 -88v-1l-79 -11v7q0 28 -16.5 51.5t-42.5 33.5t-54 10q-30 0 -57.5 -13t-41.5 -40.5t-14 -57.5q0 -51 38 -90.5t83.5 -63t87 -54.5t66.5 -77.5t25 -98.5
q0 -37 -14 -73t-41.5 -62t-64 -37.5t-73.5 -11.5z" />
    <glyph glyph-name="scedilla" unicode="&#x15f;" 
d="M150 -214v72h100q28 0 28 23t-28 23h-40v96h80v-29q7 -2 13 -5q26 -10 40.5 -34t14.5 -51t-14.5 -51t-40.5 -34t-53 -10h-100zM248 -8q-40 0 -79.5 11t-69.5 40t-42 67l75 24q8 -23 26 -40t41.5 -23.5t48.5 -6.5t50 6t44 25.5t19 44.5q0 37 -32.5 59.5t-69 25t-72.5 10
t-66 29.5t-46 55.5t-16 70.5q0 34 16.5 65t46 50t63 26t67.5 7q40 0 79.5 -11t69.5 -40t42 -67l-75 -24q-8 23 -26 40t-41.5 23.5t-48.5 6.5t-50 -6t-44 -25.5t-19 -44.5q0 -37 32.5 -59.5t69 -25t72.5 -10t66 -29.5t46 -55.5t16 -70.5q0 -34 -16.5 -65t-46 -50t-63 -26
t-67.5 -7z" />
    <glyph glyph-name="Scaron" unicode="&#x160;" 
d="M206 774l-130 150l69 50l105 -141l105 141l69 -50l-130 -150h-88zM247 -8q-47 0 -91.5 17t-72.5 57t-28 88v1l79 11v-7q0 -28 16.5 -51.5t42.5 -33.5t54 -10q30 0 57.5 13t41.5 40.5t14 57.5q0 51 -38 90.5t-83.5 63t-87 54.5t-66.5 77.5t-25 98.5q0 37 14 73t41.5 62
t64 37.5t73.5 11.5q47 0 91.5 -17t72.5 -57t28 -88v-1l-79 -11v7q0 28 -16.5 51.5t-42.5 33.5t-54 10q-30 0 -57.5 -13t-41.5 -40.5t-14 -57.5q0 -51 38 -90.5t83.5 -63t87 -54.5t66.5 -77.5t25 -98.5q0 -37 -14 -73t-41.5 -62t-64 -37.5t-73.5 -11.5z" />
    <glyph glyph-name="scaron" unicode="&#x161;" 
d="M206 569l-130 150l69 50l105 -141l105 141l69 -50l-130 -150h-88zM248 -8q-40 0 -79.5 11t-69.5 40t-42 67l75 24q8 -23 26 -40t41.5 -23.5t48.5 -6.5t50 6t44 25.5t19 44.5q0 37 -32.5 59.5t-69 25t-72.5 10t-66 29.5t-46 55.5t-16 70.5q0 34 16.5 65t46 50t63 26
t67.5 7q40 0 79.5 -11t69.5 -40t42 -67l-75 -24q-8 23 -26 40t-41.5 23.5t-48.5 6.5t-50 -6t-44 -25.5t-19 -44.5q0 -37 32.5 -59.5t69 -25t72.5 -10t66 -29.5t46 -55.5t16 -70.5q0 -34 -16.5 -65t-46 -50t-63 -26t-67.5 -7z" />
    <glyph glyph-name="Tcommaaccent" unicode="&#x162;" 
d="M210 0v663h-162v72h404v-72h-162v-663h-80zM150 -214v72h100q28 0 28 23t-28 23h-40v96h80v-29q7 -2 13 -5q26 -10 40.5 -34t14.5 -51t-14.5 -51t-40.5 -34t-53 -10h-100z" />
    <glyph glyph-name="tcommaaccent" unicode="&#x163;" 
d="M203 -214v72h100q28 0 28 23t-28 23h-40v96h80v-29q7 -2 13 -5q26 -10 40.5 -34t14.5 -51t-14.5 -51t-40.5 -34t-53 -10h-100zM326 -8q-37 0 -71.5 16t-56 46.5t-30 66.5t-8.5 73v264h-109v72h109v205h80v-205h161v-72h-161v-264q0 -29 6.5 -57.5t28.5 -50.5t51 -22
q25 0 45.5 17t29 41t10.5 50l78 -17q-3 -32 -15 -62t-34 -54t-52.5 -35.5t-61.5 -11.5z" />
    <glyph glyph-name="Tcaron" unicode="&#x164;" 
d="M210 0v663h-162v72h404v-72h-162v-663h-80zM206 774l-130 150l69 50l105 -141l105 141l69 -50l-130 -150h-88z" />
    <glyph glyph-name="tcaron" unicode="&#x165;" 
d="M377 532l-42 37q31 34 42 81q-8 1 -16 5q-13 6 -19.5 19t-6.5 27.5t6.5 27.5t19.5 19.5t27 6.5t27 -6.5t19.5 -19.5t6.5 -27v-12q-3 -96 -64 -158zM326 -8q-37 0 -71.5 16t-56 46.5t-30 66.5t-8.5 73v264h-109v72h109v205h80v-205h161v-72h-161v-264q0 -29 6.5 -57.5
t28.5 -50.5t51 -22q25 0 45.5 17t29 41t10.5 50l78 -17q-3 -32 -15 -62t-34 -54t-52.5 -35.5t-61.5 -11.5z" />
    <glyph glyph-name="Tbar" unicode="&#x166;" 
d="M210 0v295h-112v72h112v296h-162v72h404v-72h-162v-296h112v-72h-112v-295h-80z" />
    <glyph glyph-name="tbar" unicode="&#x167;" 
d="M326 -8q-37 0 -71.5 16t-56 46.5t-30 66.5t-8.5 73v88h-88v72h88v104h-109v72h109v205h80v-205h161v-72h-161v-104h98v-72h-98v-88q0 -29 6.5 -57.5t28.5 -50.5t51 -22q25 0 45.5 17t29 41t10.5 50l78 -17q-3 -32 -15 -62t-34 -54t-52.5 -35.5t-61.5 -11.5z" />
    <glyph glyph-name="Utilde" unicode="&#x168;" 
d="M308 790q-5 0 -10 0.5t-9.5 2t-9 3.5t-9.5 5l-8 6l-7 6q-4 4 -7 7.5t-6 7.5l-6 8l-6 8q-3 4 -5 8l-6 8l-2 4l-3 5l-6 8l-5 8q-3 4 -8 7l-3 2l-3 -1q-5 -2 -7 -6l-5 -7l-5 -8q-2 -3 -4.5 -7t-4.5 -8l-3 -6l-2 -3l-3 -7l-2 -3l-2 -4l-4 -8l-3 -9l-4 -8l-3 -8l-4 -8l-66 25
q13 31 28 61t39 57.5t58 27.5q5 0 10 -0.5t9.5 -2t9 -3.5t9.5 -5l8 -5l7 -7q4 -3 7 -7t6 -7.5t6 -7.5l6 -9q3 -4 5 -8l6 -8l2 -3l3 -5l6 -9l5 -8q3 -4 8 -7l3 -2l3 1q5 3 7 6l5 8l5 7q2 4 4.5 7.5t4.5 7.5l4 8l4 8l2 3l2 5l4 8l3 8l4 8l3 8l4 8l66 -24q-13 -32 -28 -62
t-39 -57.5t-58 -27.5zM250 -8q-39 0 -76.5 14t-64.5 43.5t-38 68t-11 77.5v540h80v-540q0 -24 6 -47.5t20.5 -43.5t37 -30t46.5 -10t46.5 10t37 30t20.5 43.5t6 47.5v540h80v-540q0 -39 -11 -77.5t-38 -68t-64.5 -43.5t-76.5 -14z" />
    <glyph glyph-name="utilde" unicode="&#x169;" 
d="M225 -8q-31 0 -61 13t-50.5 37.5t-32.5 54t-16.5 60.5t-4.5 63v310h80v-310q0 -27 5 -53.5t18 -50t36.5 -38t50.5 -14.5t50.5 14.5t36.5 38t18 50t5 53.5v310h80v-530h-80v76q-10 -18 -23 -34q-21 -24 -50.5 -37t-61.5 -13zM308 585q-5 0 -10 0.5t-9.5 2t-9 3.5t-9.5 5
l-8 6l-7 6q-4 4 -7 7.5t-6 7.5l-6 8l-6 8q-3 4 -5 8l-6 8l-2 4l-3 5l-6 8l-5 8q-3 4 -8 7l-3 2l-3 -1q-5 -2 -7 -6l-5 -7l-5 -8q-2 -3 -4.5 -7t-4.5 -8l-3 -6l-2 -3l-3 -7l-2 -3l-2 -4l-4 -8l-3 -9l-4 -8l-3 -8l-4 -8l-66 25q13 31 28 61t39 57.5t58 27.5q5 0 10 -0.5
t9.5 -2t9 -3.5t9.5 -5l8 -5l7 -7q4 -3 7 -7t6 -7.5t6 -7.5l6 -9q3 -4 5 -8l6 -8l2 -3l3 -5l6 -9l5 -8q3 -4 8 -7l3 -2l3 1q5 3 7 6l5 8l5 7q2 4 4.5 7.5t4.5 7.5l4 8l4 8l2 3l2 5l4 8l3 8l4 8l3 8l4 8l66 -24q-13 -32 -28 -62t-39 -57.5t-58 -27.5z" />
    <glyph glyph-name="Umacron" unicode="&#x16a;" 
d="M100 854v72h300v-72h-300zM250 -8q-39 0 -76.5 14t-64.5 43.5t-38 68t-11 77.5v540h80v-540q0 -24 6 -47.5t20.5 -43.5t37 -30t46.5 -10t46.5 10t37 30t20.5 43.5t6 47.5v540h80v-540q0 -39 -11 -77.5t-38 -68t-64.5 -43.5t-76.5 -14z" />
    <glyph glyph-name="umacron" unicode="&#x16b;" 
d="M225 -8q-31 0 -61 13t-50.5 37.5t-32.5 54t-16.5 60.5t-4.5 63v310h80v-310q0 -27 5 -53.5t18 -50t36.5 -38t50.5 -14.5t50.5 14.5t36.5 38t18 50t5 53.5v310h80v-530h-80v76q-10 -18 -23 -34q-21 -24 -50.5 -37t-61.5 -13zM100 649v72h300v-72h-300z" />
    <glyph glyph-name="Ubreve" unicode="&#x16c;" 
d="M250 789q-32 0 -63 10t-54 33t-33 54t-10 63h80q0 -22 8.5 -43.5t29 -33t42.5 -11.5t42.5 11.5t29 33t8.5 43.5h80q0 -32 -10 -63t-33 -54t-54 -33t-63 -10zM250 -8q-39 0 -76.5 14t-64.5 43.5t-38 68t-11 77.5v540h80v-540q0 -24 6 -47.5t20.5 -43.5t37 -30t46.5 -10
t46.5 10t37 30t20.5 43.5t6 47.5v540h80v-540q0 -39 -11 -77.5t-38 -68t-64.5 -43.5t-76.5 -14z" />
    <glyph glyph-name="ubreve" unicode="&#x16d;" 
d="M225 -8q-31 0 -61 13t-50.5 37.5t-32.5 54t-16.5 60.5t-4.5 63v310h80v-310q0 -27 5 -53.5t18 -50t36.5 -38t50.5 -14.5t50.5 14.5t36.5 38t18 50t5 53.5v310h80v-530h-80v76q-10 -18 -23 -34q-21 -24 -50.5 -37t-61.5 -13zM250 584q-32 0 -63 10t-54 33t-33 54t-10 63
h80q0 -22 8.5 -43.5t29 -33t42.5 -11.5t42.5 11.5t29 33t8.5 43.5h80q0 -32 -10 -63t-33 -54t-54 -33t-63 -10z" />
    <glyph glyph-name="Uring" unicode="&#x16e;" 
d="M250 770q-26 0 -49.5 11.5t-35 35t-11.5 49t11.5 49.5t35 35.5t49.5 11.5t49.5 -11.5t35 -35.5t11.5 -49.5t-11.5 -49t-35 -35t-49.5 -11.5zM250 829q10 0 19 4t13.5 13.5t4.5 19.5t-4.5 19t-13.5 13.5t-19 4.5t-19 -4.5t-13.5 -13.5t-4.5 -19t4.5 -19.5t13.5 -13.5
t19 -4zM250 -8q-39 0 -76.5 14t-64.5 43.5t-38 68t-11 77.5v540h80v-540q0 -24 6 -47.5t20.5 -43.5t37 -30t46.5 -10t46.5 10t37 30t20.5 43.5t6 47.5v540h80v-540q0 -39 -11 -77.5t-38 -68t-64.5 -43.5t-76.5 -14z" />
    <glyph glyph-name="uring" unicode="&#x16f;" 
d="M250 565q-26 0 -49.5 11.5t-35 35t-11.5 49t11.5 49.5t35 35.5t49.5 11.5t49.5 -11.5t35 -35.5t11.5 -49.5t-11.5 -49t-35 -35t-49.5 -11.5zM250 624q10 0 19 4t13.5 13.5t4.5 19.5t-4.5 19t-13.5 13.5t-19 4.5t-19 -4.5t-13.5 -13.5t-4.5 -19t4.5 -19.5t13.5 -13.5
t19 -4zM225 -8q-31 0 -61 13t-50.5 37.5t-32.5 54t-16.5 60.5t-4.5 63v310h80v-310q0 -27 5 -53.5t18 -50t36.5 -38t50.5 -14.5t50.5 14.5t36.5 38t18 50t5 53.5v310h80v-530h-80v76q-10 -18 -23 -34q-21 -24 -50.5 -37t-61.5 -13z" />
    <glyph glyph-name="Uhungarumlaut" unicode="&#x170;" 
d="M153 768l-55 43l134 164l66 -52zM323 768l-55 43l134 164l66 -52zM250 -8q-39 0 -76.5 14t-64.5 43.5t-38 68t-11 77.5v540h80v-540q0 -24 6 -47.5t20.5 -43.5t37 -30t46.5 -10t46.5 10t37 30t20.5 43.5t6 47.5v540h80v-540q0 -39 -11 -77.5t-38 -68t-64.5 -43.5
t-76.5 -14z" />
    <glyph glyph-name="uhungarumlaut" unicode="&#x171;" 
d="M153 563l-55 43l134 164l66 -52zM323 563l-55 43l134 164l66 -52zM225 -8q-31 0 -61 13t-50.5 37.5t-32.5 54t-16.5 60.5t-4.5 63v310h80v-310q0 -27 5 -53.5t18 -50t36.5 -38t50.5 -14.5t50.5 14.5t36.5 38t18 50t5 53.5v310h80v-530h-80v76q-10 -18 -23 -34
q-21 -24 -50.5 -37t-61.5 -13z" />
    <glyph glyph-name="Uogonek" unicode="&#x172;" 
d="M275 -174q-34 0 -67.5 5.5t-58 31.5t-24.5 60q0 30 19.5 54.5t47.5 35t58 10.5v-31q-18 0 -32.5 -12.5t-14.5 -29.5q0 -45 72 -45h60v-79h-60zM250 -8q-39 0 -76.5 14t-64.5 43.5t-38 68t-11 77.5v540h80v-540q0 -24 6 -47.5t20.5 -43.5t37 -30t46.5 -10t46.5 10t37 30
t20.5 43.5t6 47.5v540h80v-540q0 -39 -11 -77.5t-38 -68t-64.5 -43.5t-76.5 -14z" />
    <glyph glyph-name="uogonek" unicode="&#x173;" 
d="M225 -8q-31 0 -61 13t-50.5 37.5t-32.5 54t-16.5 60.5t-4.5 63v310h80v-310q0 -27 5 -53.5t18 -50t36.5 -38t50.5 -14.5t50.5 14.5t36.5 38t18 50t5 53.5v310h80v-530h-80v76q-10 -18 -23 -34q-21 -24 -50.5 -37t-61.5 -13zM429 -174q-34 0 -67.5 5.5t-58 31.5t-24.5 60
q0 30 19.5 54.5t47.5 35t58 10.5v-31q-18 0 -32.5 -12.5t-14.5 -29.5q0 -45 72 -45h60v-79h-60z" />
    <glyph glyph-name="Wcircumflex" unicode="&#x174;" 
d="M133 0q-86 384 -86 551v184h80v-184q0 -131 43 -399l50 289h60l50 -289q43 268 43 399v184h80v-184q0 -167 -86 -551h-61l-56 321l-56 -321h-61zM145 772l-69 49l130 151h88l130 -151l-69 -49l-105 141z" />
    <glyph glyph-name="wcircumflex" unicode="&#x175;" 
d="M133 0q-86 277 -86 398v132h80v-132q0 -94 43 -286l50 206h60l50 -206q43 192 43 286v132h80v-132q0 -121 -86 -398h-61l-56 231l-56 -231h-61zM145 567l-69 49l130 151h88l130 -151l-69 -49l-105 141z" />
    <glyph glyph-name="Ycircumflex" unicode="&#x176;" 
d="M210 0v287l-85 162q-65 123 -65 242v44h80v-44q0 -103 55 -209l55 -105l55 105q55 106 55 209v44h80v-44q0 -119 -65 -242l-85 -162v-287h-80zM145 772l-69 49l130 151h88l130 -151l-69 -49l-105 141z" />
    <glyph glyph-name="ycircumflex" unicode="&#x177;" 
d="M145 567l-69 49l130 151h88l130 -151l-69 -49l-105 141zM160 -205v7q0 60 12 95l37 108l-115 324q-34 97 -34 164v37h80v-37q0 -52 30 -140l79 -234l81 234q30 86 30 140v37h80v-37q0 -65 -34 -164l-158 -456q-8 -22 -8 -71v-7h-80z" />
    <glyph glyph-name="Ydieresis" unicode="&#x178;" 
d="M210 0v287l-85 162q-65 123 -65 242v44h80v-44q0 -103 55 -209l55 -105l55 105q55 106 55 209v44h80v-44q0 -119 -65 -242l-85 -162v-287h-80zM150 828q-17 0 -32.5 7t-23 22.5t-6.5 32.5q-1 17 6.5 32.5t23 23t32.5 7.5t32.5 -7.5t22.5 -23t8 -32.5q-1 -17 -8 -32.5
t-22.5 -22.5t-32.5 -7zM350 828q-17 0 -32.5 7t-23 22.5t-6.5 32.5q-1 17 6.5 32.5t23 23t32.5 7.5t32.5 -7.5t22.5 -23t8 -32.5q-1 -17 -8 -32.5t-22.5 -22.5t-32.5 -7z" />
    <glyph glyph-name="Zacute" unicode="&#x179;" 
d="M60 0v72l288 591h-288v72h380v-72l-288 -591h288v-72h-380zM238 768l-55 43l134 164l66 -52z" />
    <glyph glyph-name="zacute" unicode="&#x17a;" 
d="M60 0v72l284 386h-284v72h380v-72l-284 -386h284v-72h-380zM238 563l-55 43l134 164l66 -52z" />
    <glyph glyph-name="Zdotaccent" unicode="&#x17b;" 
d="M60 0v72l288 591h-288v72h380v-72l-288 -591h288v-72h-380zM250 828q-17 0 -32.5 7t-23 22.5t-6.5 32.5q-1 17 6.5 32.5t23 23t32.5 7.5t32.5 -7.5t22.5 -23t8 -32.5q-1 -17 -8 -32.5t-22.5 -22.5t-32.5 -7z" />
    <glyph glyph-name="zdotaccent" unicode="&#x17c;" 
d="M60 0v72l284 386h-284v72h380v-72l-284 -386h284v-72h-380zM250 623q-17 0 -32.5 7t-23 22.5t-6.5 32.5q-1 17 6.5 32.5t23 23t32.5 7.5t32.5 -7.5t22.5 -23t8 -32.5q-1 -17 -8 -32.5t-22.5 -22.5t-32.5 -7z" />
    <glyph glyph-name="Zcaron" unicode="&#x17d;" 
d="M60 0v72l288 591h-288v72h380v-72l-288 -591h288v-72h-380zM206 774l-130 150l69 50l105 -141l105 141l69 -50l-130 -150h-88z" />
    <glyph glyph-name="zcaron" unicode="&#x17e;" 
d="M60 0v72l284 386h-284v72h380v-72l-284 -386h284v-72h-380zM206 569l-130 150l69 50l105 -141l105 141l69 -50l-130 -150h-88z" />
    <glyph glyph-name="longs" unicode="&#x17f;" 
d="M147 0v540q0 38 9 74.5t32 67t58 46t72 15.5q33 0 63.5 -11.5t53.5 -35t35.5 -54t16.5 -62.5l-78 -16q-2 25 -12 50t-31.5 41t-47.5 16q-22 0 -41.5 -12t-30.5 -32t-15 -42.5t-4 -44.5v-540h-80z" />
    <glyph glyph-name="uni0180" unicode="&#x180;" 
d="M275 -8q-31 0 -61 12.5t-51 37.5q-13 16 -23 34v-76h-80v586h-42v72h42v77h80v-77h110v-72h-110v-132q10 18 23 34q21 25 51 37.5t61 12.5q41 0 77 -19.5t57.5 -54.5t30 -74.5t8.5 -79.5v-90q0 -40 -8.5 -79.5t-30 -74.5t-57.5 -54.5t-77 -19.5zM251 64q27 0 52 13.5
t39.5 37.5t20 51t5.5 54v90q0 27 -5.5 54t-20 51t-39.5 37.5t-52 13.5t-51 -14t-37 -38t-18 -50.5t-5 -53.5v-90q0 -27 5 -53.5t18 -50.5t37 -38t51 -14zM110 311v4v-4z" />
    <glyph glyph-name="uni0181" unicode="&#x181;" 
d="M60 0v670q-9 0 -13 -10.5t-6 -19.5t-3 -18.5t-2 -18.5l-1 -19v-19h-72q0 36 6.5 71.5t30.5 67t60 31.5h175q38 0 74 -13t61.5 -41.5t36.5 -64.5t11 -74q0 -36 -11.5 -71t-38.5 -60q-17 -16 -38 -26q31 -12 57 -33q31 -26 46 -65t15 -79q0 -42 -14 -82.5t-45 -70
t-71.5 -42.5t-82.5 -13h-175zM140 72h95q27 0 53 9t45 29t27 46t8 53t-8 53t-27 46t-45 29t-53 9h-95v-274zM140 418h95q23 0 44 9.5t34.5 28t19 40.5t5.5 44.5t-5.5 45t-19 40.5t-34.5 27.5t-44 9.5h-95v-245z" />
    <glyph glyph-name="uni0182" unicode="&#x182;" 
d="M60 0v735h342v-72h-262v-223h102q43 0 83.5 -15t69.5 -47t41 -73.5t12 -84t-12 -84t-41 -74t-69.5 -47.5t-83.5 -15h-182zM140 72h102q27 0 53 11t43 33.5t23.5 49.5t6.5 54.5t-6.5 54t-23.5 49t-43 33.5t-53 11h-102v-296z" />
    <glyph glyph-name="uni0183" unicode="&#x183;" 
d="M275 -8q-31 0 -61 12.5t-51 37.5q-13 16 -23 34v-76h-80v735h342v-72h-262v-209q10 18 23 34q21 25 51 37.5t61 12.5q41 0 77 -19.5t57.5 -54.5t30 -74.5t8.5 -79.5v-90q0 -40 -8.5 -79.5t-30 -74.5t-57.5 -54.5t-77 -19.5zM251 64q27 0 52 13.5t39.5 37.5t20 51t5.5 54
v90q0 27 -5.5 54t-20 51t-39.5 37.5t-52 13.5t-51 -14t-37 -38t-18 -50.5t-5 -53.5v-90q0 -27 5 -53.5t18 -50.5t37 -38t51 -14zM110 311v4v-4z" />
    <glyph glyph-name="uni0184" unicode="&#x184;" 
d="M60 0v591l-72 72l72 72h80v-295h102q43 0 83.5 -15t69.5 -47t41 -73.5t12 -84t-12 -84t-41 -74t-69.5 -47.5t-83.5 -15h-182zM140 72h102q27 0 53 11t43 33.5t23.5 49.5t6.5 54.5t-6.5 54t-23.5 49t-43 33.5t-53 11h-102v-296z" />
    <glyph glyph-name="uni0185" unicode="&#x185;" 
d="M275 -8q-31 0 -61 12.5t-51 37.5q-13 16 -23 34v-76h-80v591l-72 72l72 72h80v-281q10 18 23 34q21 25 51 37.5t61 12.5q41 0 77 -19.5t57.5 -54.5t30 -74.5t8.5 -79.5v-90q0 -40 -8.5 -79.5t-30 -74.5t-57.5 -54.5t-77 -19.5zM251 64q27 0 52 13.5t39.5 37.5t20 51
t5.5 54v90q0 27 -5.5 54t-20 51t-39.5 37.5t-52 13.5t-51 -14t-37 -38t-18 -50.5t-5 -53.5v-90q0 -27 5 -53.5t18 -50.5t37 -38t51 -14zM110 311v4v-4z" />
    <glyph glyph-name="uni0186" unicode="&#x186;" 
d="M250 -8q-47 0 -91 18.5t-71 58.5t-33 86l78 14q4 -28 19.5 -54t42 -38.5t55.5 -12.5q25 0 48.5 9.5t40 29t23 43.5t6.5 49v345q0 25 -6.5 49t-23 43.5t-40 29t-48.5 9.5q-29 0 -55.5 -12.5t-42 -38.5t-19.5 -54l-78 14q5 35 21 66.5t43.5 54t61.5 32.5t69 10
q40 0 78.5 -13t67 -42.5t40.5 -68.5t12 -79v-345q0 -40 -12 -79t-40.5 -68.5t-67 -42.5t-78.5 -13z" />
    <glyph glyph-name="uni0187" unicode="&#x187;" 
d="M250 -8q-40 0 -78.5 13t-67 42.5t-40.5 68.5t-12 79v345q0 40 12 79t40.5 68.5t67 42.5t78.5 13q47 0 91 -18q13 -6 24 -13v23h80v-155l-78 -14q-4 28 -19.5 54t-42 38.5t-55.5 12.5q-25 0 -48.5 -9.5t-40 -29t-23 -43.5t-6.5 -49v-345q0 -25 6.5 -49t23 -43.5t40 -29
t48.5 -9.5q29 0 55.5 12.5t42 38.5t19.5 54l78 -14q-5 -35 -21 -66.5t-43.5 -54t-61.5 -32.5t-69 -10zM365 735q0 40 14.5 78t46 64.5t70.5 37.5t79 11v-72q-25 0 -49 -7t-43.5 -23.5t-28.5 -40t-9 -48.5h-80z" />
    <glyph glyph-name="uni0188" unicode="&#x188;" 
d="M251 -8q-42 0 -82.5 16.5t-67.5 51t-38 76t-11 84.5v90q0 43 11 84.5t38 76t67.5 51t82.5 16.5q35 0 68 -10q25 -8 46 -23v25h80v-155l-76 -22q-5 29 -19.5 56t-41.5 42t-57 15q-27 0 -52 -13t-40 -37t-21 -51t-6 -55v-90q0 -28 6 -55t21 -51t40 -37t52 -13q30 0 57 15
t41.5 42t19.5 56l76 -22q-7 -34 -23 -65t-42.5 -54t-60 -33.5t-68.5 -10.5zM365 530q0 40 14.5 78t46 64.5t70.5 37.5t79 11v-72q-25 0 -49 -7t-43.5 -23.5t-28.5 -40t-9 -48.5h-80z" />
    <glyph glyph-name="uni0189" unicode="&#x189;" 
d="M60 0v346h-42v72h42v317h165q39 0 76.5 -12.5t67 -39t47 -61.5t25 -73t7.5 -77v-209q0 -39 -7.5 -77t-25 -73t-47 -61.5t-67 -39t-76.5 -12.5h-165zM140 72h85q34 0 64 16.5t47.5 46t24.5 62.5t7 66v209q0 33 -7 66t-24.5 62.5t-47.5 46t-64 16.5h-85v-245h122v-72h-122
v-274z" />
    <glyph glyph-name="uni018A" unicode="&#x18a;" 
d="M60 0v670q-9 0 -13 -10.5t-6 -19.5t-3 -18.5t-2 -18.5l-1 -19v-19h-72q0 36 6.5 71.5t30.5 67t60 31.5h165q39 0 76.5 -12.5t67 -39t47 -61.5t25 -73t7.5 -77v-209q0 -39 -7.5 -77t-25 -73t-47 -61.5t-67 -39t-76.5 -12.5h-165zM140 72h85q34 0 64 16.5t47.5 46
t24.5 62.5t7 66v209q0 33 -7 66t-24.5 62.5t-47.5 46t-64 16.5h-85v-591z" />
    <glyph glyph-name="uni018B" unicode="&#x18b;" 
d="M258 0q-43 0 -83.5 15t-69.5 47.5t-41 74t-12 84t12 83.5t41 73.5t69.5 47.5t83.5 15h102v223h-262v72h342v-735h-182zM258 72h102v296h-102q-27 0 -53 -11t-43 -33.5t-23.5 -49t-6.5 -54t6.5 -54.5t23.5 -49.5t43 -33.5t53 -11z" />
    <glyph glyph-name="uni018C" unicode="&#x18c;" 
d="M225 -8q-41 0 -77 19.5t-57.5 54.5t-30 74.5t-8.5 79.5v90q0 40 8.5 79.5t30 74.5t57.5 54.5t77 19.5q31 0 61 -12.5t51 -37.5q13 -16 23 -34v209h-262v72h342v-735h-80v76q-10 -18 -23 -34q-21 -25 -51 -37.5t-61 -12.5zM249 64q27 0 51 14t37 38t18 50.5t5 53.5v90
q0 27 -5 53.5t-18 50.5t-37 38t-51 14t-52 -13.5t-39.5 -37.5t-20 -51t-5.5 -54v-90q0 -27 5.5 -54t20 -51t39.5 -37.5t52 -13.5zM390 215v4v-4z" />
    <glyph glyph-name="uni018D" unicode="&#x18d;" 
d="M259 -213q-80 0 -170 49v72q92 -49 161 -49q23 0 45.5 8.5t34 29.5t11.5 44q0 26 -16 47.5t-42 26.5t-51 9.5t-49.5 12t-47 20.5t-40 32t-28 43t-13 49.5t-2.5 50.5v87q0 42 11 82.5t38.5 73t67 48t81.5 15.5t81.5 -15.5t67 -48t38.5 -73t11 -82.5v-87q0 -38 -12.5 -75
t-39.5 -64q-18 -18 -39 -29q12 -7 23 -17q21 -20 31 -47.5t10 -56.5q0 -42 -20.5 -81t-60 -57t-81.5 -18zM296 85q12 6 23 15q29 26 39 61t10 71v87q0 26 -6 52.5t-21 48.5t-39.5 34t-51.5 12t-51.5 -12t-39.5 -34t-21 -48.5t-6 -52.5v-87q0 -28 7 -56.5t29 -48t50.5 -27
t56.5 -11.5q10 -2 21 -4z" />
    <glyph glyph-name="uni018E" unicode="&#x18e;" 
d="M60 0v72h270v230h-213v72h213v289h-270v72h350v-735h-350z" />
    <glyph glyph-name="uni018F" unicode="&#x18f;" 
d="M250 -8q-43 0 -83 17t-66.5 51t-37.5 75.5t-11 84.5v184h316v111q0 28 -6.5 56t-22.5 51.5t-42 36t-54 12.5q-27 0 -52.5 -11.5t-42 -34.5t-24.5 -49l-73 29q13 41 41 74t68.5 48.5t82.5 15.5q44 0 85 -16t69 -50t39.5 -76.5t11.5 -85.5v-295q0 -43 -11 -84.5
t-37.5 -75.5t-66.5 -51t-83 -17zM250 64q28 0 52.5 13.5t39.5 37t20.5 50.5t5.5 55v112h-236v-112q0 -28 5.5 -55t20.5 -50.5t39.5 -37t52.5 -13.5z" />
    <glyph glyph-name="uni0190" unicode="&#x190;" 
d="M257 -8q-42 0 -83 13.5t-72 44t-44.5 71.5t-13.5 84q0 40 13.5 78.5t44.5 65.5q24 22 53 34q-23 11 -42 28q-28 26 -40.5 61.5t-12.5 72.5q0 39 12 77t40 67t66 41.5t77 12.5t76 -12.5t65 -40.5t41 -65l-74 -27q-7 22 -23.5 39.5t-39 25.5t-45.5 8q-24 0 -47 -9t-39 -28
t-22.5 -42.5t-6.5 -47.5t6 -47t21 -41.5t37 -28t46 -9.5h57v-72h-57q-27 0 -52 -10t-42.5 -31t-24.5 -46.5t-7 -53t8 -54t26.5 -47.5t45 -30.5t53.5 -9.5q26 0 51 7.5t44 25.5t28 42l73 -29q-14 -38 -45 -66.5t-70.5 -40t-80.5 -11.5z" />
    <glyph glyph-name="uni0191" unicode="&#x191;" 
d="M-40 -191v72q25 0 49 7t43.5 23.5t28.5 40t9 48.5h80q0 -40 -14.5 -78t-46 -64.5t-70.5 -37.5t-79 -11zM90 0v735h350v-72h-270v-230h213v-72h-213v-361h-80z" />
    <glyph glyph-name="florin" unicode="&#x192;" 
d="M80 -195v72q26 0 52 4.5t46 22.5t26 44t6 52v428h-135v72h135v80q0 34 5 67t24.5 61t50 44t64 19.5t66.5 3.5v-72q-26 0 -52 -4.5t-46 -22.5t-26 -44t-6 -52v-80h135v-72h-135v-428q0 -34 -5 -67t-24.5 -61t-50 -44t-64 -19.5t-66.5 -3.5z" />
    <glyph glyph-name="uni0193" unicode="&#x193;" 
d="M249 -8q-40 0 -78 13.5t-66.5 43t-40.5 68t-12 78.5v345q0 40 12 79t40.5 68.5t67 42.5t78.5 13q47 0 91 -18q13 -6 24 -13v23q0 40 14.5 78t46 64.5t70.5 37.5t79 11v-72q-25 0 -49 -7t-43.5 -23.5t-28.5 -40t-9 -48.5v-155l-78 -14q-4 28 -19.5 54t-42 38.5t-55.5 12.5
q-25 0 -48.5 -9.5t-40 -29t-23 -43.5t-6.5 -49v-345q0 -25 6.5 -49t22.5 -43.5t39.5 -29t48.5 -9.5q24 0 47 10t37.5 29.5t20.5 43.5t6 48v133h-110v72h190v-205q0 -39 -11 -77.5t-38 -68.5t-64.5 -43.5t-77.5 -13.5z" />
    <glyph glyph-name="uni0194" unicode="&#x194;" 
d="M250 -205q-20 0 -39 6t-33.5 20t-19.5 33.5t-5 39.5q0 129 58 353q-54 205 -159 488h80q71 -194 118 -351q47 157 118 351h80q-105 -283 -159 -488q58 -224 58 -353q0 -20 -5 -39.5t-19.5 -33.5t-33.5 -20t-39 -6zM250 -136q21 0 21 28q0 78 -21 189q-21 -111 -21 -189
q0 -28 21 -28z" />
    <glyph glyph-name="uni0195" unicode="&#x195;" 
d="M331 -8q-26 0 -50.5 10.5t-41 31.5t-23 46.5t-6.5 51.5v266q0 15 -3 29.5t-13.5 26.5t-24.5 12q-15 0 -25.5 -12t-13.5 -26.5t-3 -29.5v-398h-80v735h80v-228q9 11 21 18q21 13 45 13t44.5 -13t32 -34.5t16 -45t4.5 -47.5v-266q0 -15 3 -29.5t13.5 -26.5t24.5 -12
q15 0 25.5 12t13.5 26.5t3 29.5v398h80v-398q0 -26 -7 -51.5t-23 -46.5t-40.5 -31.5t-51.5 -10.5z" />
    <glyph glyph-name="uni0196" unicode="&#x196;" 
d="M369 0q-31 0 -61.5 9.5t-53.5 31.5t-33.5 52.5t-10.5 61.5v508h-135v72h215v-580q0 -22 9 -42t28.5 -30.5t41.5 -10.5h65v-72h-65z" />
    <glyph glyph-name="uni0197" unicode="&#x197;" 
d="M75 0v72h135v591h-135v72h350v-72h-135v-591h135v-72h-350zM119 346v72h262v-72h-262z" />
    <glyph glyph-name="uni0198" unicode="&#x198;" 
d="M60 0v544h80v-149q10 11 20 23q21 23 41 47.5t39 49.5t37 51t34 53t30.5 55.5t14.5 60.5h84q0 -35 -16 -67.5t-33 -62.5t-37 -59t-41 -57l-24 -32q159 -341 159 -457h-80q0 102 -134 390l-8 -11l-46 -52q-20 -22 -40 -43v-284h-80zM60 544q0 40 14.5 78t46 64.5
t70.5 37.5t79 11v-72q-25 0 -49 -7t-43.5 -23.5t-28.5 -40t-9 -48.5h-80z" />
    <glyph glyph-name="uni0199" unicode="&#x199;" 
d="M60 0v544h80v-247l14 11q17 13 34 27t33.5 28.5t32.5 29t31.5 30t29 32t27.5 35t14 40.5h84q0 -26 -15 -48t-31 -42t-33 -38.5t-35 -36t-35 -34.5q157 -247 157 -331h-80q0 72 -135 280q-11 -9 -21 -18l-40 -32q-16 -13 -32 -25v-205h-80zM60 544q0 40 14.5 78t46 64.5
t70.5 37.5t79 11v-72q-25 0 -49 -7t-43.5 -23.5t-28.5 -40t-9 -48.5h-80z" />
    <glyph glyph-name="uni019A" unicode="&#x19a;" 
d="M235 0v663h-136l1 72h214v-735h-79zM143 346v72h262v-72h-262z" />
    <glyph glyph-name="uni019B" unicode="&#x19b;" 
d="M60 0v37q0 65 34 164l114 328l-36 104q-12 35 -12 95v7h80v-7q0 -49 8 -71l158 -456q34 -99 34 -164v-37h-80v37q0 54 -30 140l-80 231l-80 -231q-30 -86 -30 -140v-37h-80zM128 412l-36 64l280 140l36 -64z" />
    <glyph glyph-name="uni019C" unicode="&#x19c;" 
d="M144 -8q-35 0 -59 29t-31 63.5t-7 69.5v581h80v-581q0 -18 2.5 -35.5t12 -36t27.5 -18.5t27 18.5t12 35.5q2 17 2 36v581h80v-581q0 -18 2.5 -35.5t11.5 -36t27 -18.5t27.5 18.5t12 36t2.5 35.5v581h80v-735h-80v34q-4 -6 -9 -12q-23 -30 -58 -30t-58 29q-16 19 -24 40
q-8 -21 -23 -39q-23 -30 -57 -30z" />
    <glyph glyph-name="uni019D" unicode="&#x19d;" 
d="M-70 -191v72q25 0 49 7t43.5 23.5t28.5 40t9 48.5h80q0 -40 -14.5 -78t-46 -64.5t-70.5 -37.5t-79 -11zM60 0v735h34h77l192 -601v52l-1 10v5v10v10v24l-1 10v5v10v19v10q-1 68 -1 137v299h80v-735h-34h-77l-192 601v-52l1 -10v-5v-10v-10v-24l1 -10v-5v-10v-19v-10
q1 -68 1 -137v-299h-80z" />
    <glyph glyph-name="uni019E" unicode="&#x19e;" 
d="M360 -205v515q0 27 -5 53.5t-18 50t-36.5 38t-50.5 14.5t-50.5 -14.5t-36.5 -38t-18 -50t-5 -53.5v-310h-80v530h80v-76q10 18 23 34q21 24 50.5 37t61.5 13q31 0 61 -13t50.5 -37.5t32.5 -54t16.5 -60.5t4.5 -63v-515h-80z" />
    <glyph glyph-name="uni019F" unicode="&#x19f;" 
d="M250 -8q-40 0 -78.5 13t-67 42.5t-40.5 68.5t-12 79v345q0 40 12 79t40.5 68.5t67 42.5t78.5 13t78.5 -13t67 -42.5t40.5 -68.5t12 -79v-345q0 -40 -12 -79t-40.5 -68.5t-67 -42.5t-78.5 -13zM250 64q25 0 48.5 9.5t40 29t23 43.5t6.5 49v137h-236v-137q0 -25 6.5 -49
t23 -43.5t40 -29t48.5 -9.5zM132 404h236v136q0 25 -6.5 49t-23 43.5t-40 29t-48.5 9.5t-48.5 -9.5t-40 -29t-23 -43.5t-6.5 -49v-136z" />
    <glyph glyph-name="Ohorn" unicode="&#x1a0;" 
d="M369 656l-15 55q60 16 83 50l-6 2q-13 7 -19.5 20.5t-6.5 27.5t6.5 27.5t20 20t27.5 6.5t27.5 -6.5t20 -20t6.5 -27.5v-2v-1q0 -38 -20 -71.5t-53.5 -52.5t-70.5 -28zM250 -8q-40 0 -78.5 13t-67 42.5t-40.5 68.5t-12 79v345q0 40 12 79t40.5 68.5t67 42.5t78.5 13
t78.5 -13t67 -42.5t40.5 -68.5t12 -79v-345q0 -40 -12 -79t-40.5 -68.5t-67 -42.5t-78.5 -13zM250 64q25 0 48.5 9.5t40 29t23 43.5t6.5 49v345q0 25 -6.5 49t-23 43.5t-40 29t-48.5 9.5t-48.5 -9.5t-40 -29t-23 -43.5t-6.5 -49v-345q0 -25 6.5 -49t23 -43.5t40 -29
t48.5 -9.5z" />
    <glyph glyph-name="ohorn" unicode="&#x1a1;" 
d="M369 452l-15 55q60 16 83 50l-6 2q-13 7 -19.5 20.5t-6.5 27.5t6.5 27.5t20 20t27.5 6.5t27.5 -6.5t20 -20t6.5 -27.5v-2v-1q0 -38 -20 -71.5t-53.5 -52.5t-70.5 -28zM250 -8q-43 0 -83 17t-66.5 51t-37.5 75.5t-11 84.5v90q0 43 11 84.5t37.5 75.5t66.5 51t83 17t83 -17
t66.5 -51t37.5 -75.5t11 -84.5v-90q0 -43 -11 -84.5t-37.5 -75.5t-66.5 -51t-83 -17zM250 64q28 0 52.5 13.5t39.5 37t20.5 50.5t5.5 55v90q0 28 -5.5 55t-20.5 50.5t-39.5 37t-52.5 13.5t-52.5 -13.5t-39.5 -37t-20.5 -50.5t-5.5 -55v-90q0 -28 5.5 -55t20.5 -50.5
t39.5 -37t52.5 -13.5z" />
    <glyph glyph-name="uni01A2" unicode="&#x1a2;" 
d="M381 -205v838l-9 -5q-28 -15 -59 -20q-7 -1 -15 -2v-3v-471q0 -27 -7.5 -53t-25.5 -47t-43.5 -30.5t-52.5 -9.5t-53 9.5t-44 30.5t-25.5 47t-7.5 53v471q0 27 7.5 53t25.5 47t44 30.5t53 9.5t52.5 -9.5t43.5 -30.5q10 -12 18 -26q65 9 98 58h80v-940h-80zM169 64
q15 0 28 10.5t17 26t4 31.5v471q0 16 -4 31.5t-17 26t-28 10.5q-16 0 -28.5 -10.5t-17 -26t-4.5 -31.5v-471q0 -16 4.5 -31.5t17 -26t28.5 -10.5z" />
    <glyph glyph-name="uni01A3" unicode="&#x1a3;" 
d="M381 -205v633l-9 -5q-28 -15 -59 -20q-7 -1 -15 -2v-3v-266q0 -27 -7.5 -53t-25.5 -47t-43.5 -30.5t-52.5 -9.5t-53 9.5t-44 30.5t-25.5 47t-7.5 53v266q0 27 7.5 53t25.5 47t44 30.5t53 9.5t52.5 -9.5t43.5 -30.5q10 -12 18 -26q65 9 98 58h80v-735h-80zM169 64
q15 0 28 10.5t17 26t4 31.5v266q0 16 -4 31.5t-17 26t-28 10.5q-16 0 -28.5 -10.5t-17 -26t-4.5 -31.5v-266q0 -16 4.5 -31.5t17 -26t28.5 -10.5z" />
    <glyph glyph-name="uni01A4" unicode="&#x1a4;" 
d="M75 0v670q-9 0 -13 -10.5t-6 -19.5t-3 -18.5t-2 -18.5l-1 -19v-19h-72q0 36 6.5 71.5t30.5 67t60 31.5h176q41 0 80 -14t66.5 -45t39 -70.5t11.5 -80t-11.5 -80t-39 -70.5t-66.5 -45.5t-80 -14.5h-96v-315h-80zM251 387q26 0 49.5 10.5t39.5 31.5t22 46t6 50.5t-6 50.5
t-22 45.5t-39.5 31t-49.5 10.5h-96v-276h96z" />
    <glyph glyph-name="uni01A5" unicode="&#x1a5;" 
d="M60 -205v720q0 42 10.5 83.5t37 76t66 51.5t81.5 17q35 0 68 -10.5t58.5 -34t41.5 -54t22 -64.5l-76 -23q-5 29 -18.5 56t-39.5 42.5t-56 15.5q-27 0 -51.5 -13.5t-38.5 -37.5t-19.5 -51t-5.5 -54v-61q10 18 23 34q21 25 51 37.5t61 12.5q41 0 77 -19.5t57.5 -54.5
t30 -74.5t8.5 -79.5v-90q0 -40 -8.5 -79.5t-30 -74.5t-57.5 -54.5t-77 -19.5q-31 0 -61 12.5t-51 37.5q-13 16 -23 34v-281h-80zM251 64q27 0 52 13.5t39.5 37.5t20 51t5.5 54v90q0 27 -5.5 54t-20 51t-39.5 37.5t-52 13.5t-51 -14t-37 -38t-18 -50.5t-5 -53.5v-90
q0 -27 5 -53.5t18 -50.5t37 -38t51 -14zM110 311v4v-4z" />
    <glyph glyph-name="uni01A6" unicode="&#x1a6;" 
d="M368 -205q0 169 -143 418h-85v-213h-80v735h80v-110h115q40 0 78 -14t65 -44.5t38.5 -69t11.5 -78.5t-11.5 -79t-38.5 -69t-65 -44q-11 -4 -22 -7q137 -251 137 -425h-80zM255 285q24 0 47.5 10t38.5 30t21 44.5t6 49.5t-6 49t-21 44t-38.5 30.5t-47.5 10.5h-115v-268
h115z" />
    <glyph glyph-name="uni01A7" unicode="&#x1a7;" 
d="M253 -8q-37 0 -73.5 11.5t-64 37.5t-41.5 62t-14 73q0 52 25 98.5t66.5 77.5t87 54.5t83.5 63t38 90.5q0 30 -14 57.5t-41.5 40.5t-57.5 13q-28 0 -54 -10t-42.5 -33.5t-16.5 -51.5v-7l-79 11v2q0 47 28 87t72.5 57t91.5 17q37 0 73.5 -11.5t64 -37.5t41.5 -62t14 -73
q0 -52 -25 -98.5t-66.5 -77.5t-87 -54.5t-83.5 -63t-38 -90.5q0 -30 14 -57.5t41.5 -40.5t57.5 -13q28 0 54 10t42.5 33.5t16.5 51.5v7l79 -11v-2q0 -47 -28 -87t-72.5 -57t-91.5 -17z" />
    <glyph glyph-name="uni01A8" unicode="&#x1a8;" 
d="M254 -8q-34 0 -67.5 7t-62.5 25t-46.5 48.5t-17.5 64.5q0 35 18 68t47.5 54t64 31.5t69.5 17t68 29t33 58.5q0 25 -20 42.5t-44.5 23t-49.5 5.5q-24 0 -48 -6.5t-42 -23.5t-26 -40l-75 24q12 38 42 67t69.5 40t79.5 11q34 0 67.5 -7t62.5 -25t46.5 -48.5t17.5 -64.5
q0 -35 -18 -68t-47.5 -54t-64 -31.5t-69.5 -17t-68 -29t-33 -58.5q0 -25 20 -42.5t44.5 -23t49.5 -5.5q24 0 48 6.5t42 23.5t26 40l75 -24q-12 -38 -42 -67t-69.5 -40t-79.5 -11z" />
    <glyph glyph-name="uni01A9" unicode="&#x1a9;" 
d="M60 0v72l152 296l-152 295v72h380v-72h-297l152 -295l-152 -296h297v-72h-380z" />
    <glyph glyph-name="uni01AA" unicode="&#x1aa;" 
d="M420 -191q-40 0 -79 11t-70.5 37.5t-46 64.5t-14.5 78v532q-14 -3 -29 -3q-28 0 -54 12t-39 37.5t-13 53.5t13 53.5t39.5 37.5t54.5 12t54.5 -11.5t40 -37.5t13.5 -54v-632q0 -25 9 -48.5t28.5 -40t43.5 -23.5t49 -7v-72zM181 598q9 0 16.5 4.5t11.5 12.5l1 3v14
q0 34 -29 34q-8 0 -16 -4.5t-11 -12.5t-3 -17t3 -17t11 -12.5t16 -4.5z" />
    <glyph glyph-name="uni01AB" unicode="&#x1ab;" 
d="M279 -191v72q25 0 49 7t43.5 23.5t28.5 40t9 48.5h80q0 -40 -14.5 -78t-46 -64.5t-70.5 -37.5t-79 -11zM326 -8q-37 0 -71.5 16t-56 46.5t-30 66.5t-8.5 73v264h-109v72h109v205h80v-205h161v-72h-161v-264q0 -29 6.5 -57.5t28.5 -50.5t51 -22q25 0 45.5 17t29 41
t10.5 50l78 -17v-155h-80v14q-10 -6 -21 -10q-31 -12 -62 -12z" />
    <glyph glyph-name="uni01AC" unicode="&#x1ac;" 
d="M210 0v670h-53q-10 0 -13.5 -10.5t-5.5 -19.5t-3 -18.5l-2 -19t-1 -19v-18.5h-72q0 36 6.5 71.5t30.5 67t60 31.5h295v-72h-162v-663h-80z" />
    <glyph glyph-name="uni01AD" unicode="&#x1ad;" 
d="M326 -8q-37 0 -71.5 16t-56 46.5t-30 66.5t-8.5 73v264h-109v72h350v-72h-161v-264q0 -29 6.5 -57.5t28.5 -50.5t51 -22q25 0 45.5 17t29 41t10.5 50l78 -17q-3 -32 -15 -62t-34 -54t-52.5 -35.5t-61.5 -11.5zM160 530q0 40 14.5 78t46 64.5t70.5 37.5t79 11v-72
q-25 0 -49 -7t-43.5 -23.5t-28.5 -40t-9 -48.5h-80z" />
    <glyph glyph-name="uni01AE" unicode="&#x1ae;" 
d="M420 -191q-33 0 -66 3.5t-63.5 18.5t-50 42.5t-25 60.5t-5.5 66v663h-162v72h404v-72h-162v-664q0 -25 6 -50t26.5 -42.5t46 -21.5t51.5 -4v-72z" />
    <glyph glyph-name="Uhorn" unicode="&#x1af;" 
d="M369 656l-15 55q60 16 83 50l-6 2q-13 7 -19.5 20.5t-6.5 27.5t6.5 27.5t20 20t27.5 6.5t27.5 -6.5t20 -20t6.5 -27.5v-2v-1q0 -38 -20 -71.5t-53.5 -52.5t-70.5 -28zM250 -8q-39 0 -76.5 14t-64.5 43.5t-38 68t-11 77.5v540h80v-540q0 -24 6 -47.5t20.5 -43.5t37 -30
t46.5 -10t46.5 10t37 30t20.5 43.5t6 47.5v540h80v-540q0 -39 -11 -77.5t-38 -68t-64.5 -43.5t-76.5 -14z" />
    <glyph glyph-name="uhorn" unicode="&#x1b0;" 
d="M369 452l-15 55q60 16 83 50l-6 2q-13 7 -19.5 20.5t-6.5 27.5t6.5 27.5t20 20t27.5 6.5t27.5 -6.5t20 -20t6.5 -27.5v-2v-1q0 -38 -20 -71.5t-53.5 -52.5t-70.5 -28zM225 -8q-31 0 -61 13t-50.5 37.5t-32.5 54t-16.5 60.5t-4.5 63v310h80v-310q0 -27 5 -53.5t18 -50
t36.5 -38t50.5 -14.5t50.5 14.5t36.5 38t18 50t5 53.5v310h80v-530h-80v76q-10 -18 -23 -34q-21 -24 -50.5 -37t-61.5 -13z" />
    <glyph glyph-name="uni01B1" unicode="&#x1b1;" 
d="M250 -8q-39 0 -76.5 14t-64.5 43.5t-38 68t-11 77.5v286q0 43 15 84.5t52 67.5q12 8 25 14v16h-92v72h152v-131h-4q-24 -1 -41 -23t-22 -48t-5 -52v-286q0 -24 6 -47.5t20.5 -43.5t37 -30t46.5 -10t46.5 10t37 30t20.5 43.5t6 47.5v286q0 26 -5 52t-22 48t-41 23h-4v131
h152v-72h-92v-16q13 -6 25 -14q37 -26 52 -67.5t15 -84.5v-286q0 -39 -11 -77.5t-38 -68t-64.5 -43.5t-76.5 -14z" />
    <glyph glyph-name="uni01B2" unicode="&#x1b2;" 
d="M250 -8q-39 0 -76.5 14t-64.5 43.5t-38 68t-11 77.5v540h80v-540q0 -24 6 -47.5t20.5 -43.5t37 -30t46.5 -10t46.5 10t37 30t20.5 43.5t6 47.5v349h80v-349q0 -39 -11 -77.5t-38 -68t-64.5 -43.5t-76.5 -14zM360 544q0 23 -6.5 45t-21.5 40t-37 26t-45 8v72
q38 0 74.5 -12t64 -39.5t39.5 -64.5t12 -75h-80z" />
    <glyph glyph-name="uni01B3" unicode="&#x1b3;" 
d="M210 0v287l-85 162q-65 123 -65 242v44h80v-44q0 -103 55 -209l49 -94l4 10l24 74l8 28l3 10l2 9l2 5l2 9l4 15q9 37 20 75t39 67t67 37t78 8v-72q-26 0 -51 -6.5t-40.5 -27.5t-21.5 -46t-13 -49l-2 -9l-3 -9l-2 -9l-1 -4l-3 -9l-2 -9q-7 -24 -14.5 -48.5t-16 -48.5
t-17.5 -47.5t-20 -46.5v-294h-80z" />
    <glyph glyph-name="uni01B4" unicode="&#x1b4;" 
d="M160 -205v7q0 60 12 95l37 108l-115 324q-34 97 -34 164v37h80v-37q0 -52 30 -140l79 -234l81 234q10 28 21 56t28.5 53t43 41.5t55.5 21.5t60 5v-72q-20 0 -40.5 -4t-36.5 -17.5t-25.5 -31.5t-16.5 -37t-13 -39l-158 -456q-8 -22 -8 -71v-7h-80z" />
    <glyph glyph-name="uni01B5" unicode="&#x1b5;" 
d="M60 0v72l288 591h-288v72h380v-72l-288 -591h288v-72h-380zM119 346v72h262v-72h-262z" />
    <glyph glyph-name="uni01B6" unicode="&#x1b6;" 
d="M60 0v72l284 386h-284v72h380v-72l-284 -386h284v-72h-380zM119 239v72h262v-72h-262z" />
    <glyph glyph-name="uni01B7" unicode="&#x1b7;" 
d="M248 0q-45 0 -87 18t-69.5 55.5t-36.5 81.5l76 22q5 -28 20.5 -53t42 -38.5t54.5 -13.5q27 0 52 12t40.5 34.5t21.5 49t6 53.5t-6 53t-21 48.5t-39.5 34.5t-51.5 12h-114v72l180 222h-256v72h352v-72l-180 -222h18q42 0 81.5 -15.5t66.5 -48.5t38.5 -73.5t11.5 -82.5
t-11 -83t-39 -74t-68 -48.5t-82 -15.5z" />
    <glyph glyph-name="uni01B8" unicode="&#x1b8;" 
d="M252 0q-42 0 -82 15.5t-68 48.5t-39 74t-11 83t11.5 82.5t38.5 73.5t66.5 48.5t81.5 15.5h18l-179 222v72h351v-72h-256l180 -222v-72h-114q-27 0 -51.5 -12t-39.5 -34.5t-21 -48.5t-6 -53t6 -53.5t21.5 -49t40.5 -34.5t52 -12q29 0 55 13.5t41.5 38.5t20.5 53l76 -22
q-9 -44 -36.5 -81.5t-69.5 -55.5t-87 -18z" />
    <glyph glyph-name="uni01B9" unicode="&#x1b9;" 
d="M252 -205q-42 0 -82 15.5t-68 48.5t-39 74t-11 83t11.5 82.5t38.5 73.5t66.5 48.5t81.5 15.5h18l-179 222v72h351v-72h-256l180 -222v-72h-114q-27 0 -51.5 -12t-39.5 -34.5t-21 -48.5t-6 -53t6 -53.5t21.5 -49t40.5 -34.5t52 -12q29 0 55 13.5t41.5 38.5t20.5 53l76 -22
q-9 -44 -36.5 -81.5t-69.5 -55.5t-87 -18z" />
    <glyph glyph-name="uni01BA" unicode="&#x1ba;" 
d="M212 -205q-28 0 -55.5 7t-50.5 23.5t-34.5 43t-11.5 54.5t11.5 54t34.5 43t50.5 24t55.5 7h19q23 0 46 4t44 14.5t34 30.5t13 44q0 21 -9.5 40.5t-27.5 31.5t-39 17t-42 5h-114v72l180 148h-256v72h352v-72l-180 -148h18q36 0 72 -9t66 -31t45 -56t15 -70v-1
q0 -30 -11.5 -59t-34.5 -50t-51.5 -33.5t-58.5 -17t-61 -4.5h-19q-17 0 -33.5 -5.5t-27.5 -19.5t-11 -31t11 -31.5t27.5 -19.5t33.5 -5h228v-72h-228z" />
    <glyph glyph-name="uni01BB" unicode="&#x1bb;" 
d="M60 0v1q0 55 7.5 109t35.5 102t68.5 85.5t83.5 71t76 79.5t33 101q0 32 -13.5 61.5t-42 45t-60.5 15.5q-28 0 -54.5 -13t-41.5 -38.5t-19 -53.5l-78 14q4 35 20.5 66.5t43.5 54t60.5 32.5t68.5 10q39 0 76.5 -12.5t65 -40.5t41 -65t13.5 -76q0 -46 -19.5 -90t-51 -78.5
t-67.5 -64t-70 -62t-58 -73t-31 -87.5q-2 -11 -3 -22h296v-72h-380zM30 346v72h440v-72h-440z" />
    <glyph glyph-name="uni01BC" unicode="&#x1bc;" 
d="M247 -8q-34 0 -67 11t-59 34t-42.5 53.5t-23.5 64.5l74 27q6 -30 20.5 -57.5t41 -44t56.5 -16.5t56 15.5t40 42t19.5 55.5t5.5 58.5t-5 58t-18.5 54.5t-39 42t-54.5 16q-26 0 -50 -13t-38.5 -36t-21.5 -49l-71 32v395h351v-72h-272v-213q11 7 23 12q38 16 79 16
q44 0 85 -19t66.5 -56t35.5 -80t10 -87.5t-10.5 -88.5t-36.5 -80.5t-67.5 -55.5t-86.5 -19z" />
    <glyph glyph-name="uni01BD" unicode="&#x1bd;" 
d="M251 -8q-47 0 -92.5 16.5t-74.5 57.5t-29 89l79 10v-4q0 -28 17 -52.5t44.5 -34.5t55.5 -10q23 0 44.5 6t39 20.5t25.5 35.5t8 43.5t-8 43.5t-25.5 35.5t-39 20.5t-43.5 6q-82 0 -110 -61l-72 31v285h351v-72h-272v-132q14 7 30 12q36 9 73 9t73.5 -10t65.5 -34.5t43 -60
t14 -73t-14 -73t-43 -60t-65.5 -34.5t-74.5 -10z" />
    <glyph glyph-name="uni01BE" unicode="&#x1be;" 
d="M248 -8q-47 0 -91.5 16t-73 55.5t-28.5 86.5v5l80 7v-3l-1 -3q0 -27 17 -50.5t43 -32.5t53 -9q28 0 54 8.5t42.5 32t16.5 50.5q0 35 -21.5 63.5t-48 50.5t-47.5 50q-14 20 -22 43h-76v72h65v17v79h80v-79q0 -9 1 -17h64v-72h-44q5 -10 13 -18q19 -22 40.5 -41t39 -41.5
t27 -50t9.5 -56.5q0 -36 -14.5 -69t-43.5 -55t-64 -30.5t-70 -8.5z" />
    <glyph glyph-name="uni01BF" unicode="&#x1bf;" 
d="M60 -205v735h80v-40q17 15 37 27q39 21 81 21q54 0 101 -31.5t68 -83t21 -106.5q0 -70 -33 -133.5t-78 -117t-95 -102.5l-10 -10l-7 -6l-4 -4l-7 -6l-74 -70v-73h-80zM140 -29l20 18l7 7l11 10q46 42 87 89t72 103t31 118q0 35 -11 69t-40 57.5t-64 23.5q-40 0 -72 -28
q-31 -27 -41 -63v-404z" />
    <glyph glyph-name="uni01C0" unicode="&#x1c0;" 
d="M210 -168v1066h80v-1066h-80z" />
    <glyph glyph-name="uni01C1" unicode="&#x1c1;" 
d="M123 -168v1066h80v-1066h-80zM297 -168v1066h80v-1066h-80z" />
    <glyph glyph-name="uni01C2" unicode="&#x1c2;" 
d="M60 418v72h380v-72h-380zM60 240v72h380v-72h-380zM210 -168v1066h80v-1066h-80z" />
    <glyph glyph-name="uni01C3" unicode="&#x1c3;" 
d="M250 -8q-19 0 -36.5 8.5t-25.5 26t-8 36.5q0 18 8 35.5t25.5 26t36.5 8.5t36.5 -8.5t26 -26t8.5 -35.5q0 -19 -8.5 -36.5t-26 -26t-36.5 -8.5zM210 260v475h80v-475h-80z" />
    <glyph glyph-name="uni01C4" unicode="&#x1c4;" 
d="M20 0v735l67 -1q24 -2 47 -13q29 -14 50 -42t33.5 -62t17 -71t4.5 -74v-209q0 -37 -4.5 -74t-17 -71t-33.5 -62t-50 -42q-23 -11 -47 -14h-67zM267 0v72l136 591h-136v72h213v-72l-136 -591h136v-72h-213zM87 73q18 4 34 19q22 19 33 48.5t15 60.5t4 62v209q0 31 -4 62
t-15 60.5t-33 48.5q-16 15 -34 19v-589zM346 778l-84 155l48 32l64 -131l63 131l48 -32l-84 -155h-55z" />
    <glyph glyph-name="uni01C5" unicode="&#x1c5;" 
d="M20 0v735l67 -1q24 -2 47 -13q29 -14 50 -42t33.5 -62t17 -71t4.5 -74v-209q0 -37 -4.5 -74t-17 -71t-33.5 -62t-50 -42q-23 -11 -47 -14h-67zM267 0v72l133 386h-133v72h213v-72l-133 -386h133v-72h-213zM87 73q18 4 34 19q22 19 33 48.5t15 60.5t4 62v209q0 31 -4 62
t-15 60.5t-33 48.5q-16 15 -34 19v-589zM346 573l-84 155l48 32l64 -131l63 131l48 -32l-84 -155h-55z" />
    <glyph glyph-name="uni01C6" unicode="&#x1c6;" 
d="M101 -8q-28 0 -47 30t-26.5 62.5t-10.5 67t-3 68.5v90q0 34 3 68.5t10.5 67t26.5 62.5t47 30t46 -31q11 -20 18 -40l1 -4v272h67v-735h-67v67q-7 -22 -19 -44q-18 -31 -46 -31zM267 0v72l133 386h-133v72h213v-72l-133 -386h133v-72h-213zM126 64q14 0 21.5 18t10.5 34.5
t5 34t2 34.5q1 13 1 26v108q0 13 -1 26q0 17 -2 34.5t-5 34t-10.5 34.5t-21.5 18q-15 0 -23.5 -17t-12.5 -34t-6 -34.5t-3 -35t-1 -35.5v-90q0 -18 1 -35.5t3 -35t6 -34.5t12.5 -34t23.5 -17zM346 573l-84 155l48 32l64 -131l63 131l48 -32l-84 -155h-55z" />
    <glyph glyph-name="uni01C7" unicode="&#x1c7;" 
d="M355 -8q-24 0 -44.5 15t-33 40t-19 52.5t-7.5 55.5l63 22q1 -17 3 -33.5t5 -32t11 -31.5t22 -16q15 0 22.5 19.5t10.5 37.5t4.5 36.5t1.5 37.5v468h-76v72h142v-540q0 -33 -4.5 -66.5t-15.5 -64t-34.5 -51.5t-50.5 -21zM45 0v735h67v-663h127v-72h-194z" />
    <glyph glyph-name="uni01C8" unicode="&#x1c8;" 
d="M342 -213q-23 0 -44 11.5t-35.5 32.5t-22.5 46.5t-12 52.5l61 28q2 -21 7 -41.5t16.5 -39t29.5 -18.5q22 0 33 26.5t14.5 52.5t3.5 52v468h-76v72h142v-540q0 -35 -5 -69t-19 -65t-39 -50t-54 -19zM45 0v735h67v-663h127v-72h-194zM415 623q-14 0 -27 7t-19 22.5t-6 32.5
t6 32.5t19 23t27 7.5t26.5 -7.5t19 -23t6.5 -32.5t-6.5 -32.5t-19 -22.5t-26.5 -7z" />
    <glyph glyph-name="uni01C9" unicode="&#x1c9;" 
d="M342 -213q-23 0 -44 11.5t-35.5 32.5t-22.5 46.5t-12 52.5l61 28q2 -21 7 -41.5t16.5 -39t29.5 -18.5q22 0 33 26.5t14.5 52.5t3.5 52v468h-76v72h142v-540q0 -35 -5 -69t-19 -65t-39 -50t-54 -19zM109 0v663h-76v72h142v-735h-66zM415 623q-14 0 -27 7t-19 22.5t-6 32.5
t6 32.5t19 23t27 7.5t26.5 -7.5t19 -23t6.5 -32.5t-6.5 -32.5t-19 -22.5t-26.5 -7z" />
    <glyph glyph-name="uni01CA" unicode="&#x1ca;" 
d="M355 -8q-24 0 -44.5 15t-33 40t-19 52.5t-7.5 55.5l63 22q1 -17 3 -33.5t5 -32t11 -31.5t22 -16q15 0 22.5 19.5t10.5 37.5t4.5 36.5t1.5 37.5v468h-76v72h142v-540q0 -33 -4.5 -66.5t-15.5 -64t-34.5 -51.5t-50.5 -21zM20 0v735h20h42l100 -559q-2 22 -4 45
q-12 109 -12 220v294h67v-735h-19h-43l-101 567q2 -26 5 -53q12 -109 12 -220v-294h-67z" />
    <glyph glyph-name="uni01CB" unicode="&#x1cb;" 
d="M342 -213q-23 0 -44 11.5t-35.5 32.5t-22.5 46.5t-12 52.5l61 28q2 -21 7 -41.5t16.5 -39t29.5 -18.5q22 0 33 26.5t14.5 52.5t3.5 52v468h-76v72h142v-540q0 -35 -5 -69t-19 -65t-39 -50t-54 -19zM20 0v735h20h42l100 -559q-2 22 -4 45q-12 109 -12 220v294h67v-735h-19
h-43l-101 567q2 -26 5 -53q12 -109 12 -220v-294h-67zM415 623q-14 0 -27 7t-19 22.5t-6 32.5t6 32.5t19 23t27 7.5t26.5 -7.5t19 -23t6.5 -32.5t-6.5 -32.5t-19 -22.5t-26.5 -7z" />
    <glyph glyph-name="uni01CC" unicode="&#x1cc;" 
d="M342 -213q-23 0 -44 11.5t-35.5 32.5t-22.5 46.5t-12 52.5l61 28q2 -21 7 -41.5t16.5 -39t29.5 -18.5q22 0 33 26.5t14.5 52.5t3.5 52v468h-76v72h142v-540q0 -35 -5 -69t-19 -65t-39 -50t-54 -19zM20 0v530h67v-68q7 23 19 45q17 31 45 31q29 0 46 -31t23.5 -63.5
t9.5 -66t3 -67.5v-310h-67v310q0 17 -0.5 34.5t-2.5 34.5t-5 33.5t-10 35t-21 18.5q-15 0 -22 -18.5t-10 -35t-5 -33.5t-2.5 -34.5t-0.5 -34.5v-310h-67zM415 623q-14 0 -27 7t-19 22.5t-6 32.5t6 32.5t19 23t27 7.5t26.5 -7.5t19 -23t6.5 -32.5t-6.5 -32.5t-19 -22.5
t-26.5 -7z" />
    <glyph glyph-name="uni01CD" unicode="&#x1cd;" 
d="M60 0v74q0 199 144 661h92q144 -462 144 -661v-74h-80v74q0 50 -9 119h-202q-9 -69 -9 -119v-74h-80zM159 265h182q-27 161 -91 398q-64 -237 -91 -398zM206 774l-130 150l69 50l105 -141l105 141l69 -50l-130 -150h-88z" />
    <glyph glyph-name="uni01CE" unicode="&#x1ce;" 
d="M206 569l-130 150l69 50l105 -141l105 141l69 -50l-130 -150h-88zM206 -8q-31 0 -61 10t-52 33t-31.5 53t-9.5 61t11 60.5t34 51t51.5 34t59 17.5t61.5 5h91v46q0 22 -8 42.5t-24.5 34.5t-37.5 20t-43 6q-25 0 -50 -8.5t-42 -29.5t-20 -46l-77 18q6 42 35 76.5t70.5 48
t83.5 13.5q37 0 73 -10t64.5 -34t42 -59t13.5 -72v-363h-80v75q-7 -12 -16 -23q-25 -30 -62 -45t-76 -15zM231.5 64q25.5 0 50.5 9t43.5 28.5t26.5 45t8 51.5v47h-91q-23 0 -46.5 -4t-44.5 -15.5t-33.5 -32t-12.5 -44.5t13.5 -46t37 -30.5t49 -8.5z" />
    <glyph glyph-name="uni01CF" unicode="&#x1cf;" 
d="M75 0v72h135v591h-135v72h350v-72h-135v-591h135v-72h-350zM206 774l-130 150l69 50l105 -141l105 141l69 -50l-130 -150h-88z" />
    <glyph glyph-name="uni01D0" unicode="&#x1d0;" 
d="M206 569l-130 150l69 50l105 -141l105 141l69 -50l-130 -150h-88zM235 0v458h-136l1 72h214v-530h-79z" />
    <glyph glyph-name="uni01D1" unicode="&#x1d1;" 
d="M206 774l-130 150l69 50l105 -141l105 141l69 -50l-130 -150h-88zM250 -8q-40 0 -78.5 13t-67 42.5t-40.5 68.5t-12 79v345q0 40 12 79t40.5 68.5t67 42.5t78.5 13t78.5 -13t67 -42.5t40.5 -68.5t12 -79v-345q0 -40 -12 -79t-40.5 -68.5t-67 -42.5t-78.5 -13zM250 64
q25 0 48.5 9.5t40 29t23 43.5t6.5 49v345q0 25 -6.5 49t-23 43.5t-40 29t-48.5 9.5t-48.5 -9.5t-40 -29t-23 -43.5t-6.5 -49v-345q0 -25 6.5 -49t23 -43.5t40 -29t48.5 -9.5z" />
    <glyph glyph-name="uni01D2" unicode="&#x1d2;" 
d="M206 569l-130 150l69 50l105 -141l105 141l69 -50l-130 -150h-88zM250 -8q-43 0 -83 17t-66.5 51t-37.5 75.5t-11 84.5v90q0 43 11 84.5t37.5 75.5t66.5 51t83 17t83 -17t66.5 -51t37.5 -75.5t11 -84.5v-90q0 -43 -11 -84.5t-37.5 -75.5t-66.5 -51t-83 -17zM250 64
q28 0 52.5 13.5t39.5 37t20.5 50.5t5.5 55v90q0 28 -5.5 55t-20.5 50.5t-39.5 37t-52.5 13.5t-52.5 -13.5t-39.5 -37t-20.5 -50.5t-5.5 -55v-90q0 -28 5.5 -55t20.5 -50.5t39.5 -37t52.5 -13.5z" />
    <glyph glyph-name="uni01D3" unicode="&#x1d3;" 
d="M206 774l-130 150l69 50l105 -141l105 141l69 -50l-130 -150h-88zM250 -8q-39 0 -76.5 14t-64.5 43.5t-38 68t-11 77.5v540h80v-540q0 -24 6 -47.5t20.5 -43.5t37 -30t46.5 -10t46.5 10t37 30t20.5 43.5t6 47.5v540h80v-540q0 -39 -11 -77.5t-38 -68t-64.5 -43.5
t-76.5 -14z" />
    <glyph glyph-name="uni01D4" unicode="&#x1d4;" 
d="M206 569l-130 150l69 50l105 -141l105 141l69 -50l-130 -150h-88zM225 -8q-31 0 -61 13t-50.5 37.5t-32.5 54t-16.5 60.5t-4.5 63v310h80v-310q0 -27 5 -53.5t18 -50t36.5 -38t50.5 -14.5t50.5 14.5t36.5 38t18 50t5 53.5v310h80v-530h-80v76q-10 -18 -23 -34
q-21 -24 -50.5 -37t-61.5 -13z" />
    <glyph glyph-name="uni01D5" unicode="&#x1d5;" 
d="M150 828q-17 0 -32.5 7t-23 22.5t-6.5 32.5q-1 17 6.5 32.5t23 23t32.5 7.5t32.5 -7.5t22.5 -23t8 -32.5q-1 -17 -8 -32.5t-22.5 -22.5t-32.5 -7zM350 828q-17 0 -32.5 7t-23 22.5t-6.5 32.5q-1 17 6.5 32.5t23 23t32.5 7.5t32.5 -7.5t22.5 -23t8 -32.5q-1 -17 -8 -32.5
t-22.5 -22.5t-32.5 -7zM250 -8q-39 0 -76.5 14t-64.5 43.5t-38 68t-11 77.5v540h80v-540q0 -24 6 -47.5t20.5 -43.5t37 -30t46.5 -10t46.5 10t37 30t20.5 43.5t6 47.5v540h80v-540q0 -39 -11 -77.5t-38 -68t-64.5 -43.5t-76.5 -14zM100 1067v72h300v-72h-300z" />
    <glyph glyph-name="uni01D6" unicode="&#x1d6;" 
d="M150 623q-17 0 -32.5 7t-23 22.5t-6.5 32.5q-1 17 6.5 32.5t23 23t32.5 7.5t32.5 -7.5t22.5 -23t8 -32.5q-1 -17 -8 -32.5t-22.5 -22.5t-32.5 -7zM350 623q-17 0 -32.5 7t-23 22.5t-6.5 32.5q-1 17 6.5 32.5t23 23t32.5 7.5t32.5 -7.5t22.5 -23t8 -32.5q-1 -17 -8 -32.5
t-22.5 -22.5t-32.5 -7zM225 -8q-31 0 -61 13t-50.5 37.5t-32.5 54t-16.5 60.5t-4.5 63v310h80v-310q0 -27 5 -53.5t18 -50t36.5 -38t50.5 -14.5t50.5 14.5t36.5 38t18 50t5 53.5v310h80v-530h-80v76q-10 -18 -23 -34q-21 -24 -50.5 -37t-61.5 -13zM100 862v72h300v-72h-300z
" />
    <glyph glyph-name="uni01D7" unicode="&#x1d7;" 
d="M150 828q-17 0 -32.5 7t-23 22.5t-6.5 32.5q-1 17 6.5 32.5t23 23t32.5 7.5t32.5 -7.5t22.5 -23t8 -32.5q-1 -17 -8 -32.5t-22.5 -22.5t-32.5 -7zM350 828q-17 0 -32.5 7t-23 22.5t-6.5 32.5q-1 17 6.5 32.5t23 23t32.5 7.5t32.5 -7.5t22.5 -23t8 -32.5q-1 -17 -8 -32.5
t-22.5 -22.5t-32.5 -7zM238 981l-55 43l134 164l66 -52zM250 -8q-39 0 -76.5 14t-64.5 43.5t-38 68t-11 77.5v540h80v-540q0 -24 6 -47.5t20.5 -43.5t37 -30t46.5 -10t46.5 10t37 30t20.5 43.5t6 47.5v540h80v-540q0 -39 -11 -77.5t-38 -68t-64.5 -43.5t-76.5 -14z" />
    <glyph glyph-name="uni01D8" unicode="&#x1d8;" 
d="M150 623q-17 0 -32.5 7t-23 22.5t-6.5 32.5q-1 17 6.5 32.5t23 23t32.5 7.5t32.5 -7.5t22.5 -23t8 -32.5q-1 -17 -8 -32.5t-22.5 -22.5t-32.5 -7zM350 623q-17 0 -32.5 7t-23 22.5t-6.5 32.5q-1 17 6.5 32.5t23 23t32.5 7.5t32.5 -7.5t22.5 -23t8 -32.5q-1 -17 -8 -32.5
t-22.5 -22.5t-32.5 -7zM225 -8q-31 0 -61 13t-50.5 37.5t-32.5 54t-16.5 60.5t-4.5 63v310h80v-310q0 -27 5 -53.5t18 -50t36.5 -38t50.5 -14.5t50.5 14.5t36.5 38t18 50t5 53.5v310h80v-530h-80v76q-10 -18 -23 -34q-21 -24 -50.5 -37t-61.5 -13zM238 776l-55 43l134 164
l66 -52z" />
    <glyph glyph-name="uni01D9" unicode="&#x1d9;" 
d="M150 828q-17 0 -32.5 7t-23 22.5t-6.5 32.5q-1 17 6.5 32.5t23 23t32.5 7.5t32.5 -7.5t22.5 -23t8 -32.5q-1 -17 -8 -32.5t-22.5 -22.5t-32.5 -7zM350 828q-17 0 -32.5 7t-23 22.5t-6.5 32.5q-1 17 6.5 32.5t23 23t32.5 7.5t32.5 -7.5t22.5 -23t8 -32.5q-1 -17 -8 -32.5
t-22.5 -22.5t-32.5 -7zM250 -8q-39 0 -76.5 14t-64.5 43.5t-38 68t-11 77.5v540h80v-540q0 -24 6 -47.5t20.5 -43.5t37 -30t46.5 -10t46.5 10t37 30t20.5 43.5t6 47.5v540h80v-540q0 -39 -11 -77.5t-38 -68t-64.5 -43.5t-76.5 -14zM206 987l-130 150l69 50l105 -141l105 141
l69 -50l-130 -150h-88z" />
    <glyph glyph-name="uni01DA" unicode="&#x1da;" 
d="M150 623q-17 0 -32.5 7t-23 22.5t-6.5 32.5q-1 17 6.5 32.5t23 23t32.5 7.5t32.5 -7.5t22.5 -23t8 -32.5q-1 -17 -8 -32.5t-22.5 -22.5t-32.5 -7zM350 623q-17 0 -32.5 7t-23 22.5t-6.5 32.5q-1 17 6.5 32.5t23 23t32.5 7.5t32.5 -7.5t22.5 -23t8 -32.5q-1 -17 -8 -32.5
t-22.5 -22.5t-32.5 -7zM225 -8q-31 0 -61 13t-50.5 37.5t-32.5 54t-16.5 60.5t-4.5 63v310h80v-310q0 -27 5 -53.5t18 -50t36.5 -38t50.5 -14.5t50.5 14.5t36.5 38t18 50t5 53.5v310h80v-530h-80v76q-10 -18 -23 -34q-21 -24 -50.5 -37t-61.5 -13zM206 782l-130 150l69 50
l105 -141l105 141l69 -50l-130 -150h-88z" />
    <glyph glyph-name="uni01DB" unicode="&#x1db;" 
d="M150 828q-17 0 -32.5 7t-23 22.5t-6.5 32.5q-1 17 6.5 32.5t23 23t32.5 7.5t32.5 -7.5t22.5 -23t8 -32.5q-1 -17 -8 -32.5t-22.5 -22.5t-32.5 -7zM350 828q-17 0 -32.5 7t-23 22.5t-6.5 32.5q-1 17 6.5 32.5t23 23t32.5 7.5t32.5 -7.5t22.5 -23t8 -32.5q-1 -17 -8 -32.5
t-22.5 -22.5t-32.5 -7zM250 -8q-39 0 -76.5 14t-64.5 43.5t-38 68t-11 77.5v540h80v-540q0 -24 6 -47.5t20.5 -43.5t37 -30t46.5 -10t46.5 10t37 30t20.5 43.5t6 47.5v540h80v-540q0 -39 -11 -77.5t-38 -68t-64.5 -43.5t-76.5 -14zM262 981l-145 155l66 52l134 -164z" />
    <glyph glyph-name="uni01DC" unicode="&#x1dc;" 
d="M150 623q-17 0 -32.5 7t-23 22.5t-6.5 32.5q-1 17 6.5 32.5t23 23t32.5 7.5t32.5 -7.5t22.5 -23t8 -32.5q-1 -17 -8 -32.5t-22.5 -22.5t-32.5 -7zM350 623q-17 0 -32.5 7t-23 22.5t-6.5 32.5q-1 17 6.5 32.5t23 23t32.5 7.5t32.5 -7.5t22.5 -23t8 -32.5q-1 -17 -8 -32.5
t-22.5 -22.5t-32.5 -7zM225 -8q-31 0 -61 13t-50.5 37.5t-32.5 54t-16.5 60.5t-4.5 63v310h80v-310q0 -27 5 -53.5t18 -50t36.5 -38t50.5 -14.5t50.5 14.5t36.5 38t18 50t5 53.5v310h80v-530h-80v76q-10 -18 -23 -34q-21 -24 -50.5 -37t-61.5 -13zM262 776l-145 155l66 52
l134 -164z" />
    <glyph glyph-name="uni01DD" unicode="&#x1dd;" 
d="M250 -8q-43 0 -83 17t-66.5 51t-37.5 75.5t-11 84.5v81h316v9q0 28 -6.5 56t-22.5 51.5t-42 36t-54 12.5q-27 0 -52.5 -11.5t-42 -34.5t-24.5 -49l-73 29q13 41 41 74t68.5 48.5t82.5 15.5q44 0 85 -16t69 -50t39.5 -76.5t11.5 -85.5v-90q0 -43 -11 -84.5t-37.5 -75.5
t-66.5 -51t-83 -17zM250 64q28 0 52.5 13.5t39.5 37t20.5 50.5t5.5 55v9h-236v-9q0 -28 5.5 -55t20.5 -50.5t39.5 -37t52.5 -13.5z" />
    <glyph glyph-name="uni01DE" unicode="&#x1de;" 
d="M60 0v74q0 199 144 661h92q144 -462 144 -661v-74h-80v74q0 50 -9 119h-202q-9 -69 -9 -119v-74h-80zM159 265h182q-27 161 -91 398q-64 -237 -91 -398zM150 828q-17 0 -32.5 7t-23 22.5t-6.5 32.5q-1 17 6.5 32.5t23 23t32.5 7.5t32.5 -7.5t22.5 -23t8 -32.5
q-1 -17 -8 -32.5t-22.5 -22.5t-32.5 -7zM350 828q-17 0 -32.5 7t-23 22.5t-6.5 32.5q-1 17 6.5 32.5t23 23t32.5 7.5t32.5 -7.5t22.5 -23t8 -32.5q-1 -17 -8 -32.5t-22.5 -22.5t-32.5 -7zM100 1067v72h300v-72h-300z" />
    <glyph glyph-name="uni01DF" unicode="&#x1df;" 
d="M150 623q-17 0 -32.5 7t-23 22.5t-6.5 32.5q-1 17 6.5 32.5t23 23t32.5 7.5t32.5 -7.5t22.5 -23t8 -32.5q-1 -17 -8 -32.5t-22.5 -22.5t-32.5 -7zM350 623q-17 0 -32.5 7t-23 22.5t-6.5 32.5q-1 17 6.5 32.5t23 23t32.5 7.5t32.5 -7.5t22.5 -23t8 -32.5q-1 -17 -8 -32.5
t-22.5 -22.5t-32.5 -7zM206 -8q-31 0 -61 10t-52 33t-31.5 53t-9.5 61t11 60.5t34 51t51.5 34t59 17.5t61.5 5h91v46q0 22 -8 42.5t-24.5 34.5t-37.5 20t-43 6q-25 0 -50 -8.5t-42 -29.5t-20 -46l-77 18q6 42 35 76.5t70.5 48t83.5 13.5q37 0 73 -10t64.5 -34t42 -59
t13.5 -72v-363h-80v75q-7 -12 -16 -23q-25 -30 -62 -45t-76 -15zM231.5 64q25.5 0 50.5 9t43.5 28.5t26.5 45t8 51.5v47h-91q-23 0 -46.5 -4t-44.5 -15.5t-33.5 -32t-12.5 -44.5t13.5 -46t37 -30.5t49 -8.5zM100 862v72h300v-72h-300z" />
    <glyph glyph-name="uni01E0" unicode="&#x1e0;" 
d="M60 0v74q0 199 144 661h92q144 -462 144 -661v-74h-80v74q0 50 -9 119h-202q-9 -69 -9 -119v-74h-80zM159 265h182q-27 161 -91 398q-64 -237 -91 -398zM250 828q-17 0 -32.5 7t-23 22.5t-6.5 32.5q-1 17 6.5 32.5t23 23t32.5 7.5t32.5 -7.5t22.5 -23t8 -32.5
q-1 -17 -8 -32.5t-22.5 -22.5t-32.5 -7zM100 1067v72h300v-72h-300z" />
    <glyph glyph-name="uni01E1" unicode="&#x1e1;" 
d="M206 -8q-31 0 -61 10t-52 33t-31.5 53t-9.5 61t11 60.5t34 51t51.5 34t59 17.5t61.5 5h91v46q0 22 -8 42.5t-24.5 34.5t-37.5 20t-43 6q-25 0 -50 -8.5t-42 -29.5t-20 -46l-77 18q6 42 35 76.5t70.5 48t83.5 13.5q37 0 73 -10t64.5 -34t42 -59t13.5 -72v-363h-80v75
q-7 -12 -16 -23q-25 -30 -62 -45t-76 -15zM231.5 64q25.5 0 50.5 9t43.5 28.5t26.5 45t8 51.5v47h-91q-23 0 -46.5 -4t-44.5 -15.5t-33.5 -32t-12.5 -44.5t13.5 -46t37 -30.5t49 -8.5zM250 623q-17 0 -32.5 7t-23 22.5t-6.5 32.5q-1 17 6.5 32.5t23 23t32.5 7.5t32.5 -7.5
t22.5 -23t8 -32.5q-1 -17 -8 -32.5t-22.5 -22.5t-32.5 -7zM100 862v72h300v-72h-300z" />
    <glyph glyph-name="uni01E2" unicode="&#x1e2;" 
d="M47 0v74q0 200 149 661h257v-72h-141v-230h123v-72h-123v-289h141v-72h-221v193h-96q-9 -68 -9 -119v-74h-80zM147 265h85v364q-59 -215 -85 -364zM100 854v72h300v-72h-300z" />
    <glyph glyph-name="uni01E3" unicode="&#x1e3;" 
d="M161 -8q-28 0 -54.5 11t-43.5 33.5t-24.5 50t-7.5 55.5q0 36 12.5 70.5t40 59t62.5 35.5q32 9 64 10v81q0 16 -4 31t-16 26t-28 11q-15 0 -27 -10.5t-16.5 -25t-4.5 -31.5l-80 1v4q0 26 8.5 51t26 45t42.5 29t51 9q27 0 52 -10q21 -8 36 -23q16 16 37 23q25 10 52 10
t53 -9.5t44 -30.5t25.5 -47t7.5 -53v-169h-179v-97q0 -16 4.5 -31.5t18 -26t29.5 -10.5t28.5 10t18 25t5.5 32l80 -1v-4q0 -35 -16 -68t-48.5 -49.5t-67.5 -16.5q-27 0 -53 9q-22 8 -39 24q-15 -15 -36 -23q-26 -10 -53 -10zM161 64q16 0 28.5 11t16.5 26t4 31v113
q-17 -1 -34 -6q-20 -7 -35.5 -21.5t-22.5 -35t-7 -41.5q0 -17 4 -33.5t16.5 -30t29.5 -13.5zM290 301h99v97q0 16 -4.5 31.5t-17 26t-28.5 10.5q-15 0 -27.5 -10.5t-17 -26t-4.5 -31.5v-97zM100 649v72h300v-72h-300z" />
    <glyph glyph-name="uni01E4" unicode="&#x1e4;" 
d="M249 -8q-40 0 -78 13.5t-66.5 43t-40.5 68t-12 78.5v345q0 40 12 79t40.5 68.5t67 42.5t78.5 13q47 0 91 -18.5t71 -58.5t33 -86l-78 -14q-4 28 -19.5 54t-42 38.5t-55.5 12.5q-25 0 -48.5 -9.5t-40 -29t-23 -43.5t-6.5 -49v-345q0 -25 6.5 -49t22.5 -43.5t39.5 -29
t48.5 -9.5q24 0 47 10t37.5 29.5t20.5 43.5q2 10 4 19h-108v72h110v90h-110v72h190v-162h42v-72h-43q-3 -24 -10 -49q-11 -38 -38 -68t-64.5 -43.5t-77.5 -13.5z" />
    <glyph glyph-name="uni01E5" unicode="&#x1e5;" 
d="M238 -213q-39 0 -76 13t-64.5 41t-42.5 64l72 32q8 -22 24.5 -41t39 -28t47.5 -9q28 0 53.5 13t41 36.5t21.5 51t6 55.5v61q-10 -18 -23 -34q-21 -25 -51 -37.5t-61 -12.5q-41 0 -77 19.5t-57.5 54.5t-30 74.5t-8.5 79.5v9h-34v72h34v9q0 40 8.5 79.5t30 74.5t57.5 54.5
t77 19.5q31 0 61 -12.5t51 -37.5q13 -16 23 -34v76h80v-229h42v-72h-42v-214q0 -43 -11.5 -85t-39 -76t-68 -50.5t-83.5 -16.5zM249 64q27 0 51 14t37 38t18 50.5t5 53.5v9h-228v-9q0 -27 5.5 -54t20 -51t39.5 -37.5t52 -13.5zM390 215v4v-4zM132 301h228v9q0 27 -5 53.5
t-18 50.5t-37 38t-51 14t-52 -13.5t-39.5 -37.5t-20 -51t-5.5 -54v-9z" />
    <glyph glyph-name="Gcaron" unicode="&#x1e6;" 
d="M206 774l-130 150l69 50l105 -141l105 141l69 -50l-130 -150h-88zM249 -8q-40 0 -78 13.5t-66.5 43t-40.5 68t-12 78.5v345q0 40 12 79t40.5 68.5t67 42.5t78.5 13q47 0 91 -18.5t71 -58.5t33 -86l-78 -14q-4 28 -19.5 54t-42 38.5t-55.5 12.5q-25 0 -48.5 -9.5t-40 -29
t-23 -43.5t-6.5 -49v-345q0 -25 6.5 -49t22.5 -43.5t39.5 -29t48.5 -9.5q24 0 47 10t37.5 29.5t20.5 43.5t6 48v133h-110v72h190v-205q0 -39 -11 -77.5t-38 -68.5t-64.5 -43.5t-77.5 -13.5z" />
    <glyph glyph-name="gcaron" unicode="&#x1e7;" 
d="M206 569l-130 150l69 50l105 -141l105 141l69 -50l-130 -150h-88zM238 -213q-39 0 -76 13t-64.5 41t-42.5 64l72 32q8 -22 24.5 -41t39 -28t47.5 -9q28 0 53.5 13t41 36.5t21.5 51t6 55.5v61q-10 -18 -23 -34q-21 -25 -51 -37.5t-61 -12.5q-41 0 -77 19.5t-57.5 54.5
t-30 74.5t-8.5 79.5v90q0 40 8.5 79.5t30 74.5t57.5 54.5t77 19.5q31 0 61 -12.5t51 -37.5q13 -16 23 -34v76h80v-515q0 -43 -11.5 -85t-39 -76t-68 -50.5t-83.5 -16.5zM249 64q27 0 51 14t37 38t18 50.5t5 53.5v90q0 27 -5 53.5t-18 50.5t-37 38t-51 14t-52 -13.5
t-39.5 -37.5t-20 -51t-5.5 -54v-90q0 -27 5.5 -54t20 -51t39.5 -37.5t52 -13.5zM390 215v4v-4z" />
    <glyph glyph-name="uni01E8" unicode="&#x1e8;" 
d="M60 0v735h80v-340q10 11 20 23q21 23 41 47.5t39 49.5t37 51t34 53t30.5 55.5t14.5 60.5h84q0 -35 -16 -67.5t-33 -62.5t-37 -59t-41 -57l-24 -32q159 -341 159 -457h-80q0 102 -134 390l-8 -11l-46 -52q-20 -22 -40 -43v-284h-80zM206 774l-130 150l69 50l105 -141
l105 141l69 -50l-130 -150h-88z" />
    <glyph glyph-name="uni01E9" unicode="&#x1e9;" 
d="M60 0v735h80v-438l14 11q17 13 34 27t33.5 28.5t32.5 29t31.5 30t29 32t27.5 35t14 40.5h84q0 -26 -15 -48t-31 -42t-33 -38.5t-35 -36t-35 -34.5q157 -247 157 -331h-80q0 72 -135 280q-11 -9 -21 -18l-40 -32q-16 -13 -32 -25v-205h-80zM206 774l-130 150l69 50
l105 -141l105 141l69 -50l-130 -150h-88z" />
    <glyph glyph-name="uni01EA" unicode="&#x1ea;" 
d="M275 -174q-34 0 -67.5 5.5t-58 31.5t-24.5 60q0 30 19.5 54.5t47.5 35t58 10.5v-31q-18 0 -32.5 -12.5t-14.5 -29.5q0 -45 72 -45h60v-79h-60zM250 -8q-40 0 -78.5 13t-67 42.5t-40.5 68.5t-12 79v345q0 40 12 79t40.5 68.5t67 42.5t78.5 13t78.5 -13t67 -42.5
t40.5 -68.5t12 -79v-345q0 -40 -12 -79t-40.5 -68.5t-67 -42.5t-78.5 -13zM250 64q25 0 48.5 9.5t40 29t23 43.5t6.5 49v345q0 25 -6.5 49t-23 43.5t-40 29t-48.5 9.5t-48.5 -9.5t-40 -29t-23 -43.5t-6.5 -49v-345q0 -25 6.5 -49t23 -43.5t40 -29t48.5 -9.5z" />
    <glyph glyph-name="uni01EB" unicode="&#x1eb;" 
d="M275 -174q-34 0 -67.5 5.5t-58 31.5t-24.5 60q0 30 19.5 54.5t47.5 35t58 10.5v-31q-18 0 -32.5 -12.5t-14.5 -29.5q0 -45 72 -45h60v-79h-60zM250 -8q-43 0 -83 17t-66.5 51t-37.5 75.5t-11 84.5v90q0 43 11 84.5t37.5 75.5t66.5 51t83 17t83 -17t66.5 -51t37.5 -75.5
t11 -84.5v-90q0 -43 -11 -84.5t-37.5 -75.5t-66.5 -51t-83 -17zM250 64q28 0 52.5 13.5t39.5 37t20.5 50.5t5.5 55v90q0 28 -5.5 55t-20.5 50.5t-39.5 37t-52.5 13.5t-52.5 -13.5t-39.5 -37t-20.5 -50.5t-5.5 -55v-90q0 -28 5.5 -55t20.5 -50.5t39.5 -37t52.5 -13.5z" />
    <glyph glyph-name="uni01EC" unicode="&#x1ec;" 
d="M275 -174q-34 0 -67.5 5.5t-58 31.5t-24.5 60q0 30 19.5 54.5t47.5 35t58 10.5v-31q-18 0 -32.5 -12.5t-14.5 -29.5q0 -45 72 -45h60v-79h-60zM250 -8q-40 0 -78.5 13t-67 42.5t-40.5 68.5t-12 79v345q0 40 12 79t40.5 68.5t67 42.5t78.5 13t78.5 -13t67 -42.5
t40.5 -68.5t12 -79v-345q0 -40 -12 -79t-40.5 -68.5t-67 -42.5t-78.5 -13zM250 64q25 0 48.5 9.5t40 29t23 43.5t6.5 49v345q0 25 -6.5 49t-23 43.5t-40 29t-48.5 9.5t-48.5 -9.5t-40 -29t-23 -43.5t-6.5 -49v-345q0 -25 6.5 -49t23 -43.5t40 -29t48.5 -9.5zM100 854v72h300
v-72h-300z" />
    <glyph glyph-name="uni01ED" unicode="&#x1ed;" 
d="M275 -174q-34 0 -67.5 5.5t-58 31.5t-24.5 60q0 30 19.5 54.5t47.5 35t58 10.5v-31q-18 0 -32.5 -12.5t-14.5 -29.5q0 -45 72 -45h60v-79h-60zM250 -8q-43 0 -83 17t-66.5 51t-37.5 75.5t-11 84.5v90q0 43 11 84.5t37.5 75.5t66.5 51t83 17t83 -17t66.5 -51t37.5 -75.5
t11 -84.5v-90q0 -43 -11 -84.5t-37.5 -75.5t-66.5 -51t-83 -17zM250 64q28 0 52.5 13.5t39.5 37t20.5 50.5t5.5 55v90q0 28 -5.5 55t-20.5 50.5t-39.5 37t-52.5 13.5t-52.5 -13.5t-39.5 -37t-20.5 -50.5t-5.5 -55v-90q0 -28 5.5 -55t20.5 -50.5t39.5 -37t52.5 -13.5z
M100 649v72h300v-72h-300z" />
    <glyph glyph-name="uni01EE" unicode="&#x1ee;" 
d="M248 0q-45 0 -87 18t-69.5 55.5t-36.5 81.5l76 22q5 -28 20.5 -53t42 -38.5t54.5 -13.5q27 0 52 12t40.5 34.5t21.5 49t6 53.5t-6 53t-21 48.5t-39.5 34.5t-51.5 12h-114v72l180 222h-256v72h352v-72l-180 -222h18q42 0 81.5 -15.5t66.5 -48.5t38.5 -73.5t11.5 -82.5
t-11 -83t-39 -74t-68 -48.5t-82 -15.5zM206 774l-130 150l69 50l105 -141l105 141l69 -50l-130 -150h-88z" />
    <glyph glyph-name="uni01EF" unicode="&#x1ef;" 
d="M248 -205q-45 0 -87 18t-69.5 55.5t-36.5 81.5l76 22q5 -28 20.5 -53t42 -38.5t54.5 -13.5q27 0 52 12t40.5 34.5t21.5 49t6 53.5t-6 53t-21 48.5t-39.5 34.5t-51.5 12h-114v72l180 222h-256v72h352v-72l-180 -222h18q42 0 81.5 -15.5t66.5 -48.5t38.5 -73.5t11.5 -82.5
t-11 -83t-39 -74t-68 -48.5t-82 -15.5zM206 569l-130 150l69 50l105 -141l105 141l69 -50l-130 -150h-88z" />
    <glyph glyph-name="uni01F0" unicode="&#x1f0;" 
d="M255 569l-130 150l69 50l105 -141l105 141l69 -50l-130 -150h-88zM180 -213q-40 0 -77 17.5t-59.5 52t-30.5 73.5l76 24q3 -24 14 -46t32 -35.5t45 -13.5q23 0 43 12t31 32t15 42t4 45v468h-135v72h215v-540q0 -38 -9.5 -74.5t-32.5 -67.5t-58 -46t-73 -15z" />
    <glyph glyph-name="uni01F1" unicode="&#x1f1;" 
d="M20 0v735l67 -1q24 -2 47 -13q29 -14 50 -42t33.5 -62t17 -71t4.5 -74v-209q0 -37 -4.5 -74t-17 -71t-33.5 -62t-50 -42q-23 -11 -47 -14h-67zM267 0v72l136 591h-136v72h213v-72l-136 -591h136v-72h-213zM87 73q18 4 34 19q22 19 33 48.5t15 60.5t4 62v209q0 31 -4 62
t-15 60.5t-33 48.5q-16 15 -34 19v-589z" />
    <glyph glyph-name="uni01F2" unicode="&#x1f2;" 
d="M20 0v735l67 -1q24 -2 47 -13q29 -14 50 -42t33.5 -62t17 -71t4.5 -74v-209q0 -37 -4.5 -74t-17 -71t-33.5 -62t-50 -42q-23 -11 -47 -14h-67zM267 0v72l133 386h-133v72h213v-72l-133 -386h133v-72h-213zM87 73q18 4 34 19q22 19 33 48.5t15 60.5t4 62v209q0 31 -4 62
t-15 60.5t-33 48.5q-16 15 -34 19v-589z" />
    <glyph glyph-name="uni01F3" unicode="&#x1f3;" 
d="M101 -8q-28 0 -47 30t-26.5 62.5t-10.5 67t-3 68.5v90q0 34 3 68.5t10.5 67t26.5 62.5t47 30t46 -31q11 -20 18 -40l1 -4v272h67v-735h-67v67q-7 -22 -19 -44q-18 -31 -46 -31zM267 0v72l133 386h-133v72h213v-72l-133 -386h133v-72h-213zM126 64q14 0 21.5 18t10.5 34.5
t5 34t2 34.5q1 13 1 26v108q0 13 -1 26q0 17 -2 34.5t-5 34t-10.5 34.5t-21.5 18q-15 0 -23.5 -17t-12.5 -34t-6 -34.5t-3 -35t-1 -35.5v-90q0 -18 1 -35.5t3 -35t6 -34.5t12.5 -34t23.5 -17z" />
    <glyph glyph-name="uni01F4" unicode="&#x1f4;" 
d="M249 -8q-40 0 -78 13.5t-66.5 43t-40.5 68t-12 78.5v345q0 40 12 79t40.5 68.5t67 42.5t78.5 13q47 0 91 -18.5t71 -58.5t33 -86l-78 -14q-4 28 -19.5 54t-42 38.5t-55.5 12.5q-25 0 -48.5 -9.5t-40 -29t-23 -43.5t-6.5 -49v-345q0 -25 6.5 -49t22.5 -43.5t39.5 -29
t48.5 -9.5q24 0 47 10t37.5 29.5t20.5 43.5t6 48v133h-110v72h190v-205q0 -39 -11 -77.5t-38 -68.5t-64.5 -43.5t-77.5 -13.5zM238 768l-55 43l134 164l66 -52z" />
    <glyph glyph-name="uni01F5" unicode="&#x1f5;" 
d="M238 -213q-39 0 -76 13t-64.5 41t-42.5 64l72 32q8 -22 24.5 -41t39 -28t47.5 -9q28 0 53.5 13t41 36.5t21.5 51t6 55.5v61q-10 -18 -23 -34q-21 -25 -51 -37.5t-61 -12.5q-41 0 -77 19.5t-57.5 54.5t-30 74.5t-8.5 79.5v90q0 40 8.5 79.5t30 74.5t57.5 54.5t77 19.5
q31 0 61 -12.5t51 -37.5q13 -16 23 -34v76h80v-515q0 -43 -11.5 -85t-39 -76t-68 -50.5t-83.5 -16.5zM249 64q27 0 51 14t37 38t18 50.5t5 53.5v90q0 27 -5 53.5t-18 50.5t-37 38t-51 14t-52 -13.5t-39.5 -37.5t-20 -51t-5.5 -54v-90q0 -27 5.5 -54t20 -51t39.5 -37.5
t52 -13.5zM390 215v4v-4zM238 563l-55 43l134 164l66 -52z" />
    <glyph glyph-name="uni01F6" unicode="&#x1f6;" 
d="M331 -8q-26 0 -50.5 10.5t-41 31.5t-23 46.5t-6.5 51.5v200h-83v-332h-80v735h80v-331h83v331h80v-603q0 -15 3 -29.5t13.5 -26.5t24.5 -12q15 0 25.5 12t13.5 26.5t3 29.5v398h80v-398q0 -26 -7 -51.5t-23 -46.5t-40.5 -31.5t-51.5 -10.5z" />
    <glyph glyph-name="uni01F7" unicode="&#x1f7;" 
d="M60 0v735h80v-40q17 15 37 27q39 21 81 21q54 0 101 -31.5t68 -83t21 -106.5q0 -70 -33 -133.5t-78 -117t-95 -102.5l-10 -10l-7 -6l-4 -4l-7 -6q-37 -35 -74 -69v-74h-80zM140 176l20 18l7 7l11 10q46 42 87 89t72 103t31 118q0 35 -11 69t-40 57.5t-64 23.5
q-40 0 -72 -28q-31 -27 -41 -63v-404z" />
    <glyph glyph-name="uni01F8" unicode="&#x1f8;" 
d="M60 0v735h34h77l192 -601v52l-1 10v5v10v10v24l-1 10v5v10v19v10q-1 68 -1 137v299h80v-735h-34h-77l-192 601v-52l1 -10v-5v-10v-10v-24l1 -10v-5v-10v-19v-10q1 -68 1 -137v-299h-80zM262 768l-145 155l66 52l134 -164z" />
    <glyph glyph-name="uni01F9" unicode="&#x1f9;" 
d="M60 0v530h80v-76q10 18 23 34q21 24 50.5 37t61.5 13q31 0 61 -13t50.5 -37.5t32.5 -54t16.5 -60.5t4.5 -63v-310h-80v310q0 27 -5 53.5t-18 50t-36.5 38t-50.5 14.5t-50.5 -14.5t-36.5 -38t-18 -50t-5 -53.5v-310h-80zM262 563l-145 155l66 52l134 -164z" />
    <glyph glyph-name="Aringacute" unicode="&#x1fa;" 
d="M60 0v74q0 199 144 661h92q144 -462 144 -661v-74h-80v74q0 50 -9 119h-202q-9 -69 -9 -119v-74h-80zM159 265h182q-27 161 -91 398q-64 -237 -91 -398zM250 770q-26 0 -49.5 11.5t-35 35t-11.5 49t11.5 49.5t35 35.5t49.5 11.5t49.5 -11.5t35 -35.5t11.5 -49.5
t-11.5 -49t-35 -35t-49.5 -11.5zM250 829q10 0 19 4t13.5 13.5t4.5 19.5t-4.5 19t-13.5 13.5t-19 4.5t-19 -4.5t-13.5 -13.5t-4.5 -19t4.5 -19.5t13.5 -13.5t19 -4zM238 981l-55 43l134 164l66 -52z" />
    <glyph glyph-name="aringacute" unicode="&#x1fb;" 
d="M250 565q-26 0 -49.5 11.5t-35 35t-11.5 49t11.5 49.5t35 35.5t49.5 11.5t49.5 -11.5t35 -35.5t11.5 -49.5t-11.5 -49t-35 -35t-49.5 -11.5zM250 624q10 0 19 4t13.5 13.5t4.5 19.5t-4.5 19t-13.5 13.5t-19 4.5t-19 -4.5t-13.5 -13.5t-4.5 -19t4.5 -19.5t13.5 -13.5
t19 -4zM206 -8q-31 0 -61 10t-52 33t-31.5 53t-9.5 61t11 60.5t34 51t51.5 34t59 17.5t61.5 5h91v46q0 22 -8 42.5t-24.5 34.5t-37.5 20t-43 6q-25 0 -50 -8.5t-42 -29.5t-20 -46l-77 18q6 42 35 76.5t70.5 48t83.5 13.5q37 0 73 -10t64.5 -34t42 -59t13.5 -72v-363h-80v75
q-7 -12 -16 -23q-25 -30 -62 -45t-76 -15zM231.5 64q25.5 0 50.5 9t43.5 28.5t26.5 45t8 51.5v47h-91q-23 0 -46.5 -4t-44.5 -15.5t-33.5 -32t-12.5 -44.5t13.5 -46t37 -30.5t49 -8.5zM238 776l-55 43l134 164l66 -52z" />
    <glyph glyph-name="AEacute" unicode="&#x1fc;" 
d="M47 0v74q0 200 149 661h257v-72h-141v-230h123v-72h-123v-289h141v-72h-221v193h-96q-9 -68 -9 -119v-74h-80zM147 265h85v364q-59 -215 -85 -364zM238 768l-55 43l134 164l66 -52z" />
    <glyph glyph-name="aeacute" unicode="&#x1fd;" 
d="M161 -8q-28 0 -54.5 11t-43.5 33.5t-24.5 50t-7.5 55.5q0 36 12.5 70.5t40 59t62.5 35.5q32 9 64 10v81q0 16 -4 31t-16 26t-28 11q-15 0 -27 -10.5t-16.5 -25t-4.5 -31.5l-80 1v4q0 26 8.5 51t26 45t42.5 29t51 9q27 0 52 -10q21 -8 36 -23q16 16 37 23q25 10 52 10
t53 -9.5t44 -30.5t25.5 -47t7.5 -53v-169h-179v-97q0 -16 4.5 -31.5t18 -26t29.5 -10.5t28.5 10t18 25t5.5 32l80 -1v-4q0 -35 -16 -68t-48.5 -49.5t-67.5 -16.5q-27 0 -53 9q-22 8 -39 24q-15 -15 -36 -23q-26 -10 -53 -10zM161 64q16 0 28.5 11t16.5 26t4 31v113
q-17 -1 -34 -6q-20 -7 -35.5 -21.5t-22.5 -35t-7 -41.5q0 -17 4 -33.5t16.5 -30t29.5 -13.5zM290 301h99v97q0 16 -4.5 31.5t-17 26t-28.5 10.5q-15 0 -27.5 -10.5t-17 -26t-4.5 -31.5v-97zM238 563l-55 43l134 164l66 -52z" />
    <glyph glyph-name="Oslashacute" unicode="&#x1fe;" 
d="M125 -50l-74 27l37 91q-16 22 -24 48q-12 39 -12 79v345q0 40 12 79t40.5 68.5t67 42.5t78.5 13t79 -13q11 -4 20 -9l26 64l74 -27l-37 -91q16 -22 24 -48q12 -39 12 -79v-345q0 -40 -12 -79t-40.5 -68.5t-67 -42.5t-78.5 -13t-79 13q-11 4 -20 9zM250 64q25 0 48.5 9.5
t40 29t23 43.5t6.5 49v345q0 7 -1 15l-188 -470q10 -7 22 -12q24 -9 49 -9zM133 180l188 470q-10 7 -22 12q-24 9 -49 9t-48.5 -9.5t-40 -29t-23 -43.5t-6.5 -49v-345q0 -7 1 -15zM238 768l-55 43l134 164l66 -52z" />
    <glyph glyph-name="oslashacute" unicode="&#x1ff;" 
d="M123 -44l-70 35l42 76q-22 31 -32 69q-11 41 -11 84v90q0 43 11 84.5t37.5 75.5t66.5 51t83 17t83 -17q6 -2 12 -5l32 58l70 -35l-42 -76q22 -31 32 -69q11 -41 11 -84v-90q0 -43 -11 -84.5t-37.5 -75.5t-66.5 -51t-83 -17t-83 17q-6 2 -12 5zM250 64q28 0 52.5 13.5
t39.5 37t20.5 50.5t5.5 55v90q0 28 -6 55q-1 7 -4 14l-166 -298l6 -4q24 -13 52 -13zM142 151l166 298l-6 4q-24 13 -52 13t-52.5 -13.5t-39.5 -37t-20.5 -50.5t-5.5 -55v-90q0 -28 6 -55q1 -7 4 -14zM238 563l-55 43l134 164l66 -52z" />
    <glyph glyph-name="uni0200" unicode="&#x200;" 
d="M60 0v74q0 199 144 661h92q144 -462 144 -661v-74h-80v74q0 50 -9 119h-202q-9 -69 -9 -119v-74h-80zM159 265h182q-27 161 -91 398q-64 -237 -91 -398zM178 768l-145 155l66 52l134 -164zM347 768l-145 155l66 52l134 -164z" />
    <glyph glyph-name="uni0201" unicode="&#x201;" 
d="M178 563l-145 155l66 52l134 -164zM347 563l-145 155l66 52l134 -164zM206 -8q-31 0 -61 10t-52 33t-31.5 53t-9.5 61t11 60.5t34 51t51.5 34t59 17.5t61.5 5h91v46q0 22 -8 42.5t-24.5 34.5t-37.5 20t-43 6q-25 0 -50 -8.5t-42 -29.5t-20 -46l-77 18q6 42 35 76.5
t70.5 48t83.5 13.5q37 0 73 -10t64.5 -34t42 -59t13.5 -72v-363h-80v75q-7 -12 -16 -23q-25 -30 -62 -45t-76 -15zM231.5 64q25.5 0 50.5 9t43.5 28.5t26.5 45t8 51.5v47h-91q-23 0 -46.5 -4t-44.5 -15.5t-33.5 -32t-12.5 -44.5t13.5 -46t37 -30.5t49 -8.5z" />
    <glyph glyph-name="uni0202" unicode="&#x202;" 
d="M60 0v74q0 199 144 661h92q144 -462 144 -661v-74h-80v74q0 50 -9 119h-202q-9 -69 -9 -119v-74h-80zM159 265h182q-27 161 -91 398q-64 -237 -91 -398zM90 789q0 32 10 63t33 54t54 33t63 10t63 -10t54 -33t33 -54t10 -63h-80q0 23 -8.5 44t-29 32.5t-42.5 11.5
t-42.5 -11.5t-29 -32.5t-8.5 -44h-80z" />
    <glyph glyph-name="uni0203" unicode="&#x203;" 
d="M206 -8q-31 0 -61 10t-52 33t-31.5 53t-9.5 61t11 60.5t34 51t51.5 34t59 17.5t61.5 5h91v46q0 22 -8 42.5t-24.5 34.5t-37.5 20t-43 6q-25 0 -50 -8.5t-42 -29.5t-20 -46l-77 18q6 42 35 76.5t70.5 48t83.5 13.5q37 0 73 -10t64.5 -34t42 -59t13.5 -72v-363h-80v75
q-7 -12 -16 -23q-25 -30 -62 -45t-76 -15zM231.5 64q25.5 0 50.5 9t43.5 28.5t26.5 45t8 51.5v47h-91q-23 0 -46.5 -4t-44.5 -15.5t-33.5 -32t-12.5 -44.5t13.5 -46t37 -30.5t49 -8.5zM90 584q0 32 10 63t33 54t54 33t63 10t63 -10t54 -33t33 -54t10 -63h-80q0 23 -8.5 44
t-29 32.5t-42.5 11.5t-42.5 -11.5t-29 -32.5t-8.5 -44h-80z" />
    <glyph glyph-name="uni0204" unicode="&#x204;" 
d="M90 0v735h350v-72h-270v-230h213v-72h-213v-289h270v-72h-350zM178 768l-145 155l66 52l134 -164zM347 768l-145 155l66 52l134 -164z" />
    <glyph glyph-name="uni0205" unicode="&#x205;" 
d="M178 563l-145 155l66 52l134 -164zM347 563l-145 155l66 52l134 -164zM257 -8q-44 0 -85 16t-69 50t-39.5 76.5t-11.5 85.5v90q0 43 11 84.5t37.5 75.5t66.5 51t83 17t83 -17t66.5 -51t37.5 -75.5t11 -84.5v-81h-316v-9q0 -28 6.5 -56t22.5 -51.5t42 -36t54 -12.5
q27 0 52.5 11.5t42 34.5t24.5 49l73 -29q-13 -41 -41 -74t-68.5 -48.5t-82.5 -15.5zM132 301h236v9q0 28 -5.5 55t-20.5 50.5t-39.5 37t-52.5 13.5t-52.5 -13.5t-39.5 -37t-20.5 -50.5t-5.5 -55v-9z" />
    <glyph glyph-name="uni0206" unicode="&#x206;" 
d="M90 0v735h350v-72h-270v-230h213v-72h-213v-289h270v-72h-350zM90 789q0 32 10 63t33 54t54 33t63 10t63 -10t54 -33t33 -54t10 -63h-80q0 23 -8.5 44t-29 32.5t-42.5 11.5t-42.5 -11.5t-29 -32.5t-8.5 -44h-80z" />
    <glyph glyph-name="uni0207" unicode="&#x207;" 
d="M257 -8q-44 0 -85 16t-69 50t-39.5 76.5t-11.5 85.5v90q0 43 11 84.5t37.5 75.5t66.5 51t83 17t83 -17t66.5 -51t37.5 -75.5t11 -84.5v-81h-316v-9q0 -28 6.5 -56t22.5 -51.5t42 -36t54 -12.5q27 0 52.5 11.5t42 34.5t24.5 49l73 -29q-13 -41 -41 -74t-68.5 -48.5
t-82.5 -15.5zM132 301h236v9q0 28 -5.5 55t-20.5 50.5t-39.5 37t-52.5 13.5t-52.5 -13.5t-39.5 -37t-20.5 -50.5t-5.5 -55v-9zM90 584q0 32 10 63t33 54t54 33t63 10t63 -10t54 -33t33 -54t10 -63h-80q0 23 -8.5 44t-29 32.5t-42.5 11.5t-42.5 -11.5t-29 -32.5t-8.5 -44h-80
z" />
    <glyph glyph-name="uni0208" unicode="&#x208;" 
d="M75 0v72h135v591h-135v72h350v-72h-135v-591h135v-72h-350zM178 768l-145 155l66 52l134 -164zM347 768l-145 155l66 52l134 -164z" />
    <glyph glyph-name="uni0209" unicode="&#x209;" 
d="M178 563l-145 155l66 52l134 -164zM347 563l-145 155l66 52l134 -164zM235 0v458h-136l1 72h214v-530h-79z" />
    <glyph glyph-name="uni020A" unicode="&#x20a;" 
d="M75 0v72h135v591h-135v72h350v-72h-135v-591h135v-72h-350zM90 789q0 32 10 63t33 54t54 33t63 10t63 -10t54 -33t33 -54t10 -63h-80q0 23 -8.5 44t-29 32.5t-42.5 11.5t-42.5 -11.5t-29 -32.5t-8.5 -44h-80z" />
    <glyph glyph-name="uni020B" unicode="&#x20b;" 
d="M235 0v458h-136l1 72h214v-530h-79zM90 584q0 32 10 63t33 54t54 33t63 10t63 -10t54 -33t33 -54t10 -63h-80q0 23 -8.5 44t-29 32.5t-42.5 11.5t-42.5 -11.5t-29 -32.5t-8.5 -44h-80z" />
    <glyph glyph-name="uni020C" unicode="&#x20c;" 
d="M178 768l-145 155l66 52l134 -164zM347 768l-145 155l66 52l134 -164zM250 -8q-40 0 -78.5 13t-67 42.5t-40.5 68.5t-12 79v345q0 40 12 79t40.5 68.5t67 42.5t78.5 13t78.5 -13t67 -42.5t40.5 -68.5t12 -79v-345q0 -40 -12 -79t-40.5 -68.5t-67 -42.5t-78.5 -13zM250 64
q25 0 48.5 9.5t40 29t23 43.5t6.5 49v345q0 25 -6.5 49t-23 43.5t-40 29t-48.5 9.5t-48.5 -9.5t-40 -29t-23 -43.5t-6.5 -49v-345q0 -25 6.5 -49t23 -43.5t40 -29t48.5 -9.5z" />
    <glyph glyph-name="uni020D" unicode="&#x20d;" 
d="M178 563l-145 155l66 52l134 -164zM347 563l-145 155l66 52l134 -164zM250 -8q-43 0 -83 17t-66.5 51t-37.5 75.5t-11 84.5v90q0 43 11 84.5t37.5 75.5t66.5 51t83 17t83 -17t66.5 -51t37.5 -75.5t11 -84.5v-90q0 -43 -11 -84.5t-37.5 -75.5t-66.5 -51t-83 -17zM250 64
q28 0 52.5 13.5t39.5 37t20.5 50.5t5.5 55v90q0 28 -5.5 55t-20.5 50.5t-39.5 37t-52.5 13.5t-52.5 -13.5t-39.5 -37t-20.5 -50.5t-5.5 -55v-90q0 -28 5.5 -55t20.5 -50.5t39.5 -37t52.5 -13.5z" />
    <glyph glyph-name="uni020E" unicode="&#x20e;" 
d="M90 789q0 32 10 63t33 54t54 33t63 10t63 -10t54 -33t33 -54t10 -63h-80q0 23 -8.5 44t-29 32.5t-42.5 11.5t-42.5 -11.5t-29 -32.5t-8.5 -44h-80zM250 -8q-40 0 -78.5 13t-67 42.5t-40.5 68.5t-12 79v345q0 40 12 79t40.5 68.5t67 42.5t78.5 13t78.5 -13t67 -42.5
t40.5 -68.5t12 -79v-345q0 -40 -12 -79t-40.5 -68.5t-67 -42.5t-78.5 -13zM250 64q25 0 48.5 9.5t40 29t23 43.5t6.5 49v345q0 25 -6.5 49t-23 43.5t-40 29t-48.5 9.5t-48.5 -9.5t-40 -29t-23 -43.5t-6.5 -49v-345q0 -25 6.5 -49t23 -43.5t40 -29t48.5 -9.5z" />
    <glyph glyph-name="uni020F" unicode="&#x20f;" 
d="M90 584q0 32 10 63t33 54t54 33t63 10t63 -10t54 -33t33 -54t10 -63h-80q0 23 -8.5 44t-29 32.5t-42.5 11.5t-42.5 -11.5t-29 -32.5t-8.5 -44h-80zM250 -8q-43 0 -83 17t-66.5 51t-37.5 75.5t-11 84.5v90q0 43 11 84.5t37.5 75.5t66.5 51t83 17t83 -17t66.5 -51
t37.5 -75.5t11 -84.5v-90q0 -43 -11 -84.5t-37.5 -75.5t-66.5 -51t-83 -17zM250 64q28 0 52.5 13.5t39.5 37t20.5 50.5t5.5 55v90q0 28 -5.5 55t-20.5 50.5t-39.5 37t-52.5 13.5t-52.5 -13.5t-39.5 -37t-20.5 -50.5t-5.5 -55v-90q0 -28 5.5 -55t20.5 -50.5t39.5 -37
t52.5 -13.5z" />
    <glyph glyph-name="uni0210" unicode="&#x210;" 
d="M60 0v735h191q41 0 80 -14t66.5 -45t39 -70.5t11.5 -80t-11.5 -80t-39 -70.5t-66.5 -45q-7 -3 -14 -5q131 -191 131 -325h-80q0 128 -139 315h-89v-315h-80zM251 387q26 0 49.5 10.5t39.5 31.5t22 46t6 50.5t-6 50.5t-22 45.5t-39.5 31t-49.5 10.5h-111v-276h111z
M178 768l-145 155l66 52l134 -164zM347 768l-145 155l66 52l134 -164z" />
    <glyph glyph-name="uni0211" unicode="&#x211;" 
d="M178 563l-145 155l66 52l134 -164zM347 563l-145 155l66 52l134 -164zM120 0v530h80v-100q8 22 20 43q17 28 46 46.5t62 18.5q29 0 55.5 -12.5t45 -35t26.5 -50.5l-75 -34q-6 24 -25 42t-44 18q-30 0 -54.5 -20t-36 -48t-16 -57.5t-4.5 -59.5v-281h-80z" />
    <glyph glyph-name="uni0212" unicode="&#x212;" 
d="M60 0v735h191q41 0 80 -14t66.5 -45t39 -70.5t11.5 -80t-11.5 -80t-39 -70.5t-66.5 -45q-7 -3 -14 -5q131 -191 131 -325h-80q0 128 -139 315h-89v-315h-80zM251 387q26 0 49.5 10.5t39.5 31.5t22 46t6 50.5t-6 50.5t-22 45.5t-39.5 31t-49.5 10.5h-111v-276h111zM90 789
q0 32 10 63t33 54t54 33t63 10t63 -10t54 -33t33 -54t10 -63h-80q0 23 -8.5 44t-29 32.5t-42.5 11.5t-42.5 -11.5t-29 -32.5t-8.5 -44h-80z" />
    <glyph glyph-name="uni0213" unicode="&#x213;" 
d="M120 0v530h80v-100q8 22 20 43q17 28 46 46.5t62 18.5q29 0 55.5 -12.5t45 -35t26.5 -50.5l-75 -34q-6 24 -25 42t-44 18q-30 0 -54.5 -20t-36 -48t-16 -57.5t-4.5 -59.5v-281h-80zM90 584q0 32 10 63t33 54t54 33t63 10t63 -10t54 -33t33 -54t10 -63h-80q0 23 -8.5 44
t-29 32.5t-42.5 11.5t-42.5 -11.5t-29 -32.5t-8.5 -44h-80z" />
    <glyph glyph-name="uni0214" unicode="&#x214;" 
d="M178 768l-145 155l66 52l134 -164zM347 768l-145 155l66 52l134 -164zM250 -8q-39 0 -76.5 14t-64.5 43.5t-38 68t-11 77.5v540h80v-540q0 -24 6 -47.5t20.5 -43.5t37 -30t46.5 -10t46.5 10t37 30t20.5 43.5t6 47.5v540h80v-540q0 -39 -11 -77.5t-38 -68t-64.5 -43.5
t-76.5 -14z" />
    <glyph glyph-name="uni0215" unicode="&#x215;" 
d="M178 563l-145 155l66 52l134 -164zM347 563l-145 155l66 52l134 -164zM225 -8q-31 0 -61 13t-50.5 37.5t-32.5 54t-16.5 60.5t-4.5 63v310h80v-310q0 -27 5 -53.5t18 -50t36.5 -38t50.5 -14.5t50.5 14.5t36.5 38t18 50t5 53.5v310h80v-530h-80v76q-10 -18 -23 -34
q-21 -24 -50.5 -37t-61.5 -13z" />
    <glyph glyph-name="uni0216" unicode="&#x216;" 
d="M90 789q0 32 10 63t33 54t54 33t63 10t63 -10t54 -33t33 -54t10 -63h-80q0 23 -8.5 44t-29 32.5t-42.5 11.5t-42.5 -11.5t-29 -32.5t-8.5 -44h-80zM250 -8q-39 0 -76.5 14t-64.5 43.5t-38 68t-11 77.5v540h80v-540q0 -24 6 -47.5t20.5 -43.5t37 -30t46.5 -10t46.5 10
t37 30t20.5 43.5t6 47.5v540h80v-540q0 -39 -11 -77.5t-38 -68t-64.5 -43.5t-76.5 -14z" />
    <glyph glyph-name="uni0217" unicode="&#x217;" 
d="M225 -8q-31 0 -61 13t-50.5 37.5t-32.5 54t-16.5 60.5t-4.5 63v310h80v-310q0 -27 5 -53.5t18 -50t36.5 -38t50.5 -14.5t50.5 14.5t36.5 38t18 50t5 53.5v310h80v-530h-80v76q-10 -18 -23 -34q-21 -24 -50.5 -37t-61.5 -13zM90 584q0 32 10 63t33 54t54 33t63 10t63 -10
t54 -33t33 -54t10 -63h-80q0 23 -8.5 44t-29 32.5t-42.5 11.5t-42.5 -11.5t-29 -32.5t-8.5 -44h-80z" />
    <glyph glyph-name="Scommaaccent" unicode="&#x218;" 
d="M239 -242l-42 37q31 34 42 81q-8 1 -16 5q-13 6 -19.5 19t-6.5 27.5t6.5 27.5t19.5 19.5t27 6.5t27 -6.5t19.5 -19.5t6.5 -27v-12q-3 -96 -64 -158zM247 -8q-47 0 -91.5 17t-72.5 57t-28 88v1l79 11v-7q0 -28 16.5 -51.5t42.5 -33.5t54 -10q30 0 57.5 13t41.5 40.5
t14 57.5q0 51 -38 90.5t-83.5 63t-87 54.5t-66.5 77.5t-25 98.5q0 37 14 73t41.5 62t64 37.5t73.5 11.5q47 0 91.5 -17t72.5 -57t28 -88v-1l-79 -11v7q0 28 -16.5 51.5t-42.5 33.5t-54 10q-30 0 -57.5 -13t-41.5 -40.5t-14 -57.5q0 -51 38 -90.5t83.5 -63t87 -54.5
t66.5 -77.5t25 -98.5q0 -37 -14 -73t-41.5 -62t-64 -37.5t-73.5 -11.5z" />
    <glyph glyph-name="scommaaccent" unicode="&#x219;" 
d="M239 -242l-42 37q31 34 42 81q-8 1 -16 5q-13 6 -19.5 19t-6.5 27.5t6.5 27.5t19.5 19.5t27 6.5t27 -6.5t19.5 -19.5t6.5 -27v-12q-3 -96 -64 -158zM248 -8q-40 0 -79.5 11t-69.5 40t-42 67l75 24q8 -23 26 -40t41.5 -23.5t48.5 -6.5t50 6t44 25.5t19 44.5
q0 37 -32.5 59.5t-69 25t-72.5 10t-66 29.5t-46 55.5t-16 70.5q0 34 16.5 65t46 50t63 26t67.5 7q40 0 79.5 -11t69.5 -40t42 -67l-75 -24q-8 23 -26 40t-41.5 23.5t-48.5 6.5t-50 -6t-44 -25.5t-19 -44.5q0 -37 32.5 -59.5t69 -25t72.5 -10t66 -29.5t46 -55.5t16 -70.5
q0 -34 -16.5 -65t-46 -50t-63 -26t-67.5 -7z" />
    <glyph glyph-name="uni021A" unicode="&#x21a;" 
d="M210 0v663h-162v72h404v-72h-162v-663h-80zM239 -242l-42 37q31 34 42 81q-8 1 -16 5q-13 6 -19.5 19t-6.5 27.5t6.5 27.5t19.5 19.5t27 6.5t27 -6.5t19.5 -19.5t6.5 -27v-12q-3 -96 -64 -158z" />
    <glyph glyph-name="uni021B" unicode="&#x21b;" 
d="M292 -242l-42 37q31 34 42 81q-8 1 -16 5q-13 6 -19.5 19t-6.5 27.5t6.5 27.5t19.5 19.5t27 6.5t27 -6.5t19.5 -19.5t6.5 -27v-12q-3 -96 -64 -158zM326 -8q-37 0 -71.5 16t-56 46.5t-30 66.5t-8.5 73v264h-109v72h109v205h80v-205h161v-72h-161v-264q0 -29 6.5 -57.5
t28.5 -50.5t51 -22q25 0 45.5 17t29 41t10.5 50l78 -17q-3 -32 -15 -62t-34 -54t-52.5 -35.5t-61.5 -11.5z" />
    <glyph glyph-name="uni021C" unicode="&#x21c;" 
d="M60 -8l-8 72q51 4 100 18.5t94.5 38t80 65t34.5 92.5q0 31 -14 59q-9 17 -23 30q-50 -28 -102 -50.5t-106 -40.5l-24 69q43 13 85 29.5t83.5 36t70.5 56.5t29 83q0 31 -13.5 60.5t-41.5 45t-59 15.5q-28 0 -54 -13t-40.5 -38.5t-18.5 -54.5l-78 15q4 34 20 65.5
t42.5 54.5t60.5 33t68 10q39 0 75.5 -12.5t64 -40.5t41 -64.5t13.5 -75.5q0 -56 -33 -105q-10 -16 -23 -29q18 -18 31 -40q26 -46 26 -96q0 -65 -39 -120.5t-95.5 -88.5t-119 -52.5t-127.5 -26.5z" />
    <glyph glyph-name="uni021D" unicode="&#x21d;" 
d="M60 -213l-8 72q51 4 100 18.5t94.5 38t80 65t34.5 92.5q0 31 -14 59q-9 17 -23 30q-50 -28 -102 -50.5t-106 -40.5l-24 69q43 13 85 29.5t83.5 36t70.5 56.5t29 83q0 31 -13.5 60.5t-41.5 45t-59 15.5q-28 0 -54 -13t-40.5 -38.5t-18.5 -54.5l-78 15q4 34 20 65.5
t42.5 54.5t60.5 33t68 10q39 0 75.5 -12.5t64 -40.5t41 -64.5t13.5 -75.5q0 -56 -33 -105q-10 -16 -23 -29q18 -18 31 -40q26 -46 26 -96q0 -65 -39 -120.5t-95.5 -88.5t-119 -52.5t-127.5 -26.5z" />
    <glyph glyph-name="uni021E" unicode="&#x21e;" 
d="M60 0v735h80v-313h220v313h80v-735h-80v350h-220v-350h-80zM206 774l-130 150l69 50l105 -141l105 141l69 -50l-130 -150h-88z" />
    <glyph glyph-name="uni021F" unicode="&#x21f;" 
d="M206 774l-130 150l69 50l105 -141l105 141l69 -50l-130 -150h-88zM60 0v735h80v-281q10 18 23 34q21 24 50.5 37t61.5 13q31 0 61 -13t50.5 -37.5t32.5 -54t16.5 -60.5t4.5 -63v-310h-80v310q0 27 -5 53.5t-18 50t-36.5 38t-50.5 14.5t-50.5 -14.5t-36.5 -38t-18 -50
t-5 -53.5v-310h-80z" />
    <glyph glyph-name="uni0220" unicode="&#x220;" 
d="M360 -205v720q0 27 -5 53.5t-18 50t-36.5 38t-50.5 14.5t-50.5 -14.5t-36.5 -38t-18 -50t-5 -53.5v-515h-80v735h80v-76q10 18 23 34q21 24 50.5 37t61.5 13q31 0 61 -13t50.5 -37.5t32.5 -54t16.5 -60.5t4.5 -63v-720h-80z" />
    <glyph glyph-name="uni0221" unicode="&#x221;" 
d="M217 -109l-74 14q10 46 28 89q-25 5 -47 22q-31 24 -46 58.5t-20.5 71.5t-5.5 74v90q0 37 5.5 74t20.5 71.5t45.5 58.5t68.5 24q29 0 54.5 -16t40.5 -42q4 -6 7 -13v268h80v-528q17 3 35 3q29 0 55.5 -13t39 -40t12.5 -56t-13 -56t-40 -40t-56 -13q-26 0 -50 11t-39 32
q-12 16 -17 35q-5 -7 -11 -14l-1 -2l-2 -4q-6 -10 -13 -19q-11 -18 -21 -37q-12 -25 -21 -51t-15 -52zM407 61q10 0 18 5.5t11 15t3 19.5q0 41 -36 41q-15 0 -29 -6v-2v-11v-3v-6v-2q0 -51 33 -51zM207 65q31 49 75 92q4 4 9 8q3 22 3 45v110q0 27 -4 53q-5 32 -23.5 62.5
t-50.5 30.5t-52.5 -29.5t-26 -61.5t-5.5 -65v-90q0 -33 5.5 -65t26.5 -61q17 -26 43 -29z" />
    <glyph glyph-name="uni0222" unicode="&#x222;" 
d="M250 -8q-40 0 -78.5 13t-67 42.5t-40.5 68.5t-12 79v32q0 40 12 78.5t41 68.5q16 17 35 28q-14 8 -26 19q-28 25 -41 60t-13 72v182h80v-182q0 -23 6 -46t21.5 -41.5t37.5 -27t45 -8.5t45 8.5t37.5 27t21.5 41.5t6 46v182h80v-182q0 -37 -13 -72t-41 -60q-12 -11 -26 -19
q19 -11 35 -28q29 -30 41 -68.5t12 -78.5v-32q0 -40 -12 -79t-40.5 -68.5t-67 -42.5t-78.5 -13zM250 64q25 0 48.5 9.5t40 29t23 43.5t6.5 49v32q0 25 -6.5 49t-23 43.5t-40 29t-48.5 9.5t-48.5 -9.5t-40 -29t-23 -43.5t-6.5 -49v-32q0 -25 6.5 -49t23 -43.5t40 -29
t48.5 -9.5z" />
    <glyph glyph-name="uni0223" unicode="&#x223;" 
d="M250 -8q-43 0 -83 17t-66.5 51t-37.5 75.5t-11 84.5v69q0 42 11 84t37 76q18 23 43 39q-15 8 -29 20q-28 25 -41 60t-13 72v95h80v-95q0 -24 6 -46.5t21.5 -41t37.5 -27t45 -8.5t45 8.5t37.5 27t21.5 41t6 46.5v95h80v-95q0 -37 -13 -72t-41 -60q-14 -12 -29 -20
q25 -16 43 -39q26 -34 37 -76t11 -84v-69q0 -43 -11 -84.5t-37.5 -75.5t-66.5 -51t-83 -17zM250 64q28 0 52.5 13.5t39.5 37t20.5 50.5t5.5 55v69q0 27 -5.5 54t-20.5 51t-39.5 37.5t-52.5 13.5t-52.5 -13.5t-39.5 -37.5t-20.5 -51t-5.5 -54v-69q0 -28 5.5 -55t20.5 -50.5
t39.5 -37t52.5 -13.5z" />
    <glyph glyph-name="uni0224" unicode="&#x224;" 
d="M360 -155q0 33 -6.5 66t-28.5 61t-55 28h-210v72l288 591h-288v72h380v-72l-288 -591h118q40 0 76 -19.5t57 -54.5t29 -74t8 -79h-80z" />
    <glyph glyph-name="uni0225" unicode="&#x225;" 
d="M360 -155q0 33 -6.5 66t-28.5 61t-55 28h-210v72l284 386h-284v72h380v-72l-284 -386h114q40 0 76 -19.5t57 -54.5t29 -74t8 -79h-80z" />
    <glyph glyph-name="uni0226" unicode="&#x226;" 
d="M60 0v74q0 199 144 661h92q144 -462 144 -661v-74h-80v74q0 50 -9 119h-202q-9 -69 -9 -119v-74h-80zM159 265h182q-27 161 -91 398q-64 -237 -91 -398zM250 828q-17 0 -32.5 7t-23 22.5t-6.5 32.5q-1 17 6.5 32.5t23 23t32.5 7.5t32.5 -7.5t22.5 -23t8 -32.5
q-1 -17 -8 -32.5t-22.5 -22.5t-32.5 -7z" />
    <glyph glyph-name="uni0227" unicode="&#x227;" 
d="M206 -8q-31 0 -61 10t-52 33t-31.5 53t-9.5 61t11 60.5t34 51t51.5 34t59 17.5t61.5 5h91v46q0 22 -8 42.5t-24.5 34.5t-37.5 20t-43 6q-25 0 -50 -8.5t-42 -29.5t-20 -46l-77 18q6 42 35 76.5t70.5 48t83.5 13.5q37 0 73 -10t64.5 -34t42 -59t13.5 -72v-363h-80v75
q-7 -12 -16 -23q-25 -30 -62 -45t-76 -15zM231.5 64q25.5 0 50.5 9t43.5 28.5t26.5 45t8 51.5v47h-91q-23 0 -46.5 -4t-44.5 -15.5t-33.5 -32t-12.5 -44.5t13.5 -46t37 -30.5t49 -8.5zM250 623q-17 0 -32.5 7t-23 22.5t-6.5 32.5q-1 17 6.5 32.5t23 23t32.5 7.5t32.5 -7.5
t22.5 -23t8 -32.5q-1 -17 -8 -32.5t-22.5 -22.5t-32.5 -7z" />
    <glyph glyph-name="uni0228" unicode="&#x228;" 
d="M90 0v735h350v-72h-270v-230h213v-72h-213v-289h270v-72h-350zM150 -214v72h100q28 0 28 23t-28 23h-40v96h80v-29q7 -2 13 -5q26 -10 40.5 -34t14.5 -51t-14.5 -51t-40.5 -34t-53 -10h-100z" />
    <glyph glyph-name="uni0229" unicode="&#x229;" 
d="M150 -214v72h100q28 0 28 23t-28 23h-40v96h80v-29q7 -2 13 -5q26 -10 40.5 -34t14.5 -51t-14.5 -51t-40.5 -34t-53 -10h-100zM257 -8q-44 0 -85 16t-69 50t-39.5 76.5t-11.5 85.5v90q0 43 11 84.5t37.5 75.5t66.5 51t83 17t83 -17t66.5 -51t37.5 -75.5t11 -84.5v-81
h-316v-9q0 -28 6.5 -56t22.5 -51.5t42 -36t54 -12.5q27 0 52.5 11.5t42 34.5t24.5 49l73 -29q-13 -41 -41 -74t-68.5 -48.5t-82.5 -15.5zM132 301h236v9q0 28 -5.5 55t-20.5 50.5t-39.5 37t-52.5 13.5t-52.5 -13.5t-39.5 -37t-20.5 -50.5t-5.5 -55v-9z" />
    <glyph glyph-name="uni022A" unicode="&#x22a;" 
d="M150 828q-17 0 -32.5 7t-23 22.5t-6.5 32.5q-1 17 6.5 32.5t23 23t32.5 7.5t32.5 -7.5t22.5 -23t8 -32.5q-1 -17 -8 -32.5t-22.5 -22.5t-32.5 -7zM350 828q-17 0 -32.5 7t-23 22.5t-6.5 32.5q-1 17 6.5 32.5t23 23t32.5 7.5t32.5 -7.5t22.5 -23t8 -32.5q-1 -17 -8 -32.5
t-22.5 -22.5t-32.5 -7zM250 -8q-40 0 -78.5 13t-67 42.5t-40.5 68.5t-12 79v345q0 40 12 79t40.5 68.5t67 42.5t78.5 13t78.5 -13t67 -42.5t40.5 -68.5t12 -79v-345q0 -40 -12 -79t-40.5 -68.5t-67 -42.5t-78.5 -13zM250 64q25 0 48.5 9.5t40 29t23 43.5t6.5 49v345
q0 25 -6.5 49t-23 43.5t-40 29t-48.5 9.5t-48.5 -9.5t-40 -29t-23 -43.5t-6.5 -49v-345q0 -25 6.5 -49t23 -43.5t40 -29t48.5 -9.5zM100 1067v72h300v-72h-300z" />
    <glyph glyph-name="uni022B" unicode="&#x22b;" 
d="M150 623q-17 0 -32.5 7t-23 22.5t-6.5 32.5q-1 17 6.5 32.5t23 23t32.5 7.5t32.5 -7.5t22.5 -23t8 -32.5q-1 -17 -8 -32.5t-22.5 -22.5t-32.5 -7zM350 623q-17 0 -32.5 7t-23 22.5t-6.5 32.5q-1 17 6.5 32.5t23 23t32.5 7.5t32.5 -7.5t22.5 -23t8 -32.5q-1 -17 -8 -32.5
t-22.5 -22.5t-32.5 -7zM250 -8q-43 0 -83 17t-66.5 51t-37.5 75.5t-11 84.5v90q0 43 11 84.5t37.5 75.5t66.5 51t83 17t83 -17t66.5 -51t37.5 -75.5t11 -84.5v-90q0 -43 -11 -84.5t-37.5 -75.5t-66.5 -51t-83 -17zM250 64q28 0 52.5 13.5t39.5 37t20.5 50.5t5.5 55v90
q0 28 -5.5 55t-20.5 50.5t-39.5 37t-52.5 13.5t-52.5 -13.5t-39.5 -37t-20.5 -50.5t-5.5 -55v-90q0 -28 5.5 -55t20.5 -50.5t39.5 -37t52.5 -13.5zM100 862v72h300v-72h-300z" />
    <glyph glyph-name="uni022C" unicode="&#x22c;" 
d="M308 790q-5 0 -10 0.5t-9.5 2t-9 3.5t-9.5 5l-8 6l-7 6q-4 4 -7 7.5t-6 7.5l-6 8l-6 8q-3 4 -5 8l-6 8l-2 4l-3 5l-6 8l-5 8q-3 4 -8 7l-3 2l-3 -1q-5 -2 -7 -6l-5 -7l-5 -8q-2 -3 -4.5 -7t-4.5 -8l-3 -6l-2 -3l-3 -7l-2 -3l-2 -4l-4 -8l-3 -9l-4 -8l-3 -8l-4 -8l-66 25
q13 31 28 61t39 57.5t58 27.5q5 0 10 -0.5t9.5 -2t9 -3.5t9.5 -5l8 -5l7 -7q4 -3 7 -7t6 -7.5t6 -7.5l6 -9q3 -4 5 -8l6 -8l2 -3l3 -5l6 -9l5 -8q3 -4 8 -7l3 -2l3 1q5 3 7 6l5 8l5 7q2 4 4.5 7.5t4.5 7.5l4 8l4 8l2 3l2 5l4 8l3 8l4 8l3 8l4 8l66 -24q-13 -32 -28 -62
t-39 -57.5t-58 -27.5zM250 -8q-40 0 -78.5 13t-67 42.5t-40.5 68.5t-12 79v345q0 40 12 79t40.5 68.5t67 42.5t78.5 13t78.5 -13t67 -42.5t40.5 -68.5t12 -79v-345q0 -40 -12 -79t-40.5 -68.5t-67 -42.5t-78.5 -13zM250 64q25 0 48.5 9.5t40 29t23 43.5t6.5 49v345
q0 25 -6.5 49t-23 43.5t-40 29t-48.5 9.5t-48.5 -9.5t-40 -29t-23 -43.5t-6.5 -49v-345q0 -25 6.5 -49t23 -43.5t40 -29t48.5 -9.5zM100 1067v72h300v-72h-300z" />
    <glyph glyph-name="uni022D" unicode="&#x22d;" 
d="M308 585q-5 0 -10 0.5t-9.5 2t-9 3.5t-9.5 5l-8 6l-7 6q-4 4 -7 7.5t-6 7.5l-6 8l-6 8q-3 4 -5 8l-6 8l-2 4l-3 5l-6 8l-5 8q-3 4 -8 7l-3 2l-3 -1q-5 -2 -7 -6l-5 -7l-5 -8q-2 -3 -4.5 -7t-4.5 -8l-3 -6l-2 -3l-3 -7l-2 -3l-2 -4l-4 -8l-3 -9l-4 -8l-3 -8l-4 -8l-66 25
q13 31 28 61t39 57.5t58 27.5q5 0 10 -0.5t9.5 -2t9 -3.5t9.5 -5l8 -5l7 -7q4 -3 7 -7t6 -7.5t6 -7.5l6 -9q3 -4 5 -8l6 -8l2 -3l3 -5l6 -9l5 -8q3 -4 8 -7l3 -2l3 1q5 3 7 6l5 8l5 7q2 4 4.5 7.5t4.5 7.5l4 8l4 8l2 3l2 5l4 8l3 8l4 8l3 8l4 8l66 -24q-13 -32 -28 -62
t-39 -57.5t-58 -27.5zM250 -8q-43 0 -83 17t-66.5 51t-37.5 75.5t-11 84.5v90q0 43 11 84.5t37.5 75.5t66.5 51t83 17t83 -17t66.5 -51t37.5 -75.5t11 -84.5v-90q0 -43 -11 -84.5t-37.5 -75.5t-66.5 -51t-83 -17zM250 64q28 0 52.5 13.5t39.5 37t20.5 50.5t5.5 55v90
q0 28 -5.5 55t-20.5 50.5t-39.5 37t-52.5 13.5t-52.5 -13.5t-39.5 -37t-20.5 -50.5t-5.5 -55v-90q0 -28 5.5 -55t20.5 -50.5t39.5 -37t52.5 -13.5zM100 862v72h300v-72h-300z" />
    <glyph glyph-name="uni022E" unicode="&#x22e;" 
d="M250 828q-17 0 -32.5 7t-23 22.5t-6.5 32.5q-1 17 6.5 32.5t23 23t32.5 7.5t32.5 -7.5t22.5 -23t8 -32.5q-1 -17 -8 -32.5t-22.5 -22.5t-32.5 -7zM250 -8q-40 0 -78.5 13t-67 42.5t-40.5 68.5t-12 79v345q0 40 12 79t40.5 68.5t67 42.5t78.5 13t78.5 -13t67 -42.5
t40.5 -68.5t12 -79v-345q0 -40 -12 -79t-40.5 -68.5t-67 -42.5t-78.5 -13zM250 64q25 0 48.5 9.5t40 29t23 43.5t6.5 49v345q0 25 -6.5 49t-23 43.5t-40 29t-48.5 9.5t-48.5 -9.5t-40 -29t-23 -43.5t-6.5 -49v-345q0 -25 6.5 -49t23 -43.5t40 -29t48.5 -9.5z" />
    <glyph glyph-name="uni022F" unicode="&#x22f;" 
d="M250 623q-17 0 -32.5 7t-23 22.5t-6.5 32.5q-1 17 6.5 32.5t23 23t32.5 7.5t32.5 -7.5t22.5 -23t8 -32.5q-1 -17 -8 -32.5t-22.5 -22.5t-32.5 -7zM250 -8q-43 0 -83 17t-66.5 51t-37.5 75.5t-11 84.5v90q0 43 11 84.5t37.5 75.5t66.5 51t83 17t83 -17t66.5 -51
t37.5 -75.5t11 -84.5v-90q0 -43 -11 -84.5t-37.5 -75.5t-66.5 -51t-83 -17zM250 64q28 0 52.5 13.5t39.5 37t20.5 50.5t5.5 55v90q0 28 -5.5 55t-20.5 50.5t-39.5 37t-52.5 13.5t-52.5 -13.5t-39.5 -37t-20.5 -50.5t-5.5 -55v-90q0 -28 5.5 -55t20.5 -50.5t39.5 -37
t52.5 -13.5z" />
    <glyph glyph-name="uni0230" unicode="&#x230;" 
d="M250 828q-17 0 -32.5 7t-23 22.5t-6.5 32.5q-1 17 6.5 32.5t23 23t32.5 7.5t32.5 -7.5t22.5 -23t8 -32.5q-1 -17 -8 -32.5t-22.5 -22.5t-32.5 -7zM250 -8q-40 0 -78.5 13t-67 42.5t-40.5 68.5t-12 79v345q0 40 12 79t40.5 68.5t67 42.5t78.5 13t78.5 -13t67 -42.5
t40.5 -68.5t12 -79v-345q0 -40 -12 -79t-40.5 -68.5t-67 -42.5t-78.5 -13zM250 64q25 0 48.5 9.5t40 29t23 43.5t6.5 49v345q0 25 -6.5 49t-23 43.5t-40 29t-48.5 9.5t-48.5 -9.5t-40 -29t-23 -43.5t-6.5 -49v-345q0 -25 6.5 -49t23 -43.5t40 -29t48.5 -9.5zM100 1067v72
h300v-72h-300z" />
    <glyph glyph-name="uni0231" unicode="&#x231;" 
d="M250 623q-17 0 -32.5 7t-23 22.5t-6.5 32.5q-1 17 6.5 32.5t23 23t32.5 7.5t32.5 -7.5t22.5 -23t8 -32.5q-1 -17 -8 -32.5t-22.5 -22.5t-32.5 -7zM250 -8q-43 0 -83 17t-66.5 51t-37.5 75.5t-11 84.5v90q0 43 11 84.5t37.5 75.5t66.5 51t83 17t83 -17t66.5 -51
t37.5 -75.5t11 -84.5v-90q0 -43 -11 -84.5t-37.5 -75.5t-66.5 -51t-83 -17zM250 64q28 0 52.5 13.5t39.5 37t20.5 50.5t5.5 55v90q0 28 -5.5 55t-20.5 50.5t-39.5 37t-52.5 13.5t-52.5 -13.5t-39.5 -37t-20.5 -50.5t-5.5 -55v-90q0 -28 5.5 -55t20.5 -50.5t39.5 -37
t52.5 -13.5zM100 862v72h300v-72h-300z" />
    <glyph glyph-name="uni0232" unicode="&#x232;" 
d="M210 0v287l-85 162q-65 123 -65 242v44h80v-44q0 -103 55 -209l55 -105l55 105q55 106 55 209v44h80v-44q0 -119 -65 -242l-85 -162v-287h-80zM100 854v72h300v-72h-300z" />
    <glyph glyph-name="uni0233" unicode="&#x233;" 
d="M160 -205v7q0 60 12 95l37 108l-115 324q-34 97 -34 164v37h80v-37q0 -52 30 -140l79 -234l81 234q30 86 30 140v37h80v-37q0 -65 -34 -164l-158 -456q-8 -22 -8 -71v-7h-80zM100 649v72h300v-72h-300z" />
    <glyph glyph-name="uni0234" unicode="&#x234;" 
d="M117 -72l-77 19q20 74 61.5 139t102.5 117l6 5v455h-135v72h215v-487q26 7 53 7q35 0 67.5 -15.5t47.5 -48.5t15 -67.5t-15.5 -67.5t-48 -48.5t-67.5 -15.5q-33 0 -62 15.5t-46 43.5q-16 27 -20 57q-21 -24 -39 -51q-19 -30 -33.5 -62.5t-24.5 -66.5zM341 64q15 0 28.5 8
t18.5 22.5t5 29.5t-5.5 29.5t-20 22t-29.5 7.5q-26 0 -48 -11v-12v-15q0 -81 51 -81z" />
    <glyph glyph-name="uni0235" unicode="&#x235;" 
d="M217 -69l-73 19q18 63 54 118.5t90 98.5l6 5v138q0 32 -4.5 63t-22.5 62t-50 31t-49.5 -31t-22.5 -62t-5 -63v-310h-80v530h80v-63q13 26 36 46q29 25 66 25t66 -25t42.5 -59.5t18.5 -70.5t5 -73v-103q17 3 34 3q29 0 56 -12.5t39.5 -40t12.5 -56.5t-13 -56t-40 -40
t-56 -13q-26 0 -50 11t-39 32q-14 20 -19 44q-8 -9 -15 -17q-16 -20 -28.5 -41t-22 -43.5t-16.5 -46.5zM407 61q10 0 18 5.5t11 15t3 19.5q0 41 -37 41q-14 0 -28 -5v-3v-11v-3v-6v-2q0 -51 33 -51z" />
    <glyph glyph-name="uni0236" unicode="&#x236;" 
d="M100 -72l-78 15q15 72 51 138q33 63 87 116v261h-109v72h109v205h80v-205h161v-72h-161v-211q26 8 55 8q34 0 66 -16t47 -48.5t15 -67t-15.5 -67.5t-48 -48.5t-67.5 -15.5q-33 0 -62 15.5t-46 43.5q-10 18 -16 37q-11 -17 -21 -35q-16 -29 -28 -60.5t-19 -64.5zM291 64
q15 0 28.5 8t18.5 22.5t5 29t-5.5 29t-19 22.5t-28.5 8q-27 0 -50 -16v-7v-15q0 -81 51 -81z" />
    <glyph glyph-name="uni0237" unicode="&#x237;" 
d="M180 -213q-40 0 -77 17.5t-59.5 52t-30.5 73.5l76 24q3 -24 14 -46t32 -35.5t45 -13.5q23 0 43 12t31 32t15 42t4 45v468h-135v72h215v-540q0 -38 -9.5 -74.5t-32.5 -67.5t-58 -46t-73 -15z" />
    <glyph glyph-name="uni0238" unicode="&#x238;" 
d="M161 -8q-27 0 -53 9.5t-44 30.5t-25.5 47t-7.5 53v266q0 27 7.5 53t25.5 47t44 30.5t53 9.5q25 0 49 -9v206h80v-206q24 9 49 9q27 0 53 -9.5t44 -30.5t25.5 -47t7.5 -53v-266q0 -27 -7.5 -53t-25.5 -47t-44 -30.5t-53 -9.5t-52 10q-21 7 -37 23q-16 -16 -37 -23
q-25 -10 -52 -10zM161 64q15 0 28 10.5t17 25.5t4 32v268q0 15 -4 30t-17 25.5t-28 10.5q-16 0 -28.5 -10.5t-17 -26t-4.5 -31.5v-266q0 -16 4.5 -31.5t17 -26t28.5 -10.5zM339 64q16 0 28.5 10.5t17 26t4.5 31.5v266q0 16 -4.5 31.5t-17 26t-28.5 10.5q-15 0 -28 -10.5
t-17 -26t-4 -31.5v-267q0 -15 4 -30.5t17 -26t28 -10.5z" />
    <glyph glyph-name="uni0239" unicode="&#x239;" 
d="M210 -205v206q-24 -9 -49 -9q-27 0 -53 9.5t-44 30.5t-25.5 47t-7.5 53v266q0 27 7.5 53t25.5 47t44 30.5t53 9.5t52 -10q21 -7 37 -23q16 16 37 23q25 10 52 10t53 -9.5t44 -30.5t25.5 -47t7.5 -53v-266q0 -27 -7.5 -53t-25.5 -47t-44 -30.5t-53 -9.5q-25 0 -49 9v-206
h-80zM161 64q15 0 28 10.5t17 25.5t4 32v268q0 15 -4 30t-17 25.5t-28 10.5q-16 0 -28.5 -10.5t-17 -26t-4.5 -31.5v-266q0 -16 4.5 -31.5t17 -26t28.5 -10.5zM339 64q16 0 28.5 10.5t17 26t4.5 31.5v266q0 16 -4.5 31.5t-17 26t-28.5 10.5q-15 0 -28 -10.5t-17 -26
t-4 -31.5v-267q0 -15 4 -30.5t17 -26t28 -10.5z" />
    <glyph glyph-name="uni023A" unicode="&#x23a;" 
d="M60 0v74q0 199 144 661h92q144 -462 144 -661v-74h-80v74q0 50 -9 119h-202q-9 -69 -9 -119v-74h-80zM159 265h182q-27 161 -91 398q-64 -237 -91 -398zM140 -82l-58 16l278 882l58 -16z" />
    <glyph glyph-name="uni023B" unicode="&#x23b;" 
d="M140 -82l-58 16l278 882l58 -16zM250 -8q-40 0 -78.5 13t-67 42.5t-40.5 68.5t-12 79v345q0 40 12 79t40.5 68.5t67 42.5t78.5 13q47 0 91 -18.5t71 -58.5t33 -86l-78 -14q-4 28 -19.5 54t-42 38.5t-55.5 12.5q-25 0 -48.5 -9.5t-40 -29t-23 -43.5t-6.5 -49v-345
q0 -25 6.5 -49t23 -43.5t40 -29t48.5 -9.5q29 0 55.5 12.5t42 38.5t19.5 54l78 -14q-5 -35 -21 -66.5t-43.5 -54t-61.5 -32.5t-69 -10z" />
    <glyph glyph-name="uni023C" unicode="&#x23c;" 
d="M138 -64l-54 22l278 636l54 -22zM251 -8q-42 0 -82.5 16.5t-67.5 51t-38 76t-11 84.5v90q0 43 11 84.5t38 76t67.5 51t82.5 16.5q35 0 68.5 -10.5t60 -33.5t42.5 -54t23 -65l-76 -22q-5 29 -19.5 56t-41.5 42t-57 15q-27 0 -52 -13t-40 -37t-21 -51t-6 -55v-90
q0 -28 6 -55t21 -51t40 -37t52 -13q30 0 57 15t41.5 42t19.5 56l76 -22q-7 -34 -23 -65t-42.5 -54t-60 -33.5t-68.5 -10.5z" />
    <glyph glyph-name="uni023D" unicode="&#x23d;" 
d="M90 0v346h-72v72h72v317h80v-317h92v-72h-92v-274h278v-72h-358z" />
    <glyph glyph-name="uni023E" unicode="&#x23e;" 
d="M210 0v663h-162v72h404v-72h-162v-663h-80zM140 -82l-58 16l278 882l58 -16z" />
    <glyph glyph-name="uni023F" unicode="&#x23f;" 
d="M439 -205q-55 0 -110 8t-103.5 36t-84.5 70.5t-58 94t-28 106.5h3l74 24q8 -23 26 -40t41.5 -23.5t48.5 -6.5t50 6t44 25.5t19 44.5q0 37 -32.5 59.5t-69 25t-72.5 10t-66 29.5t-46 55.5t-16 70.5q0 34 16.5 65t46 50t63 26t67.5 7q40 0 79.5 -11t69.5 -40t42 -67
l-75 -24q-8 23 -26 40t-41.5 23.5t-48.5 6.5t-50 -6t-44 -25.5t-19 -44.5q0 -37 32.5 -59.5t69 -25t72.5 -10t66 -29.5t46 -55.5t16 -70.5q0 -34 -16.5 -65t-46 -50t-63 -26t-67.5 -7q-40 0 -80 11q-9 2 -17 6q16 -31 39 -56q31 -34 72 -54.5t86.5 -26t90.5 -5.5h1v-72h-1z
" />
    <glyph glyph-name="uni0240" unicode="&#x240;" 
d="M439 -205q-44 0 -88 7t-83 29t-73 49.5t-66.5 58t-63.5 61.5h-5l294 458h-294v72h380v-72l-283 -441l5 -5l7 -7l7 -7q28 -26 56.5 -51t61 -45.5t70 -27.5t75.5 -7h1v-72h-1z" />
    <glyph glyph-name="uni0241" unicode="&#x241;" 
d="M210 0v159q0 35 5 69.5t21.5 65.5t37.5 58.5t41 56t32.5 61.5t12.5 68q0 24 -6.5 48.5t-22 44.5t-38.5 30t-47 10q-29 0 -55 -14t-40.5 -40t-17.5 -55l-78 18q5 34 21 65.5t42 54.5t59.5 33t68.5 10q40 0 77.5 -14t64.5 -44.5t39.5 -69t12.5 -77.5q0 -35 -9 -69
t-26 -64.5t-38.5 -57.5t-41.5 -56t-27.5 -63t-7.5 -69v-159h-80z" />
    <glyph glyph-name="uni0242" unicode="&#x242;" 
d="M210 0v80q0 34 7 68.5t28.5 62t47 51t46.5 53t21 64.5q0 26 -17 48.5t-43 30.5t-52 8q-28 0 -54 -9t-43 -32.5t-17 -50.5l1 -6l-80 7v5q0 47 28.5 86.5t73 55.5t90.5 16q36 0 70 -8.5t63 -29.5t44.5 -53.5t15.5 -67.5q0 -29 -9.5 -57t-26.5 -51t-38.5 -43t-41 -41.5
t-27 -50t-7.5 -56.5v-80h-80z" />
    <glyph glyph-name="uni0243" unicode="&#x243;" 
d="M60 0v185h-42v72h42v478h175q38 0 74 -13t61.5 -41.5t36.5 -64.5t11 -74q0 -36 -11.5 -71t-38.5 -60q-17 -16 -38 -26q31 -12 57 -33q31 -26 46 -65t15 -79q0 -42 -14 -82.5t-45 -70t-71.5 -42.5t-82.5 -13h-175zM140 72h95q27 0 53 9t45 29t27 46t8 53t-8 53t-27 46
t-45 29t-53 9h-95v-89h110v-72h-110v-113zM140 418h95q23 0 44 9.5t34.5 28t19 40.5t5.5 44.5t-5.5 45t-19 40.5t-34.5 27.5t-44 9.5h-95v-245z" />
    <glyph glyph-name="uni0244" unicode="&#x244;" 
d="M30 346v72h440v-72h-440zM250 -8q-39 0 -76.5 14t-64.5 43.5t-38 68t-11 77.5v540h80v-540q0 -24 6 -47.5t20.5 -43.5t37 -30t46.5 -10t46.5 10t37 30t20.5 43.5t6 47.5v540h80v-540q0 -39 -11 -77.5t-38 -68t-64.5 -43.5t-76.5 -14z" />
    <glyph glyph-name="uni0245" unicode="&#x245;" 
d="M60 0v74q0 199 144 661h92q144 -462 144 -661v-74h-80v74q0 182 -110 589q-110 -407 -110 -589v-74h-80z" />
    <glyph glyph-name="uni0246" unicode="&#x246;" 
d="M90 0v735h350v-72h-270v-230h213v-72h-213v-289h270v-72h-350zM140 -82l-58 16l278 882l58 -16z" />
    <glyph glyph-name="uni0247" unicode="&#x247;" 
d="M257 -8q-44 0 -85 16t-69 50t-39.5 76.5t-11.5 85.5v90q0 43 11 84.5t37.5 75.5t66.5 51t83 17t83 -17t66.5 -51t37.5 -75.5t11 -84.5v-81h-316v-9q0 -28 6.5 -56t22.5 -51.5t42 -36t54 -12.5q27 0 52.5 11.5t42 34.5t24.5 49l73 -29q-13 -41 -41 -74t-68.5 -48.5
t-82.5 -15.5zM132 301h236v9q0 28 -5.5 55t-20.5 50.5t-39.5 37t-52.5 13.5t-52.5 -13.5t-39.5 -37t-20.5 -50.5t-5.5 -55v-9zM138 -64l-54 22l278 636l54 -22z" />
    <glyph glyph-name="uni0248" unicode="&#x248;" 
d="M226 -8q-34 0 -67 10t-59 33.5t-41 54.5t-19 65l78 15q3 -28 16.5 -53t38.5 -39t53 -14q24 0 46.5 10t37 30t20 43.5t5.5 47.5v468h-135v72h215v-540q0 -39 -11 -77t-37.5 -68t-64 -44t-76.5 -14zM224 346v72h262v-72h-262z" />
    <glyph glyph-name="uni0249" unicode="&#x249;" 
d="M180 -213q-40 0 -77 17.5t-59.5 52t-30.5 73.5l76 24q3 -24 14 -46t32 -35.5t45 -13.5q23 0 43 12t31 32t15 42t4 45v468h-135v72h215v-540q0 -38 -9.5 -74.5t-32.5 -67.5t-58 -46t-73 -15zM299 623q-17 0 -32.5 7t-23 22.5t-6.5 32.5q-1 17 6.5 32.5t23 23t32.5 7.5
t32.5 -7.5t22.5 -23t8 -32.5q-1 -17 -8 -32.5t-22.5 -22.5t-32.5 -7zM168 229v72h262v-72h-262z" />
    <glyph glyph-name="uni024A" unicode="&#x24a;" 
d="M570 -191q-33 0 -66 3.5t-63.5 18.5t-50 42.5t-25 60.5t-5.5 66v76q-10 -18 -23 -34q-21 -25 -51 -37.5t-61 -12.5q-41 0 -77 19.5t-57.5 54.5t-30 74.5t-8.5 79.5v295q0 40 8.5 79.5t30 74.5t57.5 54.5t77 19.5q31 0 61 -12.5t51 -37.5q13 -16 23 -34v76h80v-738
q0 -24 6 -48q6 -25 26.5 -42.5t46 -21.5t51.5 -4v-72zM249 64q27 0 51 14t37 38t18 50.5t5 53.5v295q0 27 -5 53.5t-18 50.5t-37 38t-51 14t-52 -13.5t-39.5 -37.5t-20 -51t-5.5 -54v-295q0 -27 5.5 -54t20 -51t39.5 -37.5t52 -13.5zM390 215v4v-4z" />
    <glyph glyph-name="uni024B" unicode="&#x24b;" 
d="M570 -191q-33 0 -66 3.5t-63.5 18.5t-50 42.5t-25 60.5t-5.5 66v76q-10 -18 -23 -34q-21 -25 -51 -37.5t-61 -12.5q-41 0 -77 19.5t-57.5 54.5t-30 74.5t-8.5 79.5v90q0 40 8.5 79.5t30 74.5t57.5 54.5t77 19.5q31 0 61 -12.5t51 -37.5q13 -16 23 -34v76h80v-531
q0 -25 6 -50t26.5 -42.5t46 -21.5t51.5 -4v-72zM249 64q27 0 51 14t37 38t18 50.5t5 53.5v90q0 27 -5 53.5t-18 50.5t-37 38t-51 14t-52 -13.5t-39.5 -37.5t-20 -51t-5.5 -54v-90q0 -27 5.5 -54t20 -51t39.5 -37.5t52 -13.5zM390 215v4v-4z" />
    <glyph glyph-name="uni024C" unicode="&#x24c;" 
d="M60 0v735h191q41 0 80 -14t66.5 -45t39 -70.5t11.5 -80t-11.5 -80t-39 -70.5t-66.5 -45q-7 -3 -14 -5q131 -191 131 -325h-80q0 128 -139 315h-89v-315h-80zM251 387q26 0 49.5 10.5t39.5 31.5t22 46t6 50.5t-6 50.5t-22 45.5t-39.5 31t-49.5 10.5h-111v-276h111zM8 317
v72h262v-72h-262z" />
    <glyph glyph-name="uni024D" unicode="&#x24d;" 
d="M120 0v530h80v-100q8 22 20 43q17 28 46 46.5t62 18.5q29 0 55.5 -12.5t45 -35t26.5 -50.5l-75 -34q-6 24 -25 42t-44 18q-30 0 -54.5 -20t-36 -48t-16 -57.5t-4.5 -59.5v-281h-80zM50 229v72h262v-72h-262z" />
    <glyph glyph-name="uni024E" unicode="&#x24e;" 
d="M210 0v287l-85 162q-65 123 -65 242v44h80v-44q0 -103 55 -209l55 -105l55 105q55 106 55 209v44h80v-44q0 -119 -65 -242l-85 -162v-287h-80zM30 258v72h440v-72h-440z" />
    <glyph glyph-name="uni024F" unicode="&#x24f;" 
d="M160 -205v7q0 60 12 95l37 108l-115 324q-34 97 -34 164v37h80v-37q0 -52 30 -140l79 -234l81 234q30 86 30 140v37h80v-37q0 -65 -34 -164l-158 -456q-8 -22 -8 -71v-7h-80zM30 142v72h440v-72h-440z" />
    <glyph glyph-name="uni0250" unicode="&#x250;" 
d="M253 -8q-37 0 -73 10t-64.5 34t-42 59t-13.5 72v363h80v-75q7 12 16 23q25 30 62 45t76 15q31 0 61 -10t52 -33t31.5 -53t9.5 -61t-11 -60.5t-34 -51t-51.5 -34t-59 -17.5t-61.5 -5h-91v-46q0 -22 8 -42.5t24.5 -34.5t37.5 -20t43 -6q25 0 50 8.5t42 29.5t20 46l78 -18
q-7 -42 -36 -76.5t-70.5 -48t-83.5 -13.5zM140 285h91q23 0 46.5 4t44.5 15.5t33.5 32t12.5 44.5t-13.5 46t-37 30.5t-48.5 8.5q-26 0 -51 -9t-43.5 -28.5t-26.5 -45t-8 -51.5v-47z" />
    <glyph glyph-name="uni0251" unicode="&#x251;" 
d="M225 -8q-41 0 -77 19.5t-57.5 54.5t-30 74.5t-8.5 79.5v90q0 40 8.5 79.5t30 74.5t57.5 54.5t77 19.5q31 0 61 -12.5t51 -37.5q13 -16 23 -34v40l80 44v-538h-80v76q-10 -18 -23 -34q-21 -25 -51 -37.5t-61 -12.5zM249 64q27 0 51 14t37 38t18 50.5t5 53.5v90
q0 27 -5 53.5t-18 50.5t-37 38t-51 14t-52 -13.5t-39.5 -37.5t-20 -51t-5.5 -54v-90q0 -27 5.5 -54t20 -51t39.5 -37.5t52 -13.5zM390 215v4v-4z" />
    <glyph glyph-name="uni0252" unicode="&#x252;" 
d="M275 -8q-31 0 -61 12.5t-51 37.5q-13 16 -23 34v-40l-80 -44v538h80v-76q10 18 23 34q21 25 51 37.5t61 12.5q41 0 77 -19.5t57.5 -54.5t30 -74.5t8.5 -79.5v-90q0 -40 -8.5 -79.5t-30 -74.5t-57.5 -54.5t-77 -19.5zM251 64q27 0 52 13.5t39.5 37.5t20 51t5.5 54v90
q0 27 -5.5 54t-20 51t-39.5 37.5t-52 13.5t-51 -14t-37 -38t-18 -50.5t-5 -53.5v-90q0 -27 5 -53.5t18 -50.5t37 -38t51 -14zM110 311v4v-4z" />
    <glyph glyph-name="uni0253" unicode="&#x253;" 
d="M275 -8q-31 0 -61 12.5t-51 37.5q-13 16 -23 34v-76h-80v515q0 42 10.5 83.5t37 76t66 51.5t81.5 17q35 0 68 -10.5t58.5 -34t41.5 -54t22 -64.5l-76 -23q-5 29 -18.5 56t-39.5 42.5t-56 15.5q-27 0 -51.5 -13.5t-38.5 -37.5t-19.5 -51t-5.5 -54v-61q10 18 23 34
q21 25 51 37.5t61 12.5q41 0 77 -19.5t57.5 -54.5t30 -74.5t8.5 -79.5v-90q0 -40 -8.5 -79.5t-30 -74.5t-57.5 -54.5t-77 -19.5zM251 64q27 0 52 13.5t39.5 37.5t20 51t5.5 54v90q0 27 -5.5 54t-20 51t-39.5 37.5t-52 13.5t-51 -14t-37 -38t-18 -50.5t-5 -53.5v-90
q0 -27 5 -53.5t18 -50.5t37 -38t51 -14zM110 311v4v-4z" />
    <glyph glyph-name="uni0254" unicode="&#x254;" 
d="M249 -8q-35 0 -68.5 10.5t-60 33.5t-42.5 54t-23 65l76 22q5 -29 19.5 -56t41.5 -42t57 -15q27 0 52 13t40 37t21 51t6 55v90q0 28 -6 55t-21 51t-40 37t-52 13q-30 0 -57 -15t-41.5 -42t-19.5 -56l-76 22q7 34 23 65t42.5 54t60 33.5t68.5 10.5q42 0 82.5 -16.5
t67.5 -51t38 -76t11 -84.5v-90q0 -43 -11 -84.5t-38 -76t-67.5 -51t-82.5 -16.5z" />
    <glyph glyph-name="uni0255" unicode="&#x255;" 
d="M82 -27l-78 19q11 42 29 81q14 32 32 61q-13 42 -13 86v90q0 42 11.5 83t39 73.5t67.5 48t82 15.5q45 0 87 -18t69.5 -55.5t36.5 -81.5l-76 -22q-5 28 -20.5 53t-42 38.5t-54.5 13.5q-27 0 -52 -11.5t-40.5 -34t-21.5 -49t-6 -53.5v-90v-3q30 30 70 48t84 18q40 0 78 -17
t61 -52.5t23 -76.5q0 -42 -24 -79t-64.5 -51.5t-83.5 -14.5q-45 0 -88.5 14.5t-76.5 48.5q-18 -39 -29 -82zM276 64q22 0 43.5 7t35 25.5t13.5 40.5q0 21 -12 39t-31.5 26.5t-40.5 8.5q-55 0 -95 -44q-18 -19 -34 -40q6 -10 14 -18q20 -24 48.5 -34.5t58.5 -10.5z" />
    </font>
</defs>
</svg>
